<?xml version="1.0" encoding="utf-8"?>
<!-- Generator: Adobe Illustrator 25.2.3, SVG Export Plug-In . SVG Version: 6.00 Build 0)  -->
<svg version="1.1" id="Layer_1" xmlns="http://www.w3.org/2000/svg" xmlns:xlink="http://www.w3.org/1999/xlink" x="0px" y="0px"
	 viewBox="0 0 386.2 91.6" style="enable-background:new 0 0 386.2 91.6;" xml:space="preserve">
<style type="text/css">
	.st0{fill:#FFFFFF;}
	.st1{fill:url(#SVGID_1_);}
	.st2{fill:url(#SVGID_2_);}
	.st3{fill:url(#SVGID_3_);}
	.st4{fill:url(#SVGID_4_);}
	.st5{fill:url(#SVGID_5_);}
	.st6{fill:url(#SVGID_6_);}
	.st7{fill:url(#SVGID_7_);}
</style>
<g>
	<g>
		<path class="st0" d="M150.6,61.1H146c-0.6,0-0.8-0.3-0.6-1l7.5-28.7c0.2-0.7,0.7-1,1.4-1h6.3c0.8,0,1.3,0.3,1.4,1l7.5,28.7
			c0.2,0.7,0,1-0.6,1h-4.6c-0.3,0-0.6-0.1-0.7-0.2c-0.1-0.1-0.2-0.4-0.3-0.8l-1.3-5.2h-9.3l-1.3,5.2c-0.1,0.4-0.2,0.6-0.3,0.8
			C151.1,61.1,150.9,61.1,150.6,61.1z M157.5,36.2L154,50h7.1l-3.4-13.8H157.5z"/>
		<path class="st0" d="M204,61.1h-15.7c-0.7,0-1-0.3-1-1V31.5c0-0.7,0.3-1,1-1h4.1c0.7,0,1,0.3,1,1v23.9c0,0.4,0.2,0.5,0.6,0.5H204
			c0.6,0,1,0.4,1,1v3.2C204.9,60.8,204.6,61.1,204,61.1z"/>
		<path class="st0" d="M227.1,61.1h-4.1c-0.7,0-1-0.3-1-1V31.5c0-0.7,0.3-1,1-1h15.2c0.6,0,1,0.3,1,1v3.2c0,0.7-0.3,1-1,1h-9.6
			c-0.4,0-0.6,0.2-0.6,0.5v7.4c0,0.4,0.2,0.6,0.6,0.6h8.2c0.7,0,1,0.3,1,1v3.2c0,0.7-0.3,1-1,1h-8.2c-0.4,0-0.6,0.2-0.6,0.5v10.2
			C228.1,60.8,227.8,61.1,227.1,61.1z"/>
		<path class="st0" d="M260.1,61.1h-4.6c-0.6,0-0.8-0.3-0.6-1l7.5-28.7c0.2-0.7,0.7-1,1.4-1h6.3c0.8,0,1.3,0.3,1.4,1l7.5,28.7
			c0.2,0.7,0,1-0.6,1h-4.6c-0.4,0-0.6-0.1-0.7-0.2c-0.1-0.1-0.2-0.4-0.3-0.8l-1.3-5.2h-9.3l-1.3,5.2c-0.1,0.4-0.2,0.6-0.3,0.8
			C260.6,61.1,260.4,61.1,260.1,61.1z M267,36.2L263.6,50h7.1l-3.4-13.8H267z"/>
		<path class="st0" d="M299.6,61.1h-1.4c-0.3,0-0.5-0.2-0.5-0.6V31c0-0.4,0.2-0.6,0.5-0.6h10.9c2.1,0,3.7,0.6,4.9,1.8
			c1.2,1.2,1.8,2.9,1.8,5v4.5c0,1.8-0.5,3.2-1.4,4.4c-0.9,1.1-2.1,1.9-3.7,2.2v0.2l5.7,12c0.2,0.4,0.1,0.6-0.3,0.6h-1.5
			c-0.4,0-0.7-0.2-0.9-0.6l-5.6-12h-7.5c-0.3,0-0.5,0.1-0.5,0.4v11.6C300.1,61,300,61.1,299.6,61.1z M300.6,46.5h8.2
			c1.5,0,2.6-0.4,3.4-1.2c0.8-0.8,1.2-2,1.2-3.5v-4.5c0-1.5-0.4-2.7-1.2-3.5c-0.8-0.8-1.9-1.2-3.4-1.2h-8.2c-0.3,0-0.5,0.1-0.5,0.4
			v13C300.1,46.4,300.3,46.5,300.6,46.5z"/>
		<path class="st0" d="M339.1,31v29.5c0,0.4-0.2,0.6-0.5,0.6h-1.4c-0.3,0-0.5-0.2-0.5-0.6V31c0-0.4,0.2-0.6,0.5-0.6h1.4
			C338.9,30.5,339.1,30.7,339.1,31z"/>
		<path class="st0" d="M382.7,30.5h2.6c0.3,0,0.5,0.2,0.5,0.6v29.5c0,0.4-0.2,0.6-0.5,0.6h-1.4c-0.3,0-0.5-0.2-0.5-0.6V34.1h-0.2
			l-8.4,19.8c-0.2,0.4-0.4,0.5-0.7,0.5h-1.6c-0.3,0-0.5-0.2-0.7-0.5l-8.6-19.8h-0.2v26.5c0,0.4-0.2,0.6-0.5,0.6h-1.4
			c-0.3,0-0.5-0.2-0.5-0.6V31c0-0.4,0.2-0.6,0.5-0.6h2.6c0.2,0,0.4,0.1,0.4,0.3l8.9,20.9h0.2l8.9-20.9
			C382.4,30.6,382.5,30.5,382.7,30.5z"/>
	</g>
	<g>
		<g>
			<linearGradient id="SVGID_1_" gradientUnits="userSpaceOnUse" x1="58.2033" y1="-15.1256" x2="58.2033" y2="101.3887">
				<stop  offset="4.528621e-07" style="stop-color:#F7982A"/>
				<stop  offset="0.527" style="stop-color:#E83E39"/>
				<stop  offset="1" style="stop-color:#8C3D96"/>
			</linearGradient>
			<path class="st1" d="M111.2,2.4c-4.8-2.9-11.1-1.3-13.9,3.5L66.4,56.5l-0.2,0.4C61.3,66,51.2,71,41.1,69.4
				c-13.2-2.1-22.2-14.5-20.1-27.7c1-6.4,4.4-12,9.7-15.8c5.2-3.8,11.6-5.3,18-4.3c4.7,0.7,9,2.8,12.4,5.9
				c4.2,3.8,10.6,3.4,14.4-0.7c3.8-4.2,3.4-10.6-0.7-14.4C68.3,6.6,60.4,2.9,51.8,1.5c-11.7-1.9-23.5,1-33.2,8
				c-9.6,7-16,17.3-17.8,29.1c-3.8,24.3,12.8,47.1,37,51c2.3,0.4,4.7,0.6,7,0.5c16.1,0,31.3-8.8,39.2-23.3l30.7-50.4
				C117.6,11.5,116,5.3,111.2,2.4z"/>
			<linearGradient id="SVGID_2_" gradientUnits="userSpaceOnUse" x1="84.2254" y1="-5.6731" x2="43.5746" y2="34.7057">
				<stop  offset="4.528621e-07" style="stop-color:#F7982A"/>
				<stop  offset="0.527" style="stop-color:#E83E39"/>
				<stop  offset="1" style="stop-color:#8C3D96"/>
			</linearGradient>
			<path class="st2" d="M25.8,30.6c5-5.2,11.8-9.9,21.3-9.2c6.1,0.5,10.7,3.2,14.2,6.3c4,3.5,10.7,3.2,14.4-0.9
				c3.8-4.2,3.4-10.6-0.7-14.4c-6.4-5.8-16.9-4-25.6-1.5C39.1,13.9,32.3,20.6,25.8,30.6"/>
			<linearGradient id="SVGID_3_" gradientUnits="userSpaceOnUse" x1="64.8606" y1="56.0609" x2="131.6149" y2="95.624">
				<stop  offset="4.528621e-07" style="stop-color:#F7982A"/>
				<stop  offset="0.527" style="stop-color:#E83E39"/>
				<stop  offset="1" style="stop-color:#8C3D96"/>
			</linearGradient>
			<circle class="st3" cx="105.1" cy="79.9" r="10.8"/>
		</g>
		<g>
			<linearGradient id="SVGID_4_" gradientUnits="userSpaceOnUse" x1="55.2687" y1="24.8877" x2="88.306" y2="102.6544">
				<stop  offset="4.528621e-07" style="stop-color:#F7982A"/>
				<stop  offset="0.527" style="stop-color:#E83E39"/>
				<stop  offset="1" style="stop-color:#8C3D96"/>
			</linearGradient>
			<path class="st4" d="M2.4,59c4.1,12.8,13.1,21.6,22.9,26.6c19.3,9.7,37.6,0.8,39.5-0.2c8-4.1,14.8-10.4,19.3-18.6l30.7-50.4
				c2.9-4.8,1.3-11.1-3.5-13.9c-4.8-2.9-11.1-1.3-13.9,3.5L66.4,56.5l-0.2,0.4C61.3,66,51.6,76,36.9,76.3C24.7,76.5,10,72.2,2.4,59"
				/>
		</g>
		<g>
			<linearGradient id="SVGID_5_" gradientUnits="userSpaceOnUse" x1="123.0872" y1="9.8509" x2="80.7306" y2="23.405">
				<stop  offset="4.528621e-07" style="stop-color:#F7982A"/>
				<stop  offset="0.527" style="stop-color:#E83E39"/>
				<stop  offset="1" style="stop-color:#8C3D96"/>
			</linearGradient>
			<path class="st5" d="M111.2,2.4c-4.8-2.9-11.1-1.3-13.9,3.5L76.7,39.6c2.9-4.8,11.4-18.3,18.8-20.5c6.3-2,9.4-0.8,13.5-0.1
				c3.6,0.6,5.1-1.8,5.1-1.8l0.5-0.9C117.6,11.5,116,5.3,111.2,2.4z"/>
		</g>
	</g>
</g>
<linearGradient id="SVGID_6_" gradientUnits="userSpaceOnUse" x1="94.1729" y1="65.3161" x2="111.7704" y2="88.8555">
	<stop  offset="4.528621e-07" style="stop-color:#F7982A"/>
	<stop  offset="0.527" style="stop-color:#E83E39"/>
	<stop  offset="1" style="stop-color:#8C3D96"/>
</linearGradient>
<circle class="st6" cx="105.1" cy="79.9" r="10.8"/>
<linearGradient id="SVGID_7_" gradientUnits="userSpaceOnUse" x1="117.8053" y1="57.6508" x2="87.8954" y2="129.726">
	<stop  offset="0" style="stop-color:#F7982A"/>
	<stop  offset="0.527" style="stop-color:#E83E39"/>
	<stop  offset="1" style="stop-color:#8C3D96"/>
</linearGradient>
<path class="st7" d="M107.9,69.5c1.9,1.9,3,4.6,3,7.5c0,5.9-4.8,10.8-10.8,10.8c-1,0-1.9-0.1-2.9-0.4c2,2,4.7,3.3,7.7,3.3
	c5.9,0,10.8-4.8,10.8-10.8C115.8,75,112.5,70.8,107.9,69.5z"/>
</svg>
