<svg width="121" height="24" viewBox="0 0 121 24" fill="none" xmlns="http://www.w3.org/2000/svg">
<g clip-path="url(#clip0_1080_364)">
<path d="M11.9395 3.21039V9.10621C11.9395 9.37778 12.2669 9.5145 12.459 9.32253L16.6185 5.14694" stroke="#101E30" stroke-width="1.50034" stroke-miterlimit="10" stroke-linecap="round"/>
<path d="M16.612 21.2979L12.459 17.1288C12.2678 16.9369 11.9395 17.0727 11.9395 17.3452V23.2503" stroke="#101E30" stroke-width="1.50034" stroke-miterlimit="10" stroke-linecap="round"/>
<path d="M9.23571 23.2503V17.3545C9.23571 17.0829 8.90829 16.9462 8.71612 17.1381L4.55664 21.3137" stroke="#101E30" stroke-width="1.50034" stroke-miterlimit="10" stroke-linecap="round"/>
<path d="M4.5625 5.16286L8.71545 9.33189C8.90668 9.52386 9.23504 9.38808 9.23504 9.11557V3.21039" stroke="#101E30" stroke-width="1.50034" stroke-miterlimit="10" stroke-linecap="round"/>
<path d="M2.69104 19.3245L6.84399 15.1554C7.03522 14.9635 6.89996 14.6339 6.62851 14.6339H0.746094" stroke="#101E30" stroke-width="1.50034" stroke-miterlimit="10" stroke-linecap="round"/>
<path d="M0.746094 11.8256H6.61918C6.8897 11.8256 7.0259 11.4969 6.83467 11.304L2.67518 7.12843" stroke="#101E30" stroke-width="1.50034" stroke-miterlimit="10" stroke-linecap="round"/>
<path d="M33.4831 20.3113C32.1025 20.3113 30.8618 20.0023 29.7611 19.3842C28.6604 18.7662 27.7928 17.9234 27.1585 16.8558C26.5242 15.7883 26.207 14.5896 26.207 13.2599C26.207 11.9302 26.5242 10.7034 27.1585 9.63588C27.7928 8.56834 28.665 7.72086 29.7751 7.09345C30.8852 6.46604 32.1212 6.15233 33.4831 6.15233C34.5465 6.15233 35.526 6.34898 36.4215 6.74229C37.317 7.13559 38.0913 7.69745 38.7442 8.42788L36.3935 10.8158C36.039 10.4225 35.6146 10.1228 35.1202 9.91681C34.6258 9.7108 34.0801 9.60779 33.4831 9.60779C32.8115 9.60779 32.2098 9.7623 31.6781 10.0713C31.1464 10.3804 30.7266 10.8017 30.4188 11.3355C30.1109 11.8693 29.957 12.5014 29.957 13.2318C29.957 13.9622 30.1109 14.5756 30.4188 15.1281C30.7266 15.6806 31.1464 16.1114 31.6781 16.4204C32.2098 16.7294 32.8115 16.8839 33.4831 16.8839C34.0988 16.8839 34.6538 16.7762 35.1482 16.5609C35.6426 16.3455 36.067 16.0318 36.4215 15.6197L38.8002 18.0076C38.1099 18.7568 37.317 19.328 36.4215 19.7213C35.526 20.1146 34.5465 20.3113 33.4831 20.3113Z" fill="#101E30"/>
<path d="M53.5391 20.3113C52.1772 20.3113 50.9505 19.9976 49.8591 19.3702C48.7677 18.7428 47.9001 17.8906 47.2565 16.8137C46.6128 15.7368 46.291 14.5335 46.291 13.2037C46.291 11.874 46.6082 10.68 47.2425 9.62184C47.8768 8.56366 48.7444 7.72086 49.8451 7.09345C50.9458 6.46604 52.1678 6.15233 53.5111 6.15233C54.8544 6.15233 56.1277 6.46604 57.2191 7.09345C58.3105 7.72086 59.1734 8.56366 59.8077 9.62184C60.442 10.68 60.7592 11.874 60.7592 13.2037C60.7592 14.5335 60.442 15.7368 59.8077 16.8137C59.1734 17.8906 58.3105 18.7428 57.2191 19.3702C56.1277 19.9976 54.901 20.3113 53.5391 20.3113ZM53.5111 16.8839C54.2014 16.8839 54.8124 16.7294 55.3441 16.4204C55.8758 16.1114 56.2863 15.6806 56.5755 15.1281C56.8646 14.5756 57.0092 13.9435 57.0092 13.2318C57.0092 12.5201 56.86 11.8927 56.5615 11.3496C56.263 10.8064 55.8525 10.3804 55.3301 10.0713C54.8077 9.7623 54.2014 9.60779 53.5111 9.60779C52.8208 9.60779 52.2425 9.7623 51.7201 10.0713C51.1977 10.3804 50.7872 10.8064 50.4887 11.3496C50.1902 11.8927 50.041 12.5201 50.041 13.2318C50.041 13.9435 50.1902 14.5756 50.4887 15.1281C50.7872 15.6806 51.1977 16.1114 51.7201 16.4204C52.2425 16.7294 52.8395 16.8839 53.5111 16.8839Z" fill="#101E30"/>
<path d="M69.5449 20.3114V0H73.2109V20.3114H69.5449Z" fill="#101E30"/>
<path d="M82.0547 20.3114V0H85.7207V20.3114H82.0547Z" fill="#101E30"/>
<path d="M96.9693 4.55124C96.3723 4.55124 95.8779 4.34991 95.4861 3.94724C95.0943 3.54457 94.8984 3.04357 94.8984 2.44425C94.8984 1.84493 95.0943 1.36735 95.4861 0.955315C95.8779 0.543282 96.3723 0.337265 96.9693 0.337265C97.5663 0.337265 98.084 0.543282 98.4665 0.955315C98.849 1.36735 99.0402 1.86366 99.0402 2.44425C99.0402 3.02485 98.849 3.54457 98.4665 3.94724C98.084 4.34991 97.585 4.55124 96.9693 4.55124ZM95.1223 20.3115V6.74251H98.8163V20.3115H95.1223Z" fill="#101E30"/>
<path d="M114.59 20.3113C113.173 20.3113 111.913 20.0069 110.813 19.3983C109.712 18.7896 108.84 17.9515 108.196 16.8839C107.552 15.8164 107.23 14.599 107.23 13.2318C107.23 11.8646 107.543 10.68 108.168 9.62184C108.793 8.56366 109.646 7.72086 110.729 7.09345C111.811 6.46604 113.014 6.15233 114.339 6.15233C115.663 6.15233 116.797 6.44731 117.795 7.03726C118.793 7.62722 119.576 8.43256 120.145 9.45328C120.715 10.474 120.999 11.6305 120.999 12.9228C120.999 13.1663 120.985 13.4144 120.957 13.6673C120.929 13.9201 120.878 14.2057 120.803 14.5241L109.441 14.5522V11.7991L119.096 11.771L117.613 12.9228C117.576 12.1174 117.431 11.4432 117.179 10.9001C116.927 10.3569 116.563 9.94023 116.088 9.64993C115.612 9.35963 115.029 9.21449 114.339 9.21449C113.611 9.21449 112.977 9.37836 112.436 9.70612C111.895 10.0339 111.479 10.4927 111.19 11.0827C110.901 11.6726 110.757 12.3703 110.757 13.1756C110.757 13.981 110.91 14.7161 111.218 15.3247C111.526 15.9334 111.969 16.4017 112.548 16.7294C113.126 17.0572 113.798 17.221 114.562 17.221C115.253 17.221 115.878 17.104 116.437 16.8699C116.997 16.6358 117.482 16.2846 117.893 15.8164L120.048 17.9796C119.395 18.7474 118.597 19.328 117.655 19.7213C116.713 20.1146 115.691 20.3113 114.59 20.3113Z" fill="#101E30"/>
</g>
<defs>
<clipPath id="clip0_1080_364">
<rect width="121" height="24" fill="white"/>
</clipPath>
</defs>
</svg>
