<?xml version="1.0" encoding="utf-8"?>
<!-- Generator: Adobe Illustrator 24.3.0, SVG Export Plug-In . SVG Version: 6.00 Build 0)  -->
<svg version="1.1" id="Layer_1" xmlns="http://www.w3.org/2000/svg" xmlns:xlink="http://www.w3.org/1999/xlink" x="0px" y="0px"
	 viewBox="0 0 776.3 107.7" style="enable-background:new 0 0 776.3 107.7;" xml:space="preserve">
<style type="text/css">
	.st0{fill:#A21D7C;}
	.st1{display:none;fill:none;}
</style>
<g>
	<path class="st0" d="M190.9,42.1c-1.4-1.9-3.2-3.2-5.4-4.1c-2.2-0.9-4.4-1.3-6.5-1.3c-2.7,0-5.2,0.5-7.4,1.5s-4.1,2.3-5.7,4.1
		c-1.6,1.7-2.8,3.7-3.7,6.1c-0.9,2.3-1.3,4.8-1.3,7.5c0,2.9,0.4,5.5,1.3,7.8c0.8,2.4,2,4.4,3.6,6.1s3.4,3,5.6,4
		c2.2,0.9,4.6,1.4,7.3,1.4c2.8,0,5.3-0.6,7.5-1.7s3.9-2.6,5.3-4.4l7.5,5.3c-2.3,2.9-5.2,5.2-8.5,6.8c-3.4,1.6-7.3,2.4-11.8,2.4
		c-4.1,0-7.9-0.7-11.3-2c-3.4-1.4-6.4-3.3-8.8-5.7c-2.5-2.4-4.4-5.4-5.8-8.7c-1.4-3.4-2.1-7.1-2.1-11.2c0-4.2,0.7-8,2.2-11.4
		c1.5-3.4,3.5-6.3,6-8.6c2.5-2.4,5.5-4.2,9-5.5s7.2-1.9,11.2-1.9c1.7,0,3.4,0.2,5.3,0.5c1.8,0.3,3.6,0.8,5.3,1.5s3.3,1.5,4.7,2.5
		c1.5,1,2.7,2.2,3.8,3.6L190.9,42.1z"/>
	<path class="st0" d="M201.1,64.3c0-2.8,0.5-5.4,1.5-7.7s2.4-4.3,4.1-5.9c1.7-1.6,3.8-2.9,6.1-3.8c2.4-0.9,4.9-1.3,7.5-1.3
		s5.2,0.4,7.5,1.3c2.4,0.9,4.4,2.1,6.1,3.8c1.7,1.6,3.1,3.6,4.1,5.9c1,2.3,1.5,4.8,1.5,7.7c0,2.8-0.5,5.4-1.5,7.7
		c-1,2.3-2.4,4.3-4.1,6c-1.7,1.7-3.8,2.9-6.1,3.9c-2.4,0.9-4.9,1.4-7.5,1.4s-5.2-0.5-7.5-1.4s-4.4-2.2-6.1-3.9
		c-1.7-1.7-3.1-3.6-4.1-6C201.6,69.7,201.1,67.1,201.1,64.3z M210.2,64.3c0,1.4,0.2,2.8,0.6,4.1c0.4,1.4,1,2.6,1.9,3.7
		c0.8,1.1,1.9,2,3.2,2.7s2.8,1,4.6,1s3.3-0.3,4.6-1s2.3-1.6,3.2-2.7c0.8-1.1,1.5-2.3,1.9-3.7c0.4-1.4,0.6-2.8,0.6-4.1
		c0-1.4-0.2-2.7-0.6-4.1c-0.4-1.4-1-2.6-1.9-3.7c-0.8-1.1-1.9-2-3.2-2.6c-1.3-0.7-2.8-1-4.6-1s-3.3,0.3-4.6,1s-2.3,1.5-3.2,2.6
		c-0.8,1.1-1.5,2.3-1.9,3.7C210.4,61.6,210.2,62.9,210.2,64.3z"/>
	<path class="st0" d="M248.4,46.7h8.5v5.9h0.1c1-2.1,2.4-3.7,4.1-5c1.8-1.3,3.8-1.9,6.2-1.9c0.3,0,0.7,0,1.1,0s0.7,0.1,1,0.2V54
		c-0.6-0.1-1.1-0.2-1.5-0.3c-0.4,0-0.8-0.1-1.2-0.1c-2,0-3.7,0.4-4.9,1.1c-1.2,0.7-2.2,1.6-2.9,2.7c-0.7,1-1.2,2.1-1.4,3.2
		c-0.2,1.1-0.4,1.9-0.4,2.6v19h-8.9V46.7H248.4z"/>
	<path class="st0" d="M307.8,64.9c0,0.4,0,0.8,0,1.2c0,0.4,0,0.8-0.1,1.2h-27c0.1,1.3,0.4,2.5,1,3.5c0.6,1.1,1.3,2,2.3,2.7
		c0.9,0.8,2,1.4,3.2,1.8s2.4,0.7,3.7,0.7c2.2,0,4.1-0.4,5.6-1.2c1.5-0.8,2.8-1.9,3.8-3.4l5.9,4.7c-3.5,4.7-8.6,7.1-15.2,7.1
		c-2.8,0-5.3-0.4-7.6-1.3c-2.3-0.9-4.3-2.1-6-3.7s-3-3.5-4-5.8s-1.4-4.9-1.4-7.8s0.5-5.5,1.4-7.8c1-2.3,2.3-4.3,4-6s3.7-2.9,6-3.8
		c2.3-0.9,4.8-1.4,7.4-1.4c2.5,0,4.7,0.4,6.8,1.2c2.1,0.8,3.9,2,5.4,3.6s2.7,3.6,3.6,6C307.4,58.9,307.8,61.7,307.8,64.9z M299,60.9
		c0-1.1-0.2-2.2-0.5-3.3c-0.3-1-0.8-1.9-1.5-2.7s-1.6-1.4-2.6-1.9c-1.1-0.5-2.3-0.7-3.7-0.7c-2.7,0-4.9,0.8-6.8,2.4
		c-1.9,1.6-2.9,3.7-3.1,6.2H299z"/>
	<path class="st0" d="M335.4,29.8h9.3v44.1H367v8.3h-31.6V29.8z"/>
	<path class="st0" d="M371.6,34.6c0-1.4,0.5-2.7,1.6-3.7c1.1-1.1,2.4-1.6,4-1.6s3,0.5,4.1,1.5s1.7,2.3,1.7,3.8s-0.6,2.8-1.7,3.8
		s-2.5,1.5-4.1,1.5s-3-0.5-4-1.6C372.2,37.3,371.6,36.1,371.6,34.6z M372.9,46.7h8.9v35.5h-8.9V46.7z"/>
	<path class="st0" d="M394,53.8h-6.7v-7.1h6.7v-5.3c0-2.1,0.2-4.2,0.7-6.1c0.5-1.9,1.3-3.7,2.4-5.1c1.1-1.5,2.6-2.7,4.4-3.5
		c1.8-0.9,4.1-1.3,6.9-1.3c1,0,1.8,0,2.5,0.1s1.3,0.2,2,0.4l-0.6,7.5c-0.5-0.1-1-0.3-1.6-0.4c-0.6-0.1-1.2-0.1-1.8-0.1
		c-1.3,0-2.3,0.2-3.1,0.7c-0.8,0.5-1.4,1.1-1.8,1.9c-0.4,0.8-0.7,1.7-0.9,2.6c-0.1,0.9-0.2,1.8-0.2,2.7v5.8h8.2v7.1h-8.2v28.4H394
		V53.8z"/>
	<path class="st0" d="M450.4,64.9c0,0.4,0,0.8,0,1.2c0,0.4,0,0.8-0.1,1.2h-27c0.1,1.3,0.4,2.5,1,3.5c0.6,1.1,1.3,2,2.3,2.7
		c0.9,0.8,2,1.4,3.2,1.8s2.4,0.7,3.7,0.7c2.2,0,4.1-0.4,5.6-1.2c1.5-0.8,2.8-1.9,3.8-3.4l5.9,4.7c-3.5,4.7-8.6,7.1-15.2,7.1
		c-2.8,0-5.3-0.4-7.6-1.3c-2.3-0.9-4.3-2.1-6-3.7s-3-3.5-4-5.8s-1.4-4.9-1.4-7.8s0.5-5.5,1.4-7.8c1-2.3,2.3-4.3,4-6s3.7-2.9,6-3.8
		c2.3-0.9,4.8-1.4,7.4-1.4c2.5,0,4.7,0.4,6.8,1.2s3.9,2,5.4,3.6s2.7,3.6,3.6,6C450,58.9,450.4,61.7,450.4,64.9z M441.6,60.9
		c0-1.1-0.2-2.2-0.5-3.3c-0.3-1-0.8-1.9-1.5-2.7S438,53.5,437,53c-1.1-0.5-2.3-0.7-3.7-0.7c-2.7,0-4.9,0.8-6.8,2.4
		c-1.9,1.6-2.9,3.7-3.1,6.2H441.6z"/>
	<path class="st0" d="M493.1,29.8h8.1l22.6,52.4H513l-4.9-12h-22.7l-4.7,12h-10.4L493.1,29.8z M504.9,62.2l-8.1-21.3l-8.2,21.3
		H504.9z"/>
	<path class="st0" d="M528.4,46.7h8.4v5.7h0.1c0.8-1.8,2.2-3.3,4.1-4.7c1.9-1.4,4.3-2,6.9-2c2.3,0,4.3,0.4,6,1.2s3,1.9,4.1,3.2
		s1.8,2.9,2.3,4.6c0.5,1.7,0.7,3.5,0.7,5.3v22.2h-8.9V62.5c0-1-0.1-2.1-0.2-3.3c-0.1-1.1-0.5-2.2-1-3.1c-0.5-0.9-1.2-1.7-2-2.3
		c-0.9-0.6-2-0.9-3.4-0.9s-2.7,0.3-3.7,0.9c-1,0.6-1.9,1.3-2.6,2.2c-0.7,0.9-1.2,1.9-1.5,3.1c-0.3,1.2-0.5,2.3-0.5,3.5v19.5h-8.9
		V46.7H528.4z"/>
	<path class="st0" d="M593.6,77.7h-0.2c-0.9,1.6-2.3,2.9-4.3,3.9s-4.2,1.5-6.7,1.5c-1.4,0-2.9-0.2-4.5-0.6s-3-1-4.3-1.8
		c-1.3-0.9-2.4-2-3.3-3.4c-0.9-1.4-1.3-3.1-1.3-5.2c0-2.7,0.8-4.8,2.3-6.4s3.4-2.8,5.8-3.6c2.4-0.8,5-1.4,7.9-1.7s5.7-0.4,8.5-0.4
		v-0.9c0-2.2-0.8-3.9-2.4-4.9c-1.6-1.1-3.5-1.6-5.7-1.6c-1.9,0-3.7,0.4-5.4,1.2s-3.2,1.8-4.3,2.9l-4.6-5.4c2-1.9,4.4-3.3,7-4.2
		s5.3-1.4,8-1.4c3.2,0,5.8,0.4,7.8,1.3c2,0.9,3.7,2,4.8,3.5c1.2,1.4,2,3,2.5,4.8s0.7,3.6,0.7,5.3v21.6h-8.3V77.7z M593.4,66h-2
		c-1.4,0-2.9,0.1-4.5,0.2s-3,0.4-4.4,0.8c-1.3,0.4-2.4,1-3.3,1.8c-0.9,0.8-1.3,1.8-1.3,3.1c0,0.8,0.2,1.5,0.6,2.1
		c0.4,0.6,0.9,1,1.4,1.4c0.6,0.3,1.3,0.6,2,0.7s1.5,0.2,2.2,0.2c3.1,0,5.4-0.8,7-2.4s2.4-3.8,2.4-6.7V66H593.4z"/>
	<path class="st0" d="M612.4,26.3h8.9v55.9h-8.9V26.3z"/>
	<path class="st0" d="M626.7,46.7h9.8l9.9,25.8h0.1l8.8-25.8h9.2l-16.8,43.1c-0.6,1.6-1.3,3.1-2.1,4.3s-1.6,2.3-2.7,3.2
		c-1,0.9-2.3,1.5-3.7,2c-1.4,0.4-3.1,0.7-5.1,0.7c-0.7,0-1.5,0-2.3-0.1s-1.5-0.2-2.3-0.4l0.7-7.7c0.6,0.2,1.2,0.3,1.7,0.4
		c0.6,0.1,1.1,0.1,1.6,0.1c0.9,0,1.7-0.1,2.4-0.3c0.6-0.2,1.2-0.6,1.6-1c0.4-0.5,0.8-1,1.2-1.7c0.3-0.7,0.7-1.5,1.1-2.4l1.8-4.5
		L626.7,46.7z"/>
	<path class="st0" d="M664.9,53.8v-7.1h6.2V36.4h8.7v10.3h8.9v7.1h-8.9v16.5c0,1.6,0.3,2.9,0.9,3.9c0.6,1,1.8,1.6,3.8,1.6
		c0.6,0,1.2-0.1,1.9-0.2s1.3-0.3,1.9-0.6l0.3,7c-0.8,0.3-1.7,0.5-2.8,0.7s-2.1,0.3-3.1,0.3c-2.4,0-4.3-0.3-5.8-1s-2.7-1.6-3.5-2.7
		c-0.9-1.2-1.5-2.5-1.8-4s-0.5-3.1-0.5-4.8V53.8H664.9z"/>
	<path class="st0" d="M694,34.6c0-1.4,0.5-2.7,1.6-3.7c1.1-1.1,2.4-1.6,4-1.6s3,0.5,4.1,1.5s1.7,2.3,1.7,3.8s-0.6,2.8-1.7,3.8
		c-1.1,1-2.5,1.5-4.1,1.5s-3-0.5-4-1.6C694.6,37.3,694,36.1,694,34.6z M695.3,46.7h8.9v35.5h-8.9V46.7z"/>
	<path class="st0" d="M739.3,56.5c-0.7-1-1.7-1.8-3.1-2.5c-1.4-0.7-2.8-1-4.2-1c-1.6,0-3.1,0.3-4.3,1s-2.3,1.5-3.1,2.6
		s-1.4,2.3-1.8,3.7c-0.4,1.4-0.6,2.7-0.6,4.1s0.2,2.8,0.6,4.1c0.4,1.4,1,2.6,1.9,3.7c0.8,1.1,1.9,2,3.1,2.6s2.7,1,4.4,1
		c1.4,0,2.8-0.3,4.1-0.8c1.4-0.5,2.5-1.3,3.3-2.4l5.5,5.6c-1.5,1.6-3.4,2.8-5.7,3.7s-4.8,1.3-7.4,1.3c-2.6,0-5.1-0.4-7.4-1.3
		c-2.3-0.8-4.4-2.1-6.1-3.7c-1.8-1.6-3.1-3.6-4.1-5.9s-1.5-5-1.5-7.9s0.5-5.5,1.5-7.8s2.4-4.3,4.1-5.9c1.7-1.6,3.7-2.9,6-3.8
		c2.3-0.9,4.7-1.3,7.4-1.3c2.6,0,5.1,0.5,7.6,1.5c2.4,1,4.4,2.3,5.8,4.1L739.3,56.5z"/>
	<path class="st0" d="M770.6,56.2c-0.8-1-1.9-1.9-3.3-2.7c-1.4-0.8-2.9-1.1-4.5-1.1c-1.4,0-2.7,0.3-3.9,0.9c-1.2,0.6-1.8,1.6-1.8,3
		s0.7,2.4,2,2.9c1.3,0.6,3.2,1.1,5.7,1.7c1.3,0.3,2.7,0.7,4,1.2c1.4,0.5,2.6,1.1,3.7,2c1.1,0.8,2,1.8,2.7,3s1,2.7,1,4.4
		c0,2.2-0.4,4-1.2,5.5s-1.9,2.7-3.3,3.7c-1.4,0.9-2.9,1.6-4.7,2s-3.7,0.6-5.6,0.6c-2.8,0-5.5-0.5-8.1-1.5s-4.8-2.5-6.5-4.3l5.8-5.5
		c1,1.3,2.3,2.3,3.8,3.2c1.6,0.8,3.3,1.3,5.3,1.3c0.6,0,1.3-0.1,2-0.2s1.3-0.4,1.9-0.7c0.6-0.3,1-0.8,1.4-1.3c0.3-0.5,0.5-1.2,0.5-2
		c0-1.5-0.7-2.5-2-3.2c-1.4-0.6-3.4-1.3-6.1-1.9c-1.3-0.3-2.6-0.7-3.9-1.1c-1.3-0.5-2.4-1.1-3.4-1.8c-1-0.8-1.8-1.7-2.4-2.8
		c-0.6-1.1-0.9-2.5-0.9-4.2c0-2,0.4-3.7,1.2-5.1c0.8-1.4,1.9-2.6,3.2-3.5s2.8-1.6,4.5-2s3.4-0.7,5.2-0.7c2.6,0,5.1,0.4,7.5,1.3
		c2.4,0.9,4.4,2.2,5.8,4.1L770.6,56.2z"/>
</g>
<g>
	<g>
		<path class="st1" d="M71.9,36.8c0.7,1,0.9,2.6,0.9,4.6C72.8,39.4,72.5,37.9,71.9,36.8z"/>
		<g>
			<path class="st1" d="M71.9,36.8c0.7,1,0.9,2.6,0.9,4.6C72.8,39.4,72.5,37.9,71.9,36.8z"/>
			<path class="st0" d="M71.6,36.5c-0.1-0.1-0.2-0.2-0.4-0.4c0,0-0.1,0-0.1-0.1l0.1,0c-4.4-4.3-10.6-7-17.3-7
				c-6.9,0-13.1,2.8-17.6,7.3c-1.5,1.5,0,5.2,3.1,9.7l0.2-0.1c-0.1,0.1-0.1,0.1-0.2,0.2c5.2,7.5,14.7,17.2,22.2,22.4
				c0,0,0,0,0.1-0.1c4.2,2.9,7.8,4.4,9.4,3.3c0.1-0.1,0.2-0.2,0.3-0.2c4.5-4.5,7.3-10.7,7.3-17.6C78.7,47.1,76,41,71.6,36.5z
				 M71.9,36.8"/>
		</g>
	</g>
	<g>
		<path class="st1" d="M20.8,38c-0.5,0.6-1,1.3-1.5,1.9C19.8,39.3,20.3,38.6,20.8,38z"/>
		<path class="st1" d="M7.2,58.1c-0.1-0.6-0.1-1.2-0.1-1.8C7.1,56.9,7.1,57.5,7.2,58.1z"/>
		<path class="st1" d="M18,84.1c-5.9-7-9.8-15.8-10.8-25.5c1,10,5.1,19,11.3,26.1C18.3,84.5,18.2,84.3,18,84.1z"/>
		<path class="st1" d="M53.9,7.1c-12.9,0-24.6,5.3-33.1,13.7c-2.3,2.3-2.1,8.3,0.9,16.2c3.2,8.3,9.7,18.7,20.1,29
			C52,76.2,62.5,82.6,71,85.9c-9.8,9.8-34,13.9-47.8,3.5c8.2,7.1,19,11.5,30.7,11.5c13,0,24.7-5.3,33.2-13.8s13.7-20.2,13.7-33.1
			C100.8,28.1,79.8,7.1,53.9,7.1z"/>
		<g>
			<path class="st1" d="M53.9,7.1c-12.9,0-24.6,5.3-33.1,13.7c-2.3,2.3-2.1,8.3,0.9,16.2c3.2,8.3,9.7,18.7,20.1,29
				C52,76.2,62.5,82.6,71,85.9c-9.8,9.8-34,13.9-47.8,3.5c8.2,7.1,19,11.5,30.7,11.5c13,0,24.7-5.3,33.2-13.8s13.7-20.2,13.7-33.1
				C100.8,28.1,79.8,7.1,53.9,7.1z"/>
			<path class="st0" d="M53.9,0C24.1,0,0,24.1,0,53.9s24.1,53.9,53.9,53.9c29.8,0,53.9-24.1,53.9-53.9S83.6,0,53.9,0z M87.1,87.1
				C87.1,87.1,87.1,87.1,87.1,87.1C85,89.2,78.9,89,71,85.9c-8.5-3.3-19-9.7-29.2-19.9C31.4,55.7,24.9,45.3,21.7,37
				c-3-7.9-3.2-13.9-0.9-16.2C29.3,12.4,41,7.1,53.9,7.1c25.9,0,46.9,21,46.9,46.9C100.8,66.9,95.6,78.6,87.1,87.1z"/>
		</g>
	</g>
</g>
</svg>
