<svg xmlns="http://www.w3.org/2000/svg" viewBox="0 0 1133.86 317.07"><defs><style>.cls-1{fill:#ffda00;}.cls-2{fill:#004dff;}.cls-3{fill:#ff4d33;}</style></defs><g id="Layer_1" data-name="Layer 1"><path class="cls-1" d="M90.37,225.16l17.39,50.16,164.72-92.45c11.48-6.44,17.37-14.86,17.8-23.35L161,133.17Z"/><path class="cls-2" d="M272.48,134.18,43.37,5.59C31.7-1,21.08-1.54,13.26,2.75l37.43,108L161,133.17l129.33,26.35C290.75,150.37,284.85,141.13,272.48,134.18Z"/><path class="cls-3" d="M50.69,110.71,13.26,2.75C5.11,7.23,0,17,0,31V286.07c0,27.36,19.52,38.78,43.37,25.39l64.39-36.14L90.37,225.16Z"/><path class="cls-2" d="M447.67,232.61V212.86a40.22,40.22,0,0,1-37,22.47,51.66,51.66,0,0,1-29-8.52,59.9,59.9,0,0,1-20.38-22.6,63.32,63.32,0,0,1-7.4-29.88,64.11,64.11,0,0,1,7.4-30.49,57,57,0,0,1,20.5-22.1,53.58,53.58,0,0,1,28.89-8.15,40.22,40.22,0,0,1,37,22.47V57.29h20.25V232.61Zm-9.51-28.27q9.51-11.24,9.51-29.51,0-18.53-9.51-30t-27-11.48q-17,0-27,11.48t-10,29.26q0,17.78,9.88,29.63t27.16,11.85Q428.66,215.57,438.16,204.34Z"/><path class="cls-2" d="M584.22,232.61V212.86a40.25,40.25,0,0,1-37,22.47,51.69,51.69,0,0,1-29-8.52,60,60,0,0,1-20.37-22.6,63.21,63.21,0,0,1-7.41-29.88,64,64,0,0,1,7.41-30.49,57,57,0,0,1,20.5-22.1,53.58,53.58,0,0,1,28.89-8.15,40.25,40.25,0,0,1,37,22.47V116.55h20.24V232.61Zm-9.51-28.27q9.49-11.24,9.51-29.51,0-18.53-9.51-30t-27-11.48q-17,0-27,11.48t-10,29.26q0,17.78,9.88,29.63t27.16,11.85Q565.21,215.57,574.71,204.34Z"/><path class="cls-2" d="M620.51,116.55h5.19q9.63,0,13.08-4.19t3.46-12.1V78.78H661v37.77h28.64v18.52H661v55.07q0,13.83,4.2,19.26T680,214.83a102.45,102.45,0,0,0,13.58-1.23v19a107.87,107.87,0,0,1-17.28,1.48q-18.29,0-27-9.26t-8.77-30V135.07h-20Z"/><path class="cls-2" d="M702.49,116.31h21l35.06,90.87,35.07-90.87h21.23L746.2,291.87H725.45l22.72-59.26Z"/><path class="cls-2" d="M831.38,57.29h20.5V190.14q0,13.58,4.07,19.13t14.2,5.56A84.69,84.69,0,0,0,882,213.6v18.76a82.06,82.06,0,0,1-16.54,1.73q-16.31,0-25.07-8.77t-9-28.51Z"/><path class="cls-2" d="M925.46,226.93A58.76,58.76,0,0,1,905,204.58a62.46,62.46,0,0,1-7.4-29.75,65.36,65.36,0,0,1,7.28-30.74,56.76,56.76,0,0,1,20.49-22.23,55,55,0,0,1,29.76-8.27,53.86,53.86,0,0,1,29.26,8.15,56.46,56.46,0,0,1,20.25,22.1,65,65,0,0,1,7.28,30.49,64.16,64.16,0,0,1-7.28,29.88,59,59,0,0,1-20.25,22.6,52.1,52.1,0,0,1-29.26,8.52A53.65,53.65,0,0,1,925.46,226.93Zm56.3-23.21q9.63-11.85,9.63-29.63,0-18-9.63-29.39t-26.67-11.35q-17.54,0-27.29,11.6t-9.75,29.88q0,17.53,9.88,29.14t27.16,11.6Q972.13,215.57,981.76,203.72Z"/><path class="cls-2" d="M1034.35,116.55h20.49v19.76q3.21-7.91,12.22-15.31t25.56-7.41q19.76,0,30.5,14t10.74,36.18v68.89h-20.5v-64q0-15.32-6.79-25.31t-20.37-10q-15.06,0-23.21,10.74t-8.15,28.76v59.76h-20.49Z"/></g></svg>