<svg viewBox="0 0 750 174.13" xmlns="http://www.w3.org/2000/svg"><g fill="#fc4e8b"><path d="M309.91 57c-8.08-8.31-17.55-12.36-28.94-12.36h-35.38v84.66H281c11.39 0 20.86-4.06 28.94-12.42a41.32 41.32 0 0 0 12-30A40.93 40.93 0 0 0 309.91 57zm-6.66 53a29.85 29.85 0 0 1-22.25 9.52h-26.1V54.38H281A29.88 29.88 0 0 1 303.25 64a32 32 0 0 1 9.15 22.84 32.32 32.32 0 0 1-9.15 23.09zm114.52-53.95c-8.67-8.71-18.47-12.94-30-12.94-12.21 0-22.18 4.11-30.49 12.58S345 74.34 345 86.81a42.69 42.69 0 0 0 12.7 31.08c8.53 8.78 18.39 13 30.14 13s21.62-4.27 30.15-13a43.05 43.05 0 0 0 12.7-31.35c-.05-11.81-4.26-21.79-12.92-30.49zm-6.25 54.73a32.87 32.87 0 0 1-47.45 0 33.63 33.63 0 0 1-9.84-24.24 32.12 32.12 0 0 1 9.9-23.76 33.68 33.68 0 0 1 47.34.16 32.25 32.25 0 0 1 9.88 23.6 33.68 33.68 0 0 1-9.83 24.24zm112.1-1.37c-7.3 7.59-15.62 11.49-24.75 11.49a31.36 31.36 0 0 1-23.33-9.9A33.58 33.58 0 0 1 466 86.81 33 33 0 0 1 475.55 63a31.47 31.47 0 0 1 23.32-9.84c9.56 0 17.88 3.78 24.76 11.24l7.83-5.61c-8.12-10.21-18.61-15.34-32-15.66-12.1 0-22 4.17-30.37 12.71s-12.43 18.79-12.43 31.27a42.77 42.77 0 0 0 12.38 31c8.3 8.63 18.05 12.83 29.8 12.83 13.23 0 24-5.29 32.75-16.15zm98.79 19.87h10.49l-32.72-57.16 24.28-27.5h-12.58l-42.83 46.84V44.62h-9.28v84.66h9.28v-23.6l24.56-26.24zm101.05-36.05A25 25 0 0 0 740 69.57a24.25 24.25 0 0 0-7.11-17.63 22.85 22.85 0 0 0-17.2-7.32H665v84.66h9.28v-74.9h41.43a14.34 14.34 0 0 1 10.66 4.54 14.88 14.88 0 0 1 4.37 10.65 15 15 0 0 1-4.37 10.79 14.34 14.34 0 0 1-10.66 4.54H693l5.48 9.76h9.47l19.73 34.62h10.94L719.18 94.8z"/><circle cx="161.72" cy="8.1" r="4.61"/><path d="M161.72 18.88a10.83 10.83 0 0 1-4.62-1v63.87c0 21.85-7 40-21.56 55.52s-31.62 23.12-52.14 23.12c-20.69 0-37.86-7.57-52.5-23.13S9.23 103.6 9.23 81.75V13.68h124v68.08c0 14.93-4.45 26.35-14.42 37-10.14 10.83-21 15.66-35.34 15.66-14.5 0-25.52-4.85-35.74-15.71-10-10.66-14.49-22.06-14.49-37V63.9h48.29a10.78 10.78 0 0 1 0-9.26H23.94v27.11c0 17.69 5.51 31.78 17.34 44.36s25.29 18.56 42.12 18.56c16.65 0 29.91-5.89 41.74-18.53s17.25-26.68 17.25-44.39V4.47H0v77.28a93.59 93.59 0 0 0 6.13 34.19 89.15 89.15 0 0 0 18.39 28.71 83.35 83.35 0 0 0 27 19.52 78.61 78.61 0 0 0 31.93 6.46 77.57 77.57 0 0 0 31.73-6.47 82.81 82.81 0 0 0 26.81-19.52 89.38 89.38 0 0 0 18.3-28.71 94.15 94.15 0 0 0 6.09-34.18V17.84a10.78 10.78 0 0 1-4.66 1.04z"/><path d="M91.24 63.85a4.61 4.61 0 0 0 0-9.21h-.07a4.61 4.61 0 0 0 0 9.21zm-67.3-29.57v.59A4.6 4.6 0 1 0 29.06 30H28a4.61 4.61 0 0 0-4.06 4.28z"/><path d="M38.28 30a10.69 10.69 0 0 1 0 9.22h71.62v1l.18 41.42c0 8.23-1.88 13-7.44 19-5.77 6.16-10.72 8.35-18.9 8.35-8.41 0-13.47-2.21-19.33-8.45-5.59-5.94-7.48-10.7-7.48-18.85v-2.37h-9.71v2.35c0 11 3 18.67 10.45 26.56 7.64 8.13 15.2 11.45 26.07 11.45 10.67 0 18.1-3.3 25.66-11.37 7.38-7.9 10.4-15.62 10.4-26.64V30z"/></g></svg>