<svg xmlns="http://www.w3.org/2000/svg" xmlns:xlink="http://www.w3.org/1999/xlink" id="Layer_2" viewBox="0 0 216.24 62.46"><defs><style>      .cls-1 {        fill: #c9ee10;      }      .cls-2 {        clip-path: url(#clippath-1);      }      .cls-3 {        clip-path: url(#clippath);      }    </style><clipPath id="clippath"><path class="cls-1" d="M209.7,13.11c-3.59,0-6.49-2.87-6.57-6.42-.07-3.66,2.83-6.63,6.42-6.7,3.68-.07,6.63,2.86,6.69,6.44.06,3.69-2.91,6.67-6.55,6.68ZM214.91,6.55c0-2.88-2.33-5.22-5.22-5.22-2.88,0-5.22,2.33-5.23,5.19,0,2.91,2.32,5.25,5.21,5.25,2.9,0,5.23-2.33,5.23-5.23Z"></path></clipPath><clipPath id="clippath-1"><path class="cls-1" d="M210.83,6.63c.55.17.85.57,1.09,1.02.36.7.7,1.4,1.05,2.11,0,.02.02.04.03.07-.03,0-.05,0-.08,0-.57,0-1.15,0-1.72,0-.07,0-.09-.03-.11-.08-.28-.57-.56-1.13-.84-1.7-.07-.14-.15-.27-.24-.39-.17-.24-.41-.39-.71-.41-.23-.02-.47,0-.71,0,0,.03,0,.07,0,.11,0,.79,0,1.57,0,2.36,0,.09-.02.12-.12.12-.52,0-1.03,0-1.55,0h-.1V2.98s.06,0,.09,0c.93,0,1.85,0,2.78,0,.46,0,.92.06,1.36.22.62.23.98.66,1.06,1.32.06.47.03.93-.22,1.35-.22.37-.56.58-.95.73-.03,0-.05.02-.11.04ZM208.59,6.04c.38-.01.75,0,1.11-.05.31-.03.55-.2.62-.53.03-.14.04-.29.03-.44-.02-.44-.24-.69-.68-.73-.35-.03-.71-.02-1.06-.03,0,0-.02,0-.03.01v1.76Z"></path></clipPath></defs><g id="Layer_1-2" data-name="Layer_1"><g><g><path class="cls-1" d="M29.12,25.45c-.54,1-.43,1.23.66,1.36,1.94.22,3.88.41,5.81.66.93.12.66.98.47,1.2-4.91,5.71-9.84,11.42-14.76,17.13l8.55-2.31c4.71-1.34,8.04-3.25,10-5.73,1.96-2.48,2.71-5.56,2.26-9.23-.49-3.96-2.21-7.08-5.17-9.35-1.01-.77-2.16-1.37-3.46-1.8-1.45,2.69-2.9,5.39-4.36,8.08Z"></path><path class="cls-1" d="M31.94,52.48c-2.6,1.07-5.58,1.61-8.93,1.61-4.42,0-7.77-1.05-10.06-3.17-1.41-1.3-2.38-2.9-2.92-4.81l6.38-.84c2.23-3.55,4.45-7.11,6.68-10.66.07-.11.13-.21.2-.32.46-.8.36-1.06-.52-1.27-1.64-.38-3.28-.74-4.92-1.11-1.23-.28-1.35-.63-.61-1.68,3.05-4.28,6.11-8.56,9.14-12.85-.09,0-.18,0-.27,0-5.64,0-10.4,1.13-14.28,3.38-3.89,2.25-6.83,5.24-8.83,8.96-2,3.72-3,7.87-3,12.45,0,6.15,2.05,11.07,6.15,14.76,4.1,3.69,9.61,5.53,16.53,5.53,2.5,0,4.99-.29,7.49-.86,2.5-.57,4.8-1.34,6.9-2.31,2.1-.97,3.83-2.13,5.19-3.49l-4.07-7.08c-1.57,1.43-3.66,2.68-6.26,3.76Z"></path></g><path class="cls-1" d="M109.04,62.13c-7.07,0-12.7-1.84-16.9-5.52-4.19-3.68-6.29-8.6-6.29-14.75,0-4.58,1.02-8.72,3.06-12.44,2.04-3.72,5.05-6.7,9.02-8.96,3.97-2.25,8.84-3.38,14.6-3.38s10.26,1.27,13.07,3.81c2.81,2.54,4.21,5.74,4.21,9.6,0,3.58-1.19,6.44-3.55,8.58-2.37,2.15-6.11,3.58-11.21,4.29l-23.4,3v-7.83l19.47-2.36c3.35-.36,5.76-1.04,7.22-2.04,1.46-1,2.19-2.43,2.19-4.29,0-1.72-.71-3.02-2.13-3.92-1.42-.89-3.52-1.34-6.29-1.34-3.65,0-6.69.73-9.13,2.2-2.44,1.47-4.28,3.38-5.52,5.74-1.24,2.36-1.86,4.93-1.86,7.72v1.61c0,3.72,1.17,6.63,3.5,8.74,2.33,2.11,5.76,3.16,10.28,3.16,3.43,0,6.47-.54,9.13-1.61,2.66-1.07,4.79-2.32,6.4-3.75l4.16,7.08c-1.39,1.36-3.15,2.52-5.3,3.49-2.15.97-4.5,1.73-7.05,2.31-2.55.57-5.1.86-7.65.86Z"></path><path class="cls-1" d="M133.15,62.32l5.69-37.27h-7.55l1.2-7.66h17.06l-2.41,15.42-.77-.98c1.53-4.3,3.19-7.56,4.98-9.79,1.79-2.22,3.63-3.74,5.52-4.54,1.9-.8,3.64-1.2,5.25-1.2,2.62,0,4.74.66,6.34,1.97l-3.72,10.17c-.8-.87-1.68-1.51-2.62-1.91-.95-.4-2.01-.6-3.17-.6-1.6,0-3.24.53-4.92,1.59-1.68,1.06-3.19,2.7-4.54,4.92-1.35,2.22-2.35,5.12-3.01,8.69l-3.06,21.19h-10.28Z"></path><path class="cls-1" d="M187.8,62.46c-5.25,0-8.9-1.52-10.94-4.57-2.04-3.05-2.73-6.7-2.08-10.96l3.39-21.7h-7.55l1.2-7.71h7.55l2.3-14.54,10.61-1.87-2.62,16.41h11.7l-1.2,7.71h-11.7l-3.17,19.94c-.44,2.86-.16,5.01.82,6.44s2.75,2.15,5.3,2.15c1.02,0,2.02-.18,3.01-.55.98-.37,1.84-.77,2.57-1.21l1.31,7.71c-1.53.96-3.19,1.65-4.98,2.09-1.79.44-3.63.66-5.52.66Z"></path><g><g><path class="cls-1" d="M209.7,13.11c-3.59,0-6.49-2.87-6.57-6.42-.07-3.66,2.83-6.63,6.42-6.7,3.68-.07,6.63,2.86,6.69,6.44.06,3.69-2.91,6.67-6.55,6.68ZM214.91,6.55c0-2.88-2.33-5.22-5.22-5.22-2.88,0-5.22,2.33-5.23,5.19,0,2.91,2.32,5.25,5.21,5.25,2.9,0,5.23-2.33,5.23-5.23Z"></path><g class="cls-3"><rect class="cls-1" x="204.46" y="1.33" width=".07" height="10.46"></rect><rect class="cls-1" x="204.53" y="1.33" width=".43" height="10.46"></rect><rect class="cls-1" x="204.96" y="1.33" width=".43" height="10.46"></rect><rect class="cls-1" x="205.39" y="1.33" width=".43" height="10.46"></rect><rect class="cls-1" x="205.82" y="1.33" width=".43" height="10.46"></rect><rect class="cls-1" x="206.26" y="1.33" width=".43" height="10.46"></rect><rect class="cls-1" x="206.69" y="1.33" width=".43" height="10.46"></rect><rect class="cls-1" x="207.12" y="1.33" width=".43" height="10.46"></rect><rect class="cls-1" x="207.55" y="1.33" width=".43" height="10.46"></rect><rect class="cls-1" x="207.98" y="1.33" width=".43" height="10.46"></rect><rect class="cls-1" x="208.42" y="1.33" width=".43" height="10.46"></rect><rect class="cls-1" x="208.85" y="1.33" width=".43" height="10.46"></rect><rect class="cls-1" x="209.28" y="1.33" width=".43" height="10.46"></rect><rect class="cls-1" x="209.71" y="1.33" width=".43" height="10.46"></rect><rect class="cls-1" x="210.15" y="1.33" width=".43" height="10.46"></rect><rect class="cls-1" x="210.58" y="1.33" width=".43" height="10.46"></rect><rect class="cls-1" x="211.01" y="1.33" width=".43" height="10.46"></rect><rect class="cls-1" x="211.44" y="1.33" width=".43" height="10.46"></rect><rect class="cls-1" x="211.87" y="1.33" width=".43" height="10.46"></rect><rect class="cls-1" x="212.31" y="1.33" width=".43" height="10.46"></rect><rect class="cls-1" x="212.74" y="1.33" width=".43" height="10.46"></rect><rect class="cls-1" x="213.17" y="1.33" width=".43" height="10.46"></rect><rect class="cls-1" x="213.6" y="1.33" width=".43" height="10.46"></rect><rect class="cls-1" x="214.04" y="1.33" width=".43" height="10.46"></rect><rect class="cls-1" x="214.47" y="1.33" width=".43" height="10.46"></rect><rect class="cls-1" x="214.9" y="1.33" width=".01" height="10.46"></rect><rect class="cls-1" x="203.06" y="-.07" width=".18" height="13.19"></rect><rect class="cls-1" x="203.23" y="-.07" width=".43" height="13.19"></rect><rect class="cls-1" x="203.66" y="-.07" width=".43" height="13.19"></rect><rect class="cls-1" x="204.1" y="-.07" width=".43" height="13.19"></rect><rect class="cls-1" x="204.53" y="-.07" width=".43" height="13.19"></rect><rect class="cls-1" x="204.96" y="-.07" width=".43" height="13.19"></rect><rect class="cls-1" x="205.39" y="-.07" width=".43" height="13.19"></rect><rect class="cls-1" x="205.82" y="-.07" width=".43" height="13.19"></rect><rect class="cls-1" x="206.26" y="-.07" width=".43" height="13.19"></rect><rect class="cls-1" x="206.69" y="-.07" width=".43" height="13.19"></rect><rect class="cls-1" x="207.12" y="-.07" width=".43" height="13.19"></rect><rect class="cls-1" x="207.55" y="-.07" width=".43" height="13.19"></rect><rect class="cls-1" x="207.98" y="-.07" width=".43" height="13.19"></rect><rect class="cls-1" x="208.42" y="-.07" width=".43" height="13.19"></rect><rect class="cls-1" x="208.85" y="-.07" width=".43" height="13.19"></rect><rect class="cls-1" x="209.28" y="-.07" width=".43" height="13.19"></rect><rect class="cls-1" x="209.71" y="-.07" width=".43" height="13.19"></rect><rect class="cls-1" x="210.15" y="-.07" width=".43" height="13.19"></rect><rect class="cls-1" x="210.58" y="-.07" width=".43" height="13.19"></rect><rect class="cls-1" x="211.01" y="-.07" width=".43" height="13.19"></rect><rect class="cls-1" x="211.44" y="-.07" width=".43" height="13.19"></rect><rect class="cls-1" x="211.87" y="-.07" width=".43" height="13.19"></rect><rect class="cls-1" x="212.31" y="-.07" width=".43" height="13.19"></rect><rect class="cls-1" x="212.74" y="-.07" width=".43" height="13.19"></rect><rect class="cls-1" x="213.17" y="-.07" width=".43" height="13.19"></rect><rect class="cls-1" x="213.6" y="-.07" width=".43" height="13.19"></rect><rect class="cls-1" x="214.04" y="-.07" width=".43" height="13.19"></rect><rect class="cls-1" x="214.47" y="-.07" width=".43" height="13.19"></rect><rect class="cls-1" x="214.9" y="-.07" width=".43" height="13.19"></rect><rect class="cls-1" x="215.33" y="-.07" width=".43" height="13.19"></rect><rect class="cls-1" x="215.76" y="-.07" width=".43" height="13.19"></rect><rect class="cls-1" x="216.2" y="-.07" width=".11" height="13.19"></rect></g></g><g><path class="cls-1" d="M210.83,6.63c.55.17.85.57,1.09,1.02.36.7.7,1.4,1.05,2.11,0,.02.02.04.03.07-.03,0-.05,0-.08,0-.57,0-1.15,0-1.72,0-.07,0-.09-.03-.11-.08-.28-.57-.56-1.13-.84-1.7-.07-.14-.15-.27-.24-.39-.17-.24-.41-.39-.71-.41-.23-.02-.47,0-.71,0,0,.03,0,.07,0,.11,0,.79,0,1.57,0,2.36,0,.09-.02.12-.12.12-.52,0-1.03,0-1.55,0h-.1V2.98s.06,0,.09,0c.93,0,1.85,0,2.78,0,.46,0,.92.06,1.36.22.62.23.98.66,1.06,1.32.06.47.03.93-.22,1.35-.22.37-.56.58-.95.73-.03,0-.05.02-.11.04ZM208.59,6.04c.38-.01.75,0,1.11-.05.31-.03.55-.2.62-.53.03-.14.04-.29.03-.44-.02-.44-.24-.69-.68-.73-.35-.03-.71-.02-1.06-.03,0,0-.02,0-.03.01v1.76Z"></path><g class="cls-2"><rect class="cls-1" x="208.59" y="4.26" width=".11" height="1.78"></rect><rect class="cls-1" x="208.7" y="4.26" width=".2" height="1.78"></rect><rect class="cls-1" x="208.9" y="4.26" width=".2" height="1.78"></rect><rect class="cls-1" x="209.11" y="4.26" width=".2" height="1.78"></rect><rect class="cls-1" x="209.31" y="4.26" width=".2" height="1.78"></rect><rect class="cls-1" x="209.51" y="4.26" width=".2" height="1.78"></rect><rect class="cls-1" x="209.72" y="4.26" width=".2" height="1.78"></rect><rect class="cls-1" x="209.92" y="4.26" width=".2" height="1.78"></rect><rect class="cls-1" x="210.12" y="4.26" width=".2" height="1.78"></rect><rect class="cls-1" x="210.33" y="4.26" width=".03" height="1.78"></rect><rect class="cls-1" x="206.82" y="2.98" width=".05" height="6.87"></rect><rect class="cls-1" x="206.87" y="2.98" width=".2" height="6.87"></rect><rect class="cls-1" x="207.07" y="2.98" width=".2" height="6.87"></rect><rect class="cls-1" x="207.27" y="2.98" width=".2" height="6.87"></rect><rect class="cls-1" x="207.48" y="2.98" width=".2" height="6.87"></rect><rect class="cls-1" x="207.68" y="2.98" width=".2" height="6.87"></rect><rect class="cls-1" x="207.89" y="2.98" width=".2" height="6.87"></rect><rect class="cls-1" x="208.09" y="2.98" width=".2" height="6.87"></rect><rect class="cls-1" x="208.29" y="2.98" width=".2" height="6.87"></rect><rect class="cls-1" x="208.5" y="2.98" width=".2" height="6.87"></rect><rect class="cls-1" x="208.7" y="2.98" width=".2" height="6.87"></rect><rect class="cls-1" x="208.9" y="2.98" width=".2" height="6.87"></rect><rect class="cls-1" x="209.11" y="2.98" width=".2" height="6.87"></rect><rect class="cls-1" x="209.31" y="2.98" width=".2" height="6.87"></rect><rect class="cls-1" x="209.51" y="2.98" width=".2" height="6.87"></rect><rect class="cls-1" x="209.72" y="2.98" width=".2" height="6.87"></rect><rect class="cls-1" x="209.92" y="2.98" width=".2" height="6.87"></rect><rect class="cls-1" x="210.12" y="2.98" width=".2" height="6.87"></rect><rect class="cls-1" x="210.33" y="2.98" width=".2" height="6.87"></rect><rect class="cls-1" x="210.53" y="2.98" width=".2" height="6.87"></rect><rect class="cls-1" x="210.74" y="2.98" width=".2" height="6.87"></rect><rect class="cls-1" x="210.94" y="2.98" width=".2" height="6.87"></rect><rect class="cls-1" x="211.14" y="2.98" width=".2" height="6.87"></rect><rect class="cls-1" x="211.35" y="2.98" width=".2" height="6.87"></rect><rect class="cls-1" x="211.55" y="2.98" width=".2" height="6.87"></rect><rect class="cls-1" x="211.75" y="2.98" width=".2" height="6.87"></rect><rect class="cls-1" x="211.96" y="2.98" width=".2" height="6.87"></rect><rect class="cls-1" x="212.16" y="2.98" width=".2" height="6.87"></rect><rect class="cls-1" x="212.36" y="2.98" width=".2" height="6.87"></rect><rect class="cls-1" x="212.57" y="2.98" width=".2" height="6.87"></rect><rect class="cls-1" x="212.77" y="2.98" width=".2" height="6.87"></rect><rect class="cls-1" x="212.97" y="2.98" width=".02" height="6.87"></rect></g></g></g><path class="cls-1" d="M79.19,17.38l-.02.04h-7.65l-1.12,7.61h5.22l-6.93,14.84c-2.14,4.83-3.34,7.89-4.26,10.37-.12-1.35-.29-2.81-.49-4.56-.2-1.72-.42-3.67-.65-6l-2.71-22.31h-11.03v.04s-5.09,0-5.09,0l-1.12,7.61h7.44l5.98,37.05.05.29h10.61l23.71-44.99h-11.95Z"></path></g></g></svg>