<svg width="208" height="206" viewBox="0 0 208 206" fill="none" xmlns="http://www.w3.org/2000/svg">
<g clip-path="url(#clip0_11145_5885)">
<path d="M208 206H0V0H208V206ZM2.07547 203.944H205.925V2.05552H2.07547V203.944Z" fill="#F4F3EF"/>
<path d="M83.1355 189.446L59.6738 121.865H63.4151L86.8745 189.446H83.1355Z" fill="#F4F3EF"/>
<path d="M23.4958 140.755H38.6081V135.256H23.4958V127.816H40.6994V121.865H16.8145V154.059H23.4958V140.755Z" fill="#F4F3EF"/>
<path d="M88.0312 141.477H95.1788C96.9691 141.477 98.2569 141.872 99.0491 142.652C99.8413 143.432 100.355 144.669 100.595 146.348C100.779 147.641 100.916 148.993 101.005 150.405C101.062 151.652 101.307 152.884 101.733 154.059H108.881C108.527 153.562 108.272 153.003 108.13 152.411C107.958 151.738 107.836 151.053 107.765 150.363C107.688 149.641 107.636 148.932 107.607 148.242C107.577 147.552 107.546 146.949 107.516 146.438C107.454 145.62 107.34 144.807 107.174 144.003C107.018 143.222 106.75 142.467 106.378 141.762C106.02 141.095 105.541 140.499 104.965 140.004C104.331 139.478 103.584 139.1 102.781 138.899V138.81C104.601 138.088 105.913 137.035 106.717 135.651C107.522 134.267 107.924 132.63 107.926 130.738C107.936 129.56 107.713 128.392 107.27 127.299C106.835 126.239 106.184 125.28 105.357 124.481C104.494 123.65 103.472 122.998 102.351 122.563C101.097 122.082 99.7604 121.845 98.4154 121.866H81.3408V154.059H88.0312V141.477ZM88.0312 127.355H95.8601C97.4987 127.355 98.7285 127.709 99.5493 128.418C100.37 129.126 100.78 130.26 100.778 131.82C100.778 133.443 100.369 134.616 99.5493 135.337C98.73 136.059 97.5002 136.42 95.8601 136.42H88.0312V127.355Z" fill="#F4F3EF"/>
<path d="M135.72 148.107H119.877V121.865H113.187V154.059H135.72V148.107Z" fill="#F4F3EF"/>
<path d="M151.278 121.865L143.72 134.579L136.118 121.865H128.104L140.034 141.524V154.059H147.179V141.705L159.245 121.865H151.278Z" fill="#F4F3EF"/>
<path d="M119.877 175.602H135.63V170.101H119.877V163.204H137.042V157.25H113.187V189.444H137.406V183.492H119.877V175.602Z" fill="#F4F3EF"/>
<path d="M77.04 121.865H70.3496V131.078L77.0128 150.268L77.04 121.865Z" fill="#F4F3EF"/>
<path d="M105.479 161.222C104.156 159.902 102.553 158.888 100.787 158.254C98.9132 157.581 96.9325 157.245 94.9389 157.261H81.3408V162.738L88.0652 182.107V163.206H93.1622C94.9231 163.206 96.4033 163.454 97.6028 163.95C98.7393 164.403 99.7353 165.145 100.491 166.1C101.25 167.097 101.787 168.244 102.064 169.462C102.396 170.905 102.557 172.381 102.541 173.86C102.541 175.634 102.315 177.137 101.862 178.368C101.471 179.481 100.846 180.499 100.027 181.354C99.3059 182.098 98.417 182.663 97.4331 183.001C96.4666 183.33 95.4516 183.498 94.4297 183.497H88.545L90.6114 189.448H94.9344C97.4225 189.448 99.5848 189.035 101.421 188.209C103.193 187.43 104.764 186.265 106.018 184.801C107.283 183.294 108.22 181.546 108.772 179.664C109.397 177.553 109.702 175.362 109.678 173.163C109.678 170.49 109.306 168.161 108.562 166.176C107.903 164.326 106.852 162.637 105.479 161.222Z" fill="#F4F3EF"/>
<path d="M51.9464 121.865L39.6543 154.059H46.8517L49.3979 146.886H60.8843L64.2793 156.681L51.7812 189.446H58.9582L61.5973 182.087H73.1063L75.6639 189.448H79.4029L55.9457 121.865H51.9464ZM71.2775 176.808H63.4645L67.4344 165.739L71.2775 176.808ZM51.2629 141.616L55.226 130.569L59.0601 141.613L51.2629 141.616Z" fill="#F4F3EF"/>
<path d="M38.7642 157.256L32.9837 175.04L26.8772 157.256H16.8145V189.449H23.5049V166.859H23.5977L31.5646 189.449H31.5668H33.6853H34.0723L42.0393 166.634H42.1321V189.449H48.8247V157.256H38.7642Z" fill="#F4F3EF"/>
</g>
<defs>
<clipPath id="clip0_11145_5885">
<rect width="208" height="206" fill="white"/>
</clipPath>
</defs>
</svg>
