<svg width="117" height="38" viewBox="0 0 117 38" fill="none" xmlns="http://www.w3.org/2000/svg">
<path d="M116.058 19.2929L109.886 19.3351C109.195 17.2432 107.48 16.398 105.073 16.9051C104.679 16.9896 104.265 17.1376 103.89 17.3277C102.983 17.7715 102.49 18.5322 102.608 19.6309C102.727 20.7086 103.476 21.1101 104.344 21.258C106.474 21.5961 108.623 21.7651 110.714 22.2511C112.055 22.5681 113.475 23.0752 114.599 23.8993C117.912 26.3504 117.676 32.1613 114.264 34.9505C112.528 36.3874 110.497 36.979 108.367 37.1903C105.251 37.4862 102.174 37.3594 99.3542 35.7535C96.9087 34.38 95.6662 32.1402 95.6465 29.0974H102.234C102.746 31.5908 104.758 32.3726 107.716 31.8232C108.919 31.5908 109.964 31.147 110.142 29.6045C110.3 28.1465 109.491 27.2379 107.795 26.9632C105.823 26.6462 103.87 26.3082 101.898 25.9489C101.484 25.8856 101.09 25.7165 100.695 25.5897C98.2103 24.7234 96.3367 23.2865 96.0804 20.2015C95.824 17.0742 97.1651 14.2427 99.7486 12.8269C102.983 11.052 106.415 11.0309 109.886 11.8338C111.956 12.2987 113.751 13.3129 115.033 15.1724C115.842 16.3557 116.216 17.6869 116.058 19.2929Z" fill="#BF3922"/>
<path d="M64.8204 27.1961C64.5443 31.9927 60.5802 36.7048 54.427 37.2542C47.9386 37.8247 41.6079 33.662 41.0162 25.4211C40.5035 18.3213 44.152 12.6161 51.5674 11.4962C58.2925 10.4819 63.9526 14.6446 64.8204 21.1528C62.8285 21.1528 60.8366 21.1739 58.8447 21.1316C58.6672 21.1316 58.3714 20.8781 58.3122 20.6879C57.4642 18.1523 54.6045 17.2225 51.9421 17.9409C49.5557 18.596 47.8794 20.7936 47.7216 23.5616C47.5047 27.0482 49.1613 29.9008 51.9618 30.8305C54.4665 31.6546 57.1683 30.429 58.2727 27.8934C58.5094 27.3229 58.7855 27.1538 59.3377 27.1538C61.1521 27.2172 62.9862 27.1961 64.8204 27.1961Z" fill="#BF3922"/>
<path d="M36.9739 25.3787C36.9739 25.3787 36.9542 21.5752 36.757 19.6946C36.4217 16.2081 34.7651 13.5668 31.6096 12.2355C29.9924 11.5594 28.2964 11.4537 26.5806 11.665C24.5098 11.9186 22.7151 12.7215 21.374 14.412L14.1953 11.9608V36.9159H20.9599V22.4204C21.019 19.3776 22.8532 17.2857 25.7917 17.2857C28.4344 17.2857 30.2094 19.1452 30.2094 22.4204V36.9159H36.9739V25.3787Z" fill="#BF3922"/>
<path d="M68.8828 23.4768C68.8828 23.4768 68.9025 27.2803 69.0998 29.1609C69.435 32.6474 71.0916 35.2887 74.2471 36.6199C75.8643 37.2961 77.5604 37.4017 79.2762 37.1904C81.347 36.9369 83.1416 36.1339 84.4827 34.4435L91.6614 36.8946V11.9396H84.8969V26.435C84.8377 29.4778 83.0036 31.5697 80.065 31.5697C77.4223 31.5697 75.6474 29.7103 75.6474 26.435V11.9396H68.8828V23.4768Z" fill="#BF3922"/>
<path d="M7.19405 11.9607L0.449219 14.3062V36.9157H7.19405V11.9607Z" fill="#BF3922"/>
<path d="M0.449219 0.888184V9.00227L7.19405 6.65679V0.888184H0.449219Z" fill="#BF3922"/>
</svg>
