<svg width="256" height="48" viewBox="0 0 256 48" fill="none" xmlns="http://www.w3.org/2000/svg">
<path d="M23.9066 3.08201e-05C5.80856 0.0560619 0 5.82727 0 23.9066C0 41.8926 6.07004 47.7759 23.9066 47.8133C41.8366 47.8506 47.8132 42.0047 47.8132 23.9066C47.8132 5.80859 41.9486 -0.0560003 23.9066 3.08201e-05Z" fill="#3C5FFF"/>
<path fill-rule="evenodd" clip-rule="evenodd" d="M38.8482 24V23.9066H31.3774C31.3774 28.0342 28.0342 31.3774 23.9066 31.3774C19.779 31.3774 16.4358 28.0342 16.4358 23.9066C16.4358 19.779 19.779 16.4358 23.9066 16.4358V8.96497C22.9728 8.96497 22.0202 9.05835 21.1051 9.22644V14.0264C20.3393 14.2506 19.5922 14.5494 18.9012 14.9416L15.5019 11.5424C13.9518 12.607 12.607 13.9517 11.5424 15.5019L14.9416 18.9012C14.5494 19.5922 14.2506 20.3393 14.0265 21.105H9.22646C9.05837 22.0202 8.96498 22.9541 8.96498 23.9066C8.96498 24.8405 9.05837 25.793 9.22646 26.7082H14.0265C14.2506 27.4739 14.5494 28.221 14.9416 28.912L11.5424 32.3113C12.607 33.8615 13.9518 35.2062 15.5019 36.2708L18.9012 32.8716C19.5922 33.2638 20.3393 33.5626 21.1051 33.7868V38.5868C22.0202 38.7549 22.9541 38.8482 23.9066 38.8482C24.8405 38.8482 25.793 38.7549 26.7082 38.5868V33.7868C27.4739 33.5626 28.221 33.2638 28.9121 32.8716L32.2926 36.2521C33.8428 35.1875 35.1875 33.8428 36.2521 32.2926L32.8716 28.912C33.2638 28.221 33.5626 27.4739 33.7868 26.7082H38.5868C38.7549 25.8117 38.8482 24.9152 38.8482 24ZM35.7292 21.105C34.6833 16.6599 31.172 13.1486 26.7082 12.084V9.22644C32.7035 10.3657 37.4475 15.1097 38.5868 21.105H35.7292ZM30.8358 21.105C30.07 19.2373 28.5759 17.7432 26.7082 16.9774V14.0264C30.1261 14.9976 32.8156 17.6871 33.7868 21.105H30.8358Z" fill="white"/>
<path fill-rule="evenodd" clip-rule="evenodd" d="M151.527 28.2397C153.451 29.8646 155.598 30.8732 158.139 30.8732C160.342 30.8732 161.444 29.8646 161.444 28.6133C161.444 27.1751 160.249 26.6895 157.186 26.0358C152.928 25.0833 149.902 23.8319 149.902 19.9471C149.902 16.2117 152.909 13.6716 157.373 13.6716C160.679 13.6716 163.219 14.7175 165.273 16.4545L163.013 19.6109C161.239 18.1728 159.184 17.351 157.223 17.351C155.356 17.351 154.254 18.3035 154.254 19.5549C154.254 21.0304 155.449 21.516 158.605 22.1884C162.976 23.1782 165.852 24.467 165.852 28.2024C165.852 32.0312 162.976 34.6273 157.989 34.6273C154.497 34.6273 151.377 33.4319 149.043 31.2841L151.527 28.2397ZM57.3759 14.0265H61.7276V34.1977H57.3759V14.0265ZM79.9751 27.1004V14.0265H84.3455V34.179H79.9751L70.263 21.1051V34.179H65.8926V14.0265H70.263L79.9751 27.1004ZM88.5105 14.0265V34.179H92.8623V26.1852H103.023V22.3191H92.8623V17.9113H104.068V14.0265H88.5105ZM140.265 27.3806L137.295 20.0031L134.325 27.3806H140.265ZM126.63 34.235L134.867 14.0825H139.704L147.941 34.235H143.047L141.759 31.0226H132.756L131.468 34.235H126.63ZM177.525 23.7012H173.267V18.0607H177.525C179.692 18.0607 181.167 19.1627 181.167 20.881C181.167 22.5993 179.673 23.7012 177.525 23.7012ZM178.011 14.0265H168.953H168.878V34.2911H173.23V27.7354H178.011C182.381 27.7354 185.631 24.8965 185.631 20.881C185.631 16.8467 182.419 14.0265 178.011 14.0265ZM189.497 14.0265V34.1417H205.055V30.2568H193.868V25.8117H204.009V21.9269H193.868V17.9113H205.055V14.0265H189.497ZM220.445 27.3806L217.475 20.0031L214.506 27.3806H220.445ZM206.792 34.235L214.973 14.0825H219.81L228.047 34.235H223.153L221.865 31.0226H212.862L211.574 34.235H206.792ZM243.082 14.0265L234.901 23.309V14.0265H230.587V34.179H234.939V28.5386L237.479 25.8491L243.661 34.2351H248.928L240.504 22.786L248.349 14.0265H243.082ZM112.641 23.7012V18.0607H116.9C119.104 18.0607 120.542 19.1627 120.542 20.881C120.542 22.5993 119.047 23.7012 116.9 23.7012H112.641ZM125.043 20.881C125.043 16.8467 121.83 14.0265 117.423 14.0265H108.289V34.2724H112.641V27.7168H115.854L120.504 34.2724H125.435L120.448 27.1938C123.175 26.2039 125.043 23.8506 125.043 20.881Z" fill="#15171E"/>
</svg>
