<svg width="225" height="60" viewBox="0 0 225 60" fill="none" xmlns="http://www.w3.org/2000/svg">
<path d="M129.551 20.6206C122.811 20.6206 117.252 25.6343 116.459 32.1052H19.4619V35.2526H116.449C117.224 41.7455 122.789 46.7813 129.548 46.7813C136.833 46.7813 142.741 40.9241 142.741 33.7009C142.741 26.4778 136.833 20.6206 129.548 20.6206H129.551Z" fill="#BE1A24"/>
<path d="M18.8999 16.7085C20.0816 16.7085 21.0396 15.7587 21.0396 14.5872C21.0396 13.4156 20.0816 12.4659 18.8999 12.4659C17.7182 12.4659 16.7603 13.4156 16.7603 14.5872C16.7603 15.7587 17.7182 16.7085 18.8999 16.7085Z" fill="black"/>
<path d="M20.5413 21.1903H17.2556V46.2116H20.5413V21.1903Z" fill="black"/>
<path d="M40.5064 20.5986C38.4778 20.5986 36.6492 21.0455 35.0651 21.9299C34.2016 22.4114 33.4302 22.9906 32.7571 23.6641V21.1934H29.4714V46.2148H32.7571V31.2681C32.7571 30.198 32.9571 29.2003 33.3571 28.3064C33.7571 27.4 34.3064 26.6006 34.9825 25.9302C35.6524 25.2661 36.4651 24.7436 37.4016 24.3754C38.3444 24.004 39.373 23.8152 40.4619 23.8152C42.8556 23.8152 44.6111 24.4478 45.827 25.7476C47.0429 27.0475 47.6587 28.9044 47.6587 31.2681V46.2148H50.9444V31.2681C50.9444 28.0106 50.0206 25.392 48.2016 23.4878C46.3698 21.5743 43.7794 20.6017 40.5064 20.6017V20.5986Z" fill="black"/>
<path d="M78.735 21.4421C77.208 20.0258 75.1191 19.3082 72.5254 19.3082H61.3762V46.5263H64.6461V35.2494H72.6365C73.8524 35.2494 74.9857 35.0574 76.008 34.6798C77.0461 34.2958 77.9477 33.7419 78.6937 33.0337C79.4365 32.3256 80.0207 31.4726 80.4365 30.4938C80.8524 29.5181 81.0651 28.4292 81.0651 27.2615C81.0651 24.8349 80.281 22.8772 78.7381 21.4452L78.735 21.4421ZM77.6397 29.5181C77.3254 30.1539 76.9159 30.6795 76.4238 31.0792C75.9254 31.4884 75.3413 31.7999 74.6873 32.0045C74.0175 32.2154 73.3286 32.3224 72.6334 32.3224H64.3254V22.2352H72.5254C74.3381 22.2352 75.7413 22.6758 76.6969 23.5476C77.6492 24.4163 78.1127 25.6312 78.1127 27.2615C78.1127 28.1333 77.954 28.8918 77.6429 29.5181H77.6397Z" fill="black"/>
<path d="M100.043 20.5986C98.0142 20.5986 96.1856 21.0455 94.6015 21.9299C93.738 22.4114 92.9665 22.9906 92.2935 23.6641V10.7663H89.0078V46.2148H92.2935V31.2681C92.2935 30.198 92.4935 29.2034 92.8935 28.3064C93.2935 27.4 93.8427 26.6006 94.5189 25.927C95.1951 25.2535 96.0015 24.7405 96.938 24.3722C97.8808 24.0009 98.9094 23.812 99.9983 23.812C102.392 23.812 104.148 24.4446 105.363 25.7445C106.579 27.0443 107.195 28.9013 107.195 31.2649V46.2116H110.481V31.2649C110.481 28.0074 109.557 25.3888 107.738 23.4847C105.906 21.5711 103.316 20.5986 100.043 20.5986Z" fill="black"/>
<path d="M167.725 37.8712C167.081 39.6179 166.021 41.0091 164.576 42.0005C163.125 42.995 161.363 43.4986 159.335 43.4986C158.075 43.4986 156.871 43.2468 155.757 42.7495C154.633 42.2491 153.633 41.5473 152.792 40.6692C151.944 39.7879 151.265 38.743 150.767 37.5627C150.275 36.3888 150.024 35.1141 150.024 33.767C150.024 32.42 150.275 31.1233 150.77 29.921C151.265 28.7124 151.944 27.6549 152.792 26.7737C153.636 25.8956 154.636 25.1874 155.767 24.6681C156.881 24.1582 158.081 23.897 159.338 23.897C161.275 23.897 162.992 24.4006 164.443 25.3951C165.897 26.3928 166.992 27.7777 167.694 29.5055L167.894 29.9965H171.367L171.017 28.9611C170.595 27.7053 170.002 26.5533 169.252 25.5368C168.503 24.5202 167.617 23.6358 166.624 22.9087C165.627 22.1817 164.503 21.6057 163.281 21.2029C162.055 20.7969 160.729 20.5923 159.335 20.5923C157.605 20.5923 155.948 20.9448 154.411 21.6435C152.884 22.3359 151.535 23.2896 150.398 24.4824C149.262 25.6721 148.36 27.0789 147.713 28.6684C147.065 30.2578 146.735 31.9731 146.735 33.767C146.735 35.561 147.065 37.2669 147.713 38.8248C148.36 40.3827 149.265 41.7676 150.398 42.9384C151.535 44.1155 152.887 45.0534 154.414 45.7301C155.948 46.4099 157.602 46.7561 159.332 46.7561C162.129 46.7561 164.589 45.985 166.649 44.4585C168.7 42.9415 170.17 40.8989 171.014 38.3842L171.363 37.3487H167.916L167.725 37.8649V37.8712Z" fill="black"/>
<path d="M198.081 25.0646C197.259 24.0764 196.291 23.2109 195.179 22.4807C193.278 21.2312 191.122 20.5954 188.77 20.5954C187.04 20.5954 185.383 20.9479 183.846 21.6466C182.319 22.3391 180.97 23.2927 179.833 24.4855C178.697 25.6752 177.795 27.0821 177.148 28.6684C176.5 30.2578 176.17 31.9731 176.17 33.767C176.17 35.561 176.5 37.2669 177.148 38.8248C177.795 40.3827 178.7 41.7676 179.833 42.9384C180.97 44.1155 182.322 45.0534 183.849 45.7301C185.383 46.4099 187.037 46.7561 188.767 46.7561C191.116 46.7561 193.272 46.1392 195.167 44.9212C196.278 44.2068 197.252 43.3538 198.075 42.3719V46.2085H201.36V21.1871H198.075V25.0615L198.081 25.0646ZM195.316 40.6692C194.472 41.5473 193.475 42.246 192.351 42.7495C191.233 43.2468 190.03 43.4986 188.773 43.4986C187.516 43.4986 186.31 43.2468 185.195 42.7495C184.072 42.2491 183.075 41.5504 182.23 40.6723C181.383 39.7879 180.7 38.743 180.208 37.5659C179.716 36.3951 179.465 35.1172 179.465 33.7702C179.465 32.4231 179.716 31.1264 180.211 29.9241C180.706 28.7187 181.386 27.6581 182.23 26.7768C183.075 25.8987 184.075 25.1905 185.205 24.6712C186.319 24.1614 187.519 23.9001 188.776 23.9001C190.033 23.9001 191.233 24.1582 192.348 24.6681C193.478 25.1874 194.478 25.8955 195.322 26.7737C196.167 27.6518 196.846 28.7124 197.345 29.921C197.84 31.1264 198.091 32.42 198.091 33.767C198.091 35.1141 197.84 36.3888 197.348 37.5627C196.852 38.743 196.17 39.7879 195.325 40.6692H195.316Z" fill="black"/>
<path d="M213.583 10.7631H210.297V46.2116H213.583V10.7631Z" fill="black"/>
</svg>
