<svg xmlns="http://www.w3.org/2000/svg" fill="none" viewBox="0 0 113 52">
  <path fill="#000"
    d="M29.319 27.343c-.883 0-4.173.387-6.053.938C27.262 21.321 33.43 11.156 33.43 5.08 33.433 1.436 31.258 0 28.086 0 19.508 0 2.702 10.441 2.702 18.562c0 1.878 1.645 4.695 2.937 4.695.647 0 1.174-.664 1.35-2.322.118-1.048.177-2.32.706-3.646C10.22 10.66 23.383 3.865 26.203 3.865c.765 0 1.233.387 1.233 1.325 0 4.862-8.578 21.047-10.518 23.918C13.631 30.162 0 35.242 0 38.944c0 3.038 2.469 5.743 6.345 5.743 5.817 0 12.927-9.113 14.101-11.49 1.469-2.376 8.225-3.701 10.459-4.033.176-.332.294-.609.294-.883 0-.772-.883-.938-1.88-.938Zm-15.63 7.57c-1.585 1.878-3.642 3.812-5.464 4.86-2.586 1.547-4.817 1.934-5.23 1.105-.529-1.104 3.526-3.536 5.407-4.53 1.35-.608 3.054-1.325 4.405-1.657.588-.166 1.177-.221.883.222Zm98.122-5.526-.353.332c-.939.994-3.408 3.038-4.758 3.038-.59 0-.881-.387-.881-1.048 0-1.492 1.469-4.308 2.469-5.8.53-.771-1.468-2.54-2.878-2.54-.412 0-.824.111-1.174.499-3.408 3.757-4.7 4.75-6.992 6.629-5.053 4.197-4.641.993-1.41-2.983 2.76-3.093 6.345-5.525 10.87-6.629.824-.277-.647-3.038-2.877-3.038-6.374 0-12.404 6.803-14.23 12.106-1.95 1.854-4.915 3.637-7.509 3.637-2.233 0-3.29-1.492-3.29-3.425 1.998-.222 3.878-1.16 5.7-2.432 2.701-1.879 3.879-3.813 3.879-5.36 0-1.822-1.645-3.092-4.055-3.092-4.502 0-9.873 5.69-9.927 10.972-1.474 1.234-4.191 2.894-5.058 2.894-1.762 0 2.351-6.186 2.351-7.511 0-1.215-1.468-2.762-2.642-2.762-2.528 0-7.64 3.647-10.047 5.633-.998.883-1.35.994-.883.332 1.292-2.044 3.29-5.248 3.29-7.511 0-2.927-3.466-2.595-3.643-2.54-.53.166-.235.498-.706 2.044a86.109 86.109 0 0 1-1.88 4.806 274.644 274.644 0 0 1-1.784 4.167c-.752.77-3.422 2.628-4.561 2.628-1.586 0-1.233-1.934-.176-4.197 1.35-2.983 2.819-4.861 2.819-5.91 0-.664-.821-1.491-1.94-2.21-.882-.554-1.233-.443-1.41-.111-2.465 3.48-7.753 10.715-10.517 10.715-1.291 0 .06-2.927 1.41-5.69 1.057-2.1 2.057-3.647 2.057-4.972 0-1.16-1.527-2.54-2.587-3.038-1.527-.775-1.586.387-2.527 2.432-.94 2.044-2.057 4.418-2.878 6.684-.706 1.823-.998 3.038-.998 4.197 0 2.595 1.527 3.868 3.584 3.868 2.996 0 5.995-2.872 7.698-4.253.06-.055.177-.055.118.056-.88 3.148.647 5.303 3.114 5.303 1.885 0 3.873-1.234 5.547-2.648-.27.629-.436 1.036-.436 1.1 0 .993 1.822 2.21 2.702 2.21 1.468 0 8.872-7.349 11.105-8.065.177-.055.236.055.118.276-.939 1.602-1.645 3.592-1.645 5.028 0 1.712 1.233 2.982 2.996 2.982 2.357 0 4.716-1.514 7.58-4.32.573 2.442 2.584 4.21 6.11 4.21 3.851 0 6.55-2.007 8.39-3.793-.018.199-.047.402-.047.589 0 2.431 1.35 3.37 2.82 3.37 3.407 0 7.812-4.198 10.516-6.519-1.115 3.536.354 5.636 2.643 5.636 2.704 0 5.582-2.706 7.345-4.806l.471-.553c.524-.617-.768-.838-1.003-.617Zm-27.439-7.071c.412 0 .648.166.648.553 0 1.16-2.352 3.813-5.877 5.138 1-3.038 3.82-5.691 5.229-5.691ZM43.904 48.75l-2.418-7.02h.746l2.14 6.206 2.155-6.206h.746l-2.418 7.02h-.95Zm5.747.147c-.513 0-.958-.114-1.335-.342a2.316 2.316 0 0 1-.873-.96c-.208-.413-.312-.897-.312-1.453 0-.575.102-1.072.307-1.492.205-.419.492-.742.863-.97.374-.227.814-.341 1.321-.341.52 0 .964.12 1.331.36.367.238.645.58.834 1.025.188.445.274.976.258 1.594h-.731v-.254c-.013-.682-.161-1.197-.444-1.545-.28-.348-.689-.522-1.228-.522-.566 0-1 .184-1.302.551-.299.367-.449.89-.449 1.57 0 .663.15 1.178.449 1.545.302.364.73.546 1.282.546.377 0 .705-.086.985-.258.283-.176.505-.428.668-.756l.668.258a2.389 2.389 0 0 1-.922 1.068c-.403.25-.86.376-1.37.376Zm-2.013-2.58v-.599h4.022v.6h-4.022Zm9.149 2.433v-2.686c0-.292-.028-.56-.083-.804a1.854 1.854 0 0 0-.268-.644 1.227 1.227 0 0 0-.473-.429 1.494 1.494 0 0 0-.702-.15c-.254 0-.478.043-.673.13a1.325 1.325 0 0 0-.488.381c-.13.163-.229.36-.297.595-.068.234-.102.5-.102.8l-.507-.113c0-.54.094-.993.282-1.36a1.97 1.97 0 0 1 .78-.834 2.267 2.267 0 0 1 1.141-.282c.316 0 .59.048.824.146.237.097.437.229.6.395.166.165.299.356.4.57.1.211.173.437.219.678.045.237.068.474.068.712v2.895h-.721Zm-3.808 0v-5.265h.649v1.297h.073v3.968h-.722Zm7.808.147c-.49 0-.91-.122-1.258-.366a2.373 2.373 0 0 1-.8-1 3.476 3.476 0 0 1-.277-1.418c0-.523.091-.995.273-1.414.185-.42.45-.75.795-.994.344-.244.757-.366 1.238-.366.494 0 .91.12 1.248.36.338.241.593.571.765.99.176.416.264.89.264 1.424 0 .523-.087.996-.259 1.419a2.296 2.296 0 0 1-.76.999c-.335.244-.745.366-1.229.366Zm.073-.668c.374 0 .683-.091.927-.273a1.64 1.64 0 0 0 .546-.751c.12-.322.18-.686.18-1.092 0-.413-.06-.777-.18-1.092a1.596 1.596 0 0 0-.546-.746c-.24-.179-.545-.268-.912-.268-.377 0-.69.093-.936.278a1.64 1.64 0 0 0-.55.755 3.093 3.093 0 0 0-.176 1.073c0 .4.06.76.18 1.082.123.319.307.57.55.756.245.185.55.278.917.278Zm1.653.521v-3.963h-.078V41.73h.721v7.02h-.643Zm2.109-6.264v-.804h.716v.804h-.716Zm0 6.264v-5.265h.716v5.265h-.716Zm5.98 0v-2.686c0-.292-.027-.56-.083-.804a1.856 1.856 0 0 0-.268-.644 1.227 1.227 0 0 0-.473-.429 1.495 1.495 0 0 0-.702-.15c-.253 0-.477.043-.672.13a1.326 1.326 0 0 0-.488.381c-.13.163-.229.36-.297.595-.069.234-.103.5-.103.8l-.507-.113c0-.54.095-.993.283-1.36a1.97 1.97 0 0 1 .78-.834 2.267 2.267 0 0 1 1.14-.282c.316 0 .59.048.825.146.237.097.437.229.6.395.165.165.298.356.4.57.1.211.173.437.218.678.046.237.069.474.069.712v2.895h-.722Zm-3.807 0v-5.265h.648v1.297h.073v3.968h-.721Zm7.885 2.486c-.27 0-.536-.04-.8-.121-.26-.078-.5-.204-.72-.376a2.072 2.072 0 0 1-.556-.663l.648-.36c.146.292.35.502.614.628.267.13.538.195.814.195.38 0 .688-.071.922-.214a1.2 1.2 0 0 0 .516-.624c.108-.276.16-.62.156-1.034v-1.404h.083v-3.778h.639v5.192a5.999 5.999 0 0 1-.059.839c-.061.393-.19.716-.385.97a1.715 1.715 0 0 1-.76.565c-.312.124-.683.185-1.112.185Zm-.049-2.34c-.49 0-.91-.121-1.257-.365a2.371 2.371 0 0 1-.8-1 3.474 3.474 0 0 1-.278-1.418c0-.523.091-.995.273-1.414.186-.42.45-.75.795-.994.344-.244.757-.366 1.238-.366.494 0 .91.12 1.248.36.338.241.593.571.766.99.175.416.263.89.263 1.424 0 .523-.086.996-.258 1.419a2.298 2.298 0 0 1-.761.999c-.335.244-.744.366-1.229.366Zm.074-.667c.373 0 .682-.091.926-.273.244-.182.426-.433.546-.751.12-.322.18-.686.18-1.092 0-.413-.06-.777-.18-1.092a1.595 1.595 0 0 0-.546-.746c-.24-.179-.545-.268-.912-.268-.377 0-.689.093-.936.278a1.64 1.64 0 0 0-.55.755 3.093 3.093 0 0 0-.176 1.073c0 .4.06.76.18 1.082.124.319.307.57.551.756.244.185.55.278.917.278Zm7.112.668c-.396 0-.73-.072-1-.215a1.455 1.455 0 0 1-.599-.57 1.557 1.557 0 0 1-.2-.776c0-.285.057-.53.17-.73.118-.206.275-.373.474-.503.201-.13.434-.229.697-.297a9.91 9.91 0 0 1 .882-.17c.325-.053.642-.097.95-.133.313-.038.586-.076.82-.112l-.254.156c.01-.52-.09-.905-.302-1.155-.211-.25-.578-.375-1.102-.375-.36 0-.666.08-.916.243-.247.163-.421.42-.522.77l-.697-.204c.12-.471.362-.837.727-1.097.364-.26.837-.39 1.418-.39.481 0 .89.091 1.224.273.338.179.577.439.716.78.066.153.108.323.127.512.02.188.03.38.03.575v3.271h-.64v-1.32l.186.077a2.087 2.087 0 0 1-.834 1.034c-.377.237-.828.356-1.355.356Zm.083-.62c.335 0 .627-.06.878-.18a1.588 1.588 0 0 0 .901-1.204c.04-.17.06-.354.064-.556.003-.205.005-.357.005-.458l.273.141a41.56 41.56 0 0 1-.795.098c-.283.032-.562.07-.838.112a7.22 7.22 0 0 0-.741.151 2.01 2.01 0 0 0-.434.18 1 1 0 0 0-.346.303.81.81 0 0 0-.132.473c0 .152.037.3.112.443a.913.913 0 0 0 .37.356c.173.094.4.141.683.141Zm7.745.615c-.618 0-1.126-.134-1.526-.4a1.666 1.666 0 0 1-.731-1.112l.731-.122c.078.3.255.538.531.717.28.176.624.263 1.034.263.4 0 .715-.082.946-.248a.808.808 0 0 0 .346-.688.647.647 0 0 0-.112-.395c-.072-.103-.22-.2-.444-.287a10.39 10.39 0 0 0-1.004-.312 6.794 6.794 0 0 1-1.122-.39c-.27-.13-.461-.28-.575-.449a1.116 1.116 0 0 1-.17-.629c0-.299.084-.56.253-.784a1.62 1.62 0 0 1 .702-.527c.3-.127.647-.19 1.043-.19.397 0 .751.065 1.063.195.315.127.569.306.76.536.192.231.306.5.342.805l-.731.131a1.054 1.054 0 0 0-.464-.731c-.256-.182-.583-.276-.98-.283-.373-.01-.677.062-.911.215-.234.15-.351.35-.351.6 0 .14.042.26.127.36.084.098.237.19.458.278.224.088.543.184.955.288.485.123.865.253 1.141.39.276.136.473.297.59.482.117.186.176.415.176.688 0 .497-.186.889-.556 1.175-.367.282-.874.424-1.521.424Zm9.437-.142.005-3.456c0-.406-.114-.725-.341-.956a1.137 1.137 0 0 0-.858-.35 1.32 1.32 0 0 0-.58.136 1.119 1.119 0 0 0-.469.439c-.12.201-.18.464-.18.79l-.424-.123a1.91 1.91 0 0 1 .22-.99 1.69 1.69 0 0 1 .653-.657c.28-.16.594-.24.945-.24.53 0 .954.165 1.273.493.318.325.478.766.478 1.321l-.005 3.593h-.717Zm-6.284 0v-5.265h.644v1.297h.078v3.968h-.722Zm3.15 0 .004-3.407c0-.42-.112-.75-.336-.99-.221-.244-.514-.366-.878-.366s-.658.125-.882.376c-.224.247-.336.577-.336.99l-.43-.235c0-.338.08-.64.24-.906a1.7 1.7 0 0 1 .653-.634 1.88 1.88 0 0 1 .94-.234c.335 0 .633.071.893.214.263.143.47.351.619.624.15.273.224.605.224.995l-.005 3.573h-.707Zm5.217-6.264v-.804h.717v.804h-.717Zm0 6.264v-5.265h.717v5.265h-.717Zm2.276 0v-7.166h.717v7.166h-.717Zm4.405.147c-.513 0-.958-.114-1.335-.342a2.315 2.315 0 0 1-.873-.96c-.208-.413-.312-.897-.312-1.453 0-.575.102-1.072.307-1.492.205-.419.493-.742.863-.97.374-.227.814-.341 1.321-.341.52 0 .964.12 1.331.36.367.238.645.58.834 1.025.188.445.274.976.258 1.594h-.731v-.254c-.013-.682-.161-1.197-.444-1.545-.279-.348-.689-.522-1.228-.522-.566 0-1 .184-1.302.551-.299.367-.448.89-.448 1.57 0 .663.149 1.178.448 1.545.302.364.73.546 1.282.546.377 0 .705-.086.985-.258.283-.176.505-.428.668-.756l.668.258a2.385 2.385 0 0 1-.922 1.068c-.403.25-.859.376-1.37.376Zm-2.013-2.58v-.599h4.022v.6h-4.022Zm5.436 2.433v-.833h.833v.833h-.833Z" />
</svg>