<svg width="148" height="40" viewBox="0 0 148 40" fill="none" xmlns="http://www.w3.org/2000/svg">
<path d="M42.7216 11.5455H46.5909L51.7727 24.1932H51.9773L57.1591 11.5455H61.0284V29H57.9943V17.0085H57.8324L53.0085 28.9489H50.7415L45.9176 16.983H45.7557V29H42.7216V11.5455ZM70.0455 29.2557C68.767 29.2557 67.6591 28.9744 66.7216 28.4119C65.7841 27.8494 65.0568 27.0625 64.5398 26.0511C64.0284 25.0398 63.7727 23.858 63.7727 22.5057C63.7727 21.1534 64.0284 19.9687 64.5398 18.9517C65.0568 17.9347 65.7841 17.1449 66.7216 16.5824C67.6591 16.0199 68.767 15.7386 70.0455 15.7386C71.3239 15.7386 72.4318 16.0199 73.3693 16.5824C74.3068 17.1449 75.0313 17.9347 75.5426 18.9517C76.0597 19.9687 76.3182 21.1534 76.3182 22.5057C76.3182 23.858 76.0597 25.0398 75.5426 26.0511C75.0313 27.0625 74.3068 27.8494 73.3693 28.4119C72.4318 28.9744 71.3239 29.2557 70.0455 29.2557ZM70.0625 26.7841C70.7557 26.7841 71.3352 26.5937 71.8011 26.2131C72.267 25.8267 72.6136 25.3097 72.8409 24.6619C73.0739 24.0142 73.1903 23.2926 73.1903 22.4972C73.1903 21.696 73.0739 20.9716 72.8409 20.3239C72.6136 19.6705 72.267 19.1506 71.8011 18.7642C71.3352 18.3778 70.7557 18.1847 70.0625 18.1847C69.3523 18.1847 68.7614 18.3778 68.2898 18.7642C67.8239 19.1506 67.4744 19.6705 67.2415 20.3239C67.0142 20.9716 66.9006 21.696 66.9006 22.4972C66.9006 23.2926 67.0142 24.0142 67.2415 24.6619C67.4744 25.3097 67.8239 25.8267 68.2898 26.2131C68.7614 26.5937 69.3523 26.7841 70.0625 26.7841ZM78.9368 29V15.9091H81.9283V18.0909H82.0646C82.3033 17.3352 82.7124 16.7528 83.2919 16.3438C83.8771 15.929 84.5447 15.7216 85.2947 15.7216C85.4652 15.7216 85.6555 15.7301 85.8658 15.7472C86.0817 15.7585 86.2607 15.7784 86.4027 15.8068V18.6449C86.272 18.5994 86.0646 18.5597 85.7805 18.5256C85.5021 18.4858 85.2322 18.4659 84.9709 18.4659C84.4084 18.4659 83.9027 18.5881 83.4538 18.8324C83.0107 19.071 82.6612 19.4034 82.4055 19.8295C82.1499 20.2557 82.022 20.7472 82.022 21.304V29H78.9368ZM93.7088 29.2557C92.3963 29.2557 91.2628 28.983 90.3082 28.4375C89.3594 27.8864 88.6293 27.108 88.1179 26.1023C87.6065 25.0909 87.3509 23.9006 87.3509 22.5312C87.3509 21.1847 87.6065 20.0028 88.1179 18.9858C88.6349 17.9631 89.3565 17.1676 90.2827 16.5994C91.2088 16.0256 92.2969 15.7386 93.5469 15.7386C94.3537 15.7386 95.1151 15.8693 95.831 16.1307C96.5526 16.3864 97.1889 16.7841 97.7401 17.3239C98.2969 17.8636 98.7344 18.5511 99.0526 19.3864C99.3707 20.2159 99.5298 21.2045 99.5298 22.3523V23.2983H88.7997V21.2188H96.5724C96.5668 20.6278 96.4389 20.1023 96.1889 19.642C95.9389 19.1761 95.5895 18.8097 95.1406 18.5426C94.6974 18.2756 94.1804 18.142 93.5895 18.142C92.9588 18.142 92.4048 18.2955 91.9276 18.6023C91.4503 18.9034 91.0781 19.3011 90.8111 19.7955C90.5497 20.2841 90.4162 20.821 90.4105 21.4062V23.2216C90.4105 23.983 90.5497 24.6364 90.8281 25.1818C91.1065 25.7216 91.4957 26.1364 91.9957 26.4261C92.4957 26.7102 93.081 26.8523 93.7514 26.8523C94.2003 26.8523 94.6065 26.7898 94.9702 26.6648C95.3338 26.5341 95.6491 26.3438 95.9162 26.0938C96.1832 25.8438 96.3849 25.5341 96.5213 25.1648L99.402 25.4886C99.2202 26.25 98.8736 26.9148 98.3622 27.483C97.8565 28.0455 97.2088 28.483 96.419 28.7955C95.6293 29.1023 94.7259 29.2557 93.7088 29.2557ZM104.518 29H101.143L107.288 11.5455H111.191L117.344 29H113.969L109.308 15.125H109.171L104.518 29ZM104.629 22.1562H113.833V24.696H104.629V22.1562ZM119.507 33.9091V15.9091H122.541V18.0739H122.72C122.879 17.7557 123.104 17.4176 123.393 17.0597C123.683 16.696 124.075 16.3864 124.57 16.1307C125.064 15.8693 125.695 15.7386 126.462 15.7386C127.473 15.7386 128.385 15.9972 129.197 16.5142C130.016 17.0256 130.663 17.7841 131.141 18.7898C131.624 19.7898 131.865 21.017 131.865 22.4716C131.865 23.9091 131.629 25.1307 131.158 26.1364C130.686 27.142 130.044 27.9091 129.232 28.4375C128.419 28.9659 127.499 29.2301 126.47 29.2301C125.72 29.2301 125.098 29.1051 124.604 28.8551C124.109 28.6051 123.712 28.304 123.411 27.9517C123.115 27.5937 122.885 27.2557 122.72 26.9375H122.592V33.9091H119.507ZM122.533 22.4545C122.533 23.3011 122.652 24.0426 122.891 24.679C123.135 25.3153 123.484 25.8125 123.939 26.1705C124.399 26.5227 124.956 26.6989 125.609 26.6989C126.291 26.6989 126.862 26.517 127.322 26.1534C127.783 25.7841 128.129 25.2812 128.362 24.6449C128.601 24.0028 128.72 23.2727 128.72 22.4545C128.72 21.642 128.604 20.9205 128.371 20.2898C128.138 19.6591 127.791 19.1648 127.331 18.8068C126.871 18.4489 126.297 18.2699 125.609 18.2699C124.95 18.2699 124.391 18.4432 123.93 18.7898C123.47 19.1364 123.121 19.6222 122.882 20.2472C122.649 20.8722 122.533 21.608 122.533 22.4545ZM134.507 33.9091V15.9091H137.541V18.0739H137.72C137.879 17.7557 138.104 17.4176 138.393 17.0597C138.683 16.696 139.075 16.3864 139.57 16.1307C140.064 15.8693 140.695 15.7386 141.462 15.7386C142.473 15.7386 143.385 15.9972 144.197 16.5142C145.016 17.0256 145.663 17.7841 146.141 18.7898C146.624 19.7898 146.865 21.017 146.865 22.4716C146.865 23.9091 146.629 25.1307 146.158 26.1364C145.686 27.142 145.044 27.9091 144.232 28.4375C143.419 28.9659 142.499 29.2301 141.47 29.2301C140.72 29.2301 140.098 29.1051 139.604 28.8551C139.109 28.6051 138.712 28.304 138.411 27.9517C138.115 27.5937 137.885 27.2557 137.72 26.9375H137.592V33.9091H134.507ZM137.533 22.4545C137.533 23.3011 137.652 24.0426 137.891 24.679C138.135 25.3153 138.484 25.8125 138.939 26.1705C139.399 26.5227 139.956 26.6989 140.609 26.6989C141.291 26.6989 141.862 26.517 142.322 26.1534C142.783 25.7841 143.129 25.2812 143.362 24.6449C143.601 24.0028 143.72 23.2727 143.72 22.4545C143.72 21.642 143.604 20.9205 143.371 20.2898C143.138 19.6591 142.791 19.1648 142.331 18.8068C141.871 18.4489 141.297 18.2699 140.609 18.2699C139.95 18.2699 139.391 18.4432 138.93 18.7898C138.47 19.1364 138.121 19.6222 137.882 20.2472C137.649 20.8722 137.533 21.608 137.533 22.4545Z" fill="#4B5563"/>
<path d="M14.6246 13.3191V0C16.6114 2.44881 18.4237 5.04117 20.0475 7.75697L14.6246 13.3191ZM11.3746 18.0335L10.7017 17.3426L4.28362 10.7599C3.2874 12.6772 2.42927 14.6666 1.71609 16.7123L11.3746 26.6188V18.0335ZM14.6254 18.0335V26.6193L24.2839 16.7129C23.5707 14.6672 22.7126 12.6778 21.7164 10.7605L15.2977 17.3426L14.6254 18.0335ZM14.6254 31.3334V40C21.0372 39.1378 26 33.2493 26 26.1079C25.9872 24.1718 25.7606 22.2434 25.3245 20.3597L14.6254 31.3334ZM10.7017 30.6423L0.675492 20.3589C0.239394 22.2427 0.0127849 24.1711 0 26.1072C0 33.2485 4.96279 39.1371 11.3746 39.9992V31.3323L10.7017 30.6423ZM11.3746 13.3189V0C9.38783 2.44881 7.57553 5.04117 5.95178 7.75697L11.3746 13.3189Z" fill="#3F5D8B"/>
</svg>
