<?xml version="1.0" encoding="utf-8"?>
<!-- Generator: Adobe Illustrator 26.3.1, SVG Export Plug-In . SVG Version: 6.00 Build 0)  -->
<svg version="1.1" id="Warstwa_1" xmlns="http://www.w3.org/2000/svg" xmlns:xlink="http://www.w3.org/1999/xlink" x="0px" y="0px"
	 viewBox="0 0 139.1 32" style="enable-background:new 0 0 139.1 32;" xml:space="preserve">
<style type="text/css">
	.st0{fill:#262D60;}
</style>
<g>
	<path class="st0" d="M123.1,0.3c-8.7,0-15.7,7-15.7,15.7s7,15.7,15.7,15.7c8.7,0,15.7-7,15.7-15.7C138.8,7.3,131.7,0.3,123.1,0.3z
		 M123.1,26.9c-6,0-10.9-4.9-10.9-10.9c0-6,4.9-10.9,10.9-10.9c6,0,10.9,4.9,10.9,10.9C134,22,129.1,26.9,123.1,26.9z"/>
	<path class="st0" d="M13.1,22.3c-0.3-0.2-0.7-0.4-1.1-0.5c-0.4-0.1-0.9-0.2-1.4-0.2c-0.3,0-0.5,0-0.8,0c-0.3,0-0.5,0.1-0.7,0.1l0,0
		v5.5l0,0c0.2,0,0.4,0.1,0.7,0.1c0.3,0,0.5,0,0.8,0c0.5,0,1-0.1,1.4-0.2c0.4-0.1,0.8-0.3,1.1-0.5c0.3-0.2,0.5-0.6,0.7-0.9
		c0.2-0.4,0.2-0.8,0.2-1.3c0-0.5-0.1-0.9-0.2-1.3C13.7,22.8,13.4,22.5,13.1,22.3z M13.4,24.4c0,0.4-0.1,0.7-0.2,1
		c-0.1,0.3-0.3,0.5-0.5,0.8c-0.2,0.2-0.5,0.4-0.8,0.5c-0.3,0.1-0.7,0.2-1.1,0.2c-0.3,0-0.5,0-0.7,0c-0.1,0-0.2,0-0.2,0v-4.7
		c0,0,0.1,0,0.2,0c0.1,0,0.4,0,0.7,0c0.4,0,0.8,0.1,1.1,0.2c0.3,0.1,0.6,0.3,0.8,0.5c0.2,0.2,0.4,0.5,0.5,0.7
		C13.3,23.7,13.4,24.1,13.4,24.4z"/>
	<rect x="15.6" y="21.6" class="st0" width="0.6" height="5.7"/>
	<path class="st0" d="M21.8,26.8c-0.1,0-0.2,0.1-0.4,0.1c-0.2,0-0.5,0-0.7,0c-0.4,0-0.7-0.1-1-0.2c-0.3-0.1-0.5-0.3-0.7-0.5
		c-0.2-0.2-0.3-0.5-0.4-0.8c-0.1-0.3-0.1-0.6-0.1-1c0-0.4,0.1-0.8,0.2-1.1c0.1-0.3,0.3-0.6,0.5-0.8c0.2-0.2,0.4-0.4,0.7-0.5
		c0.3-0.1,0.6-0.2,0.9-0.2c0.3,0,0.6,0,0.9,0.1c0.3,0.1,0.5,0.2,0.7,0.3l0,0l0.2-0.5l0,0c-0.1-0.1-0.4-0.2-0.6-0.3
		c-0.3-0.1-0.7-0.1-1.1-0.1c-0.4,0-0.8,0.1-1.1,0.2c-0.3,0.1-0.7,0.3-0.9,0.6c-0.3,0.2-0.5,0.6-0.6,0.9c-0.2,0.4-0.2,0.8-0.2,1.3
		c0,0.5,0.1,0.9,0.2,1.3c0.1,0.4,0.3,0.7,0.6,0.9c0.3,0.3,0.6,0.4,0.9,0.6c0.3,0.1,0.7,0.2,1.1,0.2c0.5,0,0.9,0,1.2-0.1
		c0.3-0.1,0.5-0.1,0.7-0.2l0,0v-2.6h-0.6V26.8z"/>
	<rect x="24.1" y="21.6" class="st0" width="0.6" height="5.7"/>
	<polygon class="st0" points="30.4,21.6 25.9,21.6 25.9,22.1 27.8,22.1 27.8,27.3 28.5,27.3 28.5,22.1 30.4,22.1 	"/>
	<path class="st0" d="M35.3,25.6c-0.2-0.5-0.4-1-0.6-1.5c-0.2-0.5-0.4-0.9-0.6-1.3c-0.2-0.4-0.4-0.8-0.6-1.3l0,0h-0.6l0,0
		c-0.2,0.4-0.4,0.8-0.6,1.3c-0.2,0.4-0.4,0.9-0.6,1.3c-0.2,0.5-0.4,0.9-0.6,1.5c-0.2,0.5-0.4,1.1-0.7,1.7l0,0h0.7l0,0
		c0.1-0.3,0.2-0.6,0.3-0.8c0.1-0.2,0.2-0.5,0.3-0.7h2.9c0.1,0.2,0.2,0.5,0.3,0.7c0.1,0.3,0.2,0.5,0.3,0.8l0,0H36l0,0
		C35.7,26.7,35.5,26.1,35.3,25.6z M34.4,25.2h-2.5c0.2-0.5,0.4-1,0.6-1.5c0.2-0.5,0.4-0.9,0.6-1.4c0.2,0.5,0.4,0.9,0.6,1.4
		C34,24.2,34.2,24.7,34.4,25.2z"/>
	<polygon class="st0" points="37.7,21.6 37,21.6 37,27.3 40.5,27.3 40.5,26.8 37.7,26.8 	"/>
	<polygon class="st0" points="47.9,24 44.6,24 44.6,21.6 43.9,21.6 43.9,27.3 44.6,27.3 44.6,24.6 47.9,24.6 47.9,27.3 48.5,27.3 
		48.5,21.6 47.9,21.6 	"/>
	<polygon class="st0" points="50.9,24.6 53.5,24.6 53.5,24 50.9,24 50.9,22.1 53.9,22.1 53.9,21.6 50.3,21.6 50.3,27.3 54.1,27.3 
		54.1,26.8 50.9,26.8 	"/>
	<path class="st0" d="M59.7,25.6c-0.2-0.5-0.4-1-0.6-1.5c-0.2-0.5-0.4-0.9-0.6-1.3c-0.2-0.4-0.4-0.8-0.6-1.3l0,0h-0.6l0,0
		c-0.2,0.4-0.4,0.8-0.6,1.3c-0.2,0.4-0.4,0.9-0.6,1.3c-0.2,0.5-0.4,0.9-0.6,1.5c-0.2,0.5-0.4,1-0.7,1.7l0,0h0.7l0,0
		c0.1-0.3,0.2-0.5,0.3-0.8c0.1-0.3,0.2-0.5,0.3-0.7h2.9c0.1,0.3,0.2,0.5,0.3,0.7c0.1,0.3,0.2,0.5,0.3,0.8l0,0h0.7l0,0
		C60.1,26.7,59.9,26.1,59.7,25.6z M58.9,25.2h-2.5c0.2-0.5,0.4-1.1,0.6-1.5c0.2-0.5,0.4-0.9,0.6-1.4c0.2,0.5,0.4,0.9,0.6,1.4
		C58.5,24.2,58.7,24.7,58.9,25.2z"/>
	<polygon class="st0" points="62.1,21.6 61.5,21.6 61.5,27.3 65,27.3 65,26.8 62.1,26.8 	"/>
	<polygon class="st0" points="64.6,22.1 66.6,22.1 66.6,27.3 67.2,27.3 67.2,22.1 69.2,22.1 69.2,21.6 64.6,21.6 	"/>
	<polygon class="st0" points="74.2,24 71,24 71,21.6 70.3,21.6 70.3,27.3 71,27.3 71,24.6 74.2,24.6 74.2,27.3 74.9,27.3 74.9,21.6 
		74.2,21.6 	"/>
	<path class="st0" d="M80.8,26.6c-0.1,0.1-0.3,0.1-0.6,0.2c-0.3,0.1-0.6,0.1-1,0.1c-0.3,0-0.7-0.1-0.9-0.2c-0.3-0.1-0.5-0.3-0.7-0.5
		c-0.2-0.2-0.3-0.5-0.4-0.8c-0.1-0.3-0.1-0.6-0.1-1c0-0.4,0-0.7,0.1-1c0.1-0.3,0.2-0.6,0.4-0.8c0.2-0.2,0.4-0.4,0.7-0.5
		c0.3-0.1,0.6-0.2,1-0.2c0.3,0,0.6,0,0.8,0.1c0.2,0.1,0.4,0.2,0.6,0.2l0,0l0.2-0.5l0,0c-0.1,0-0.1-0.1-0.2-0.1s-0.2-0.1-0.4-0.1
		c-0.1,0-0.3-0.1-0.5-0.1c-0.2,0-0.4,0-0.6,0c-0.4,0-0.7,0.1-1.1,0.2c-0.3,0.1-0.6,0.3-0.9,0.6c-0.3,0.3-0.5,0.6-0.6,0.9
		c-0.2,0.4-0.2,0.8-0.2,1.3c0,0.5,0.1,0.9,0.2,1.3c0.1,0.4,0.3,0.7,0.6,0.9c0.3,0.3,0.6,0.5,0.9,0.6c0.3,0.1,0.7,0.2,1.1,0.2
		c0.3,0,0.5,0,0.7,0c0.2,0,0.4-0.1,0.5-0.1c0.1,0,0.3-0.1,0.4-0.1c0.1,0,0.2-0.1,0.2-0.1l0,0L80.8,26.6L80.8,26.6z"/>
	<path class="st0" d="M86.6,25.6c-0.2-0.5-0.4-1-0.6-1.5c-0.2-0.5-0.4-0.9-0.6-1.3c-0.2-0.4-0.4-0.8-0.6-1.3l0,0h-0.6l0,0
		c-0.2,0.4-0.4,0.8-0.6,1.3c-0.2,0.4-0.4,0.9-0.6,1.3c-0.2,0.5-0.4,0.9-0.6,1.5c-0.2,0.6-0.4,1.1-0.7,1.7l0,0h0.7l0,0
		c0.1-0.3,0.2-0.6,0.3-0.8c0.1-0.3,0.2-0.5,0.3-0.7H86c0.1,0.2,0.2,0.5,0.3,0.7c0.1,0.3,0.2,0.5,0.3,0.8l0,0h0.7l0,0
		C87,26.7,86.8,26.1,86.6,25.6z M85.8,25.2h-2.5c0.2-0.5,0.4-1.1,0.6-1.5c0.2-0.4,0.4-0.9,0.6-1.4c0.2,0.5,0.4,0.9,0.6,1.4
		C85.3,24.2,85.6,24.7,85.8,25.2z"/>
	<path class="st0" d="M92.5,26.6c-0.2-0.2-0.3-0.5-0.5-0.7c-0.2-0.2-0.3-0.4-0.5-0.6c-0.1-0.2-0.3-0.3-0.3-0.4
		c0.4-0.1,0.7-0.3,0.9-0.5c0.2-0.2,0.4-0.6,0.4-1c0-0.6-0.2-1-0.6-1.3c-0.4-0.3-1.1-0.4-1.9-0.4c-0.2,0-0.5,0-0.8,0
		c-0.3,0-0.5,0.1-0.7,0.1l0,0v5.6H89V25h1c0.2,0,0.4,0,0.6,0c0.1,0.1,0.1,0.2,0.2,0.3l0.1,0.2c0.1,0.2,0.3,0.4,0.4,0.6
		c0.1,0.2,0.3,0.4,0.4,0.6c0.1,0.2,0.3,0.4,0.4,0.7l0,0h0.7l0,0C92.7,27.1,92.6,26.8,92.5,26.6z M91.6,23.9
		c-0.1,0.2-0.2,0.3-0.4,0.4s-0.4,0.1-0.6,0.2c-0.2,0-0.5,0-0.8,0H89v-2.4c0.1,0,0.2,0,0.4,0c0.2,0,0.4,0,0.6,0c0.2,0,0.5,0,0.7,0.1
		c0.2,0,0.4,0.1,0.6,0.2c0.2,0.1,0.3,0.2,0.4,0.4c0.1,0.2,0.2,0.4,0.2,0.6C91.8,23.6,91.8,23.8,91.6,23.9z"/>
	<polygon class="st0" points="94.7,24.6 97.3,24.6 97.3,24 94.7,24 94.7,22.1 97.6,22.1 97.6,21.6 94,21.6 94,27.3 97.9,27.3 
		97.9,26.8 94.7,26.8 	"/>
	<path class="st0" d="M13.5,10.9C13.5,7.8,11,5,7.4,5H0.3V23h3.3v-6h3.8C11,17,13.5,14.1,13.5,10.9z M7,14.2H3.6V7.9l3.3,0
		c1.9,0,3.1,1.5,3.1,3.1C10.1,12.6,8.9,14.2,7,14.2z"/>
	<path class="st0" d="M18.8,6.7V5.4h-3.2l0,11.7h3.2v-5.9c0-2.5,1.3-3.3,2.9-3.3c0.3,0,0.7,0.1,1.1,0.1l0.4-2.7
		c-0.3-0.1-0.7-0.2-1.3-0.2C20.7,5.1,19.5,5.7,18.8,6.7z"/>
	<path class="st0" d="M30.2,5c-3.8,0-6.4,2.7-6.4,6.2c0,3.5,2.6,6.2,6.4,6.2s6.4-2.7,6.4-6.2C36.6,7.7,34,5,30.2,5z M30.2,14.7
		c-2,0-3.2-1.6-3.2-3.5c0-1.9,1.2-3.5,3.2-3.5c2,0,3.2,1.6,3.2,3.5C33.4,13.1,32.1,14.7,30.2,14.7z"/>
	<path class="st0" d="M48.3,13.5c0-4.7-7.2-2.9-7.2-4.8c0-0.7,0.6-1.1,1.9-1.1c1.3,0,2.8,0.7,3.7,1.4l1.2-2.2C47.3,6.2,45.5,5,43,5
		c-3.1,0-4.9,1.5-4.9,3.8c0,4.7,7,2.9,7,4.9c0,0.7-0.8,1.2-2,1.2c-1.5,0-3.2-0.6-4.1-1.4l-1.3,2.3c0.7,0.6,2.6,1.7,5.4,1.7
		C46.1,17.4,48.3,16.2,48.3,13.5z"/>
	<path class="st0" d="M56.1,5c-3.8,0-6.4,2.7-6.4,6.2c0,3.5,2.6,6.2,6.4,6.2c3.8,0,6.4-2.7,6.4-6.2C62.5,7.7,59.9,5,56.1,5z
		 M56.1,14.7c-2,0-3.2-1.6-3.2-3.5c0-1.9,1.2-3.5,3.2-3.5c2,0,3.2,1.6,3.2,3.5C59.3,13.1,58,14.7,56.1,14.7z"/>
	<path class="st0" d="M79.6,10.5v6.5h3.2l0-7.3c0-3.5-2.2-4.8-4.2-4.8c-1.8,0-3.1,0.5-4.1,1.6C73.7,5.4,72.4,5,71.1,5
		c-1.2,0-2.4,0.5-3.2,1.5V5.4h-3.2v11.7H68v-6.5c0-1.9,0.9-2.8,2.1-2.8c1.2,0,2.1,0.9,2.1,2.8v6.5h3.2l0-6.5c0-1.9,0.9-2.8,2.1-2.8
		C78.7,7.7,79.6,8.6,79.6,10.5z"/>
	<path class="st0" d="M90.8,17.4c1.4,0,2.7-0.5,3.7-1.5v1.1h3.2V5.4h-3.2v1.1C93.5,5.5,92.2,5,90.8,5C87.4,5,85,7.7,85,11.2
		S87.4,17.4,90.8,17.4z M91.4,7.7c1.9,0,3.2,1.5,3.2,3.5c0,2-1.3,3.5-3.2,3.5c-2,0-3.2-1.6-3.2-3.5C88.2,9.3,89.4,7.7,91.4,7.7z"/>
</g>
</svg>
