<svg xmlns="http://www.w3.org/2000/svg" width="160" height="30" viewBox="0 0 160 30" fill="none">
  <g clip-path="url(#clip0_421_100)">
    <path d="M36.4325 23.8231H52.723V29.4967H29.9132V0.503305H52.5178V6.17692H36.4325V23.8231Z" fill="white"/>
    <path d="M86.4404 29.4967V0.503305H109.045V6.17692H92.9597V12.0641H107.119V17.7377H92.9597V23.8231H109.25V29.4967H86.4404Z" fill="#DB6413"/>
    <path d="M113.97 29.4967V0.503305H120.568V23.7468H135.533V29.5119H113.954L113.97 29.4967Z" fill="#DB6413"/>
    <path d="M138.437 29.4967V0.503305H145.036V23.7468H160V29.5119H138.421L138.437 29.4967Z" fill="#DB6413"/>
    <path d="M78.9424 20.7117C77.7743 21.7641 76.5904 22.5877 75.4065 23.1978C74.2226 23.8078 72.7703 24.1129 71.0497 24.1129C69.7553 24.1129 68.5872 23.8688 67.5138 23.396C66.4404 22.908 65.5249 22.2522 64.7672 21.4286C64.0095 20.605 63.4096 19.6289 62.9834 18.5308C62.8887 18.2715 62.8256 17.9817 62.7466 17.7224H55.659C55.8485 18.8358 56.1484 19.9034 56.5904 20.9405C57.3638 22.7707 58.4372 24.3416 59.8106 25.6838C61.1839 27.0259 62.8098 28.0783 64.704 28.8561C66.5825 29.634 68.6346 30.0153 70.8287 30.0153C72.281 30.0153 73.6069 29.8932 74.775 29.6645C75.9432 29.4357 77.0323 29.0849 78.011 28.6274C78.9897 28.1698 79.9053 27.6207 80.7261 26.9954C81.547 26.3549 82.352 25.638 83.1255 24.8449L78.9266 20.7422L78.9424 20.7117Z" fill="#DB6413"/>
    <path d="M62.8098 12.0641C62.8729 11.8505 62.9045 11.6218 62.9992 11.4235C63.4254 10.3406 64.0253 9.37977 64.7987 8.54093C65.5722 7.71734 66.4878 7.06152 67.5612 6.58871C68.6346 6.11591 69.8027 5.88714 71.0497 5.88714C72.5651 5.88714 73.9226 6.17692 75.1381 6.75648C76.3536 7.33604 77.5533 8.14438 78.7214 9.16624L82.9203 4.48399C82.2415 3.81291 81.4838 3.2181 80.6945 2.65379C79.8895 2.10473 79.0213 1.63193 78.0742 1.25064C77.1271 0.869344 76.0852 0.564311 74.9171 0.335536C73.749 0.106762 72.4862 0 71.0813 0C68.7608 0 66.6456 0.396543 64.7356 1.17438C62.8256 1.96746 61.1839 3.03508 59.8106 4.40773C58.4372 5.78038 57.3638 7.36655 56.5904 9.16624C56.1957 10.0966 55.9116 11.0574 55.7064 12.0488H62.794L62.8098 12.0641Z" fill="#DB6413"/>
    <path d="M54.0331 12.0641H39.0055V17.7377H54.0331V12.0641Z" fill="white"/>
    <path d="M6.59826 26.5379V24.7229V22.0691V14.6111H0V29.4967H6.59826V26.5379Z" fill="white"/>
    <path d="M19.3212 19.1408C21.2313 18.4545 22.794 17.3716 23.9779 15.8922C25.1618 14.4128 25.7616 12.5064 25.7616 10.1576V10.0813C25.7616 7.07677 24.7672 4.72801 22.7782 3.03508C20.7893 1.3574 18.011 0.503305 14.4436 0.503305H9.36069V6.26843H13.8911C15.517 6.26843 16.7956 6.61922 17.7111 7.30554C18.6267 7.99187 19.0844 9.02898 19.0844 10.4169V10.4931C19.0844 11.7438 18.6425 12.7351 17.7743 13.4825C16.9061 14.2298 15.659 14.5958 14.0174 14.5958H6.18784V20.2389H12.502L18.9424 29.5272H26.6614L19.3212 19.1713V19.1408Z" fill="white"/>
    <path d="M6.59826 12.1251V12.1098V5.24657V0.503305H0V12.1251H6.59826Z" fill="#DB6413"/>
  </g>
  <defs>
    <clipPath id="clip0_421_100">
      <rect width="160" height="30" fill="white"/>
    </clipPath>
  </defs>
</svg>
