<?xml version="1.0" encoding="UTF-8"?>
<!DOCTYPE svg PUBLIC "-//W3C//DTD SVG 1.1//EN" "http://www.w3.org/Graphics/SVG/1.1/DTD/svg11.dtd">
<svg xmlns="http://www.w3.org/2000/svg" version="1.1" width="1300px" height="448px" style="shape-rendering:geometricPrecision; text-rendering:geometricPrecision; image-rendering:optimizeQuality; fill-rule:evenodd; clip-rule:evenodd" xmlns:xlink="http://www.w3.org/1999/xlink">
<g><path style="opacity:1" fill="#1f0089" d="M 98.5,-0.5 C 132.167,-0.5 165.833,-0.5 199.5,-0.5C 199.333,32.5017 199.5,65.5017 200,98.5C 233.035,65.632 265.868,32.632 298.5,-0.5C 332.167,-0.5 365.833,-0.5 399.5,-0.5C 399.667,33.1683 399.5,66.835 399,100.5C 366.167,133.333 333.333,166.167 300.5,199C 333.498,199.5 366.498,199.667 399.5,199.5C 399.667,233.168 399.5,266.835 399,300.5C 366.167,333.333 333.333,366.167 300.5,399C 266.835,399.5 233.168,399.667 199.5,399.5C 199.667,366.498 199.5,333.498 199,300.5C 166.167,333.333 133.333,366.167 100.5,399C 66.835,399.5 33.1683,399.667 -0.5,399.5C -0.5,365.833 -0.5,332.167 -0.5,298.5C 32.632,265.868 65.632,233.035 98.5,200C 65.5017,199.5 32.5017,199.333 -0.5,199.5C -0.5,165.833 -0.5,132.167 -0.5,98.5C 32.8333,65.8333 65.8333,32.8333 98.5,-0.5 Z M 199.5,199.5 C 166.498,199.667 133.498,199.5 100.5,199C 133.333,166.167 166.167,133.333 199,100.5C 199.5,133.498 199.667,166.498 199.5,199.5 Z M 199.5,199.5 C 232.502,199.333 265.502,199.5 298.5,200C 265.667,232.833 232.833,265.667 200,298.5C 199.5,265.502 199.333,232.502 199.5,199.5 Z"/></g>
<g><path style="opacity:1" fill="#1f0089" d="M 648.5,35.5 C 680.315,31.2455 704.315,42.7455 720.5,70C 712.62,76.2101 704.453,82.0434 696,87.5C 691.212,81.7102 686.046,76.2102 680.5,71C 668.879,63.3041 656.879,62.6375 644.5,69C 635.244,77.1261 635.244,85.1261 644.5,93C 660.5,99 676.5,105 692.5,111C 720.805,122.444 729.972,142.611 720,171.5C 715.5,180 709,186.5 700.5,191C 684.39,199.046 667.39,201.713 649.5,199C 626.478,195.342 609.812,183.175 599.5,162.5C 606.495,155.862 614.161,149.862 622.5,144.5C 637.084,168.639 657.417,175.472 683.5,165C 692.356,157.682 692.69,150.016 684.5,142C 670.417,134.97 655.75,129.303 640.5,125C 629.06,120.887 619.227,114.387 611,105.5C 604.926,95.3099 602.926,84.3099 605,72.5C 607.705,60.5723 614.205,51.4057 624.5,45C 632.186,40.7224 640.186,37.5558 648.5,35.5 Z"/></g>
<g><path style="opacity:1" fill="#1f0089" d="M 879.5,55.5 C 889.5,55.5 899.5,55.5 909.5,55.5C 909.5,102.833 909.5,150.167 909.5,197.5C 899.5,197.5 889.5,197.5 879.5,197.5C 879.333,169.831 879.5,142.165 880,114.5C 889.5,105 899,95.5 908.5,86C 898.839,85.5002 889.172,85.3335 879.5,85.5C 879.5,75.5 879.5,65.5 879.5,55.5 Z"/></g>
<g><path style="opacity:1" fill="#1f0089" d="M 790.5,81.5 C 814.361,78.2833 834.194,85.6166 850,103.5C 852.104,106.71 853.937,110.043 855.5,113.5C 855.392,114.442 855.059,115.275 854.5,116C 847.299,120.698 839.965,125.198 832.5,129.5C 820.194,109.677 803.86,105.511 783.5,117C 771.105,130.099 769.272,144.599 778,160.5C 790.703,174.971 805.203,177.137 821.5,167C 826.086,162.92 830.086,158.42 833.5,153.5C 840.754,158.377 847.921,163.377 855,168.5C 849.248,182.581 839.081,192.415 824.5,198C 795.511,207.547 771.344,200.714 752,177.5C 737.065,153.011 737.399,128.678 753,104.5C 762.908,92.3902 775.408,84.7235 790.5,81.5 Z"/></g>
<g><path style="opacity:1" fill="#1f0089" d="M 648.5,235.5 C 680.315,231.245 704.315,242.745 720.5,270C 712.62,276.21 704.453,282.043 696,287.5C 691.212,281.71 686.046,276.21 680.5,271C 668.879,263.304 656.879,262.637 644.5,269C 635.244,277.126 635.244,285.126 644.5,293C 660.5,299 676.5,305 692.5,311C 720.805,322.444 729.972,342.611 720,371.5C 715.5,380 709,386.5 700.5,391C 684.39,399.046 667.39,401.713 649.5,399C 626.478,395.342 609.812,383.175 599.5,362.5C 606.495,355.862 614.161,349.862 622.5,344.5C 637.084,368.639 657.417,375.472 683.5,365C 692.356,357.682 692.69,350.016 684.5,342C 670.417,334.97 655.75,329.303 640.5,325C 629.06,320.887 619.227,314.387 611,305.5C 604.926,295.31 602.926,284.31 605,272.5C 607.705,260.572 614.205,251.406 624.5,245C 632.186,240.722 640.186,237.556 648.5,235.5 Z"/></g>
<g><path style="opacity:1" fill="#1f0089" d="M 1124.5,249.5 C 1134.17,249.5 1143.83,249.5 1153.5,249.5C 1153.5,260.833 1153.5,272.167 1153.5,283.5C 1163.5,283.5 1173.5,283.5 1183.5,283.5C 1183.5,292.833 1183.5,302.167 1183.5,311.5C 1173.5,311.5 1163.5,311.5 1153.5,311.5C 1153.33,326.17 1153.5,340.837 1154,355.5C 1154.45,366.944 1160.45,372.611 1172,372.5C 1178.22,371.768 1184.39,370.768 1190.5,369.5C 1190.53,375.681 1190.86,381.847 1191.5,388C 1191.17,390.167 1190.83,392.333 1190.5,394.5C 1178.61,399.245 1166.28,400.745 1153.5,399C 1133.7,394.013 1123.7,381.179 1123.5,360.5C 1124.49,344.214 1124.82,327.881 1124.5,311.5C 1118.17,311.5 1111.83,311.5 1105.5,311.5C 1105.5,302.167 1105.5,292.833 1105.5,283.5C 1111.83,283.5 1118.17,283.5 1124.5,283.5C 1124.5,272.167 1124.5,260.833 1124.5,249.5 Z"/></g>
<g><path style="opacity:1" fill="#1f0089" d="M 800.5,281.5 C 842.672,278.832 865.005,298.665 867.5,341C 864.434,383.404 841.767,402.737 799.5,399C 790.307,397.321 782.473,393.154 776,386.5C 775.5,405.497 775.333,424.497 775.5,443.5C 765.5,443.5 755.5,443.5 745.5,443.5C 745.5,390.167 745.5,336.833 745.5,283.5C 754.833,283.5 764.167,283.5 773.5,283.5C 773.754,287.939 774.588,292.272 776,296.5C 782.755,289.046 790.921,284.046 800.5,281.5 Z M 802.5,308.5 C 827.591,310.625 838.424,324.292 835,349.5C 827.78,368.693 814.28,375.527 794.5,370C 779.044,361.659 773.21,348.826 777,331.5C 781.004,318.655 789.504,310.988 802.5,308.5 Z"/></g>
<g><path style="opacity:1" fill="#1f0089" d="M 929.5,281.5 C 960.508,277.251 983.008,288.917 997,316.5C 1005.43,339.849 1002.43,361.516 988,381.5C 972.199,398.668 952.699,405.168 929.5,401C 905.444,395.277 890.277,380.444 884,356.5C 877.824,318.137 892.991,293.137 929.5,281.5 Z M 940.5,309.5 C 964.031,313.209 973.864,326.876 970,350.5C 962.703,370.898 948.87,377.398 928.5,370C 915.416,360.757 910.583,348.257 914,332.5C 918.101,319.223 926.935,311.557 940.5,309.5 Z"/></g>
<g><path style="opacity:1" fill="#1f0089" d="M 1299.5,355.5 C 1299.5,361.5 1299.5,367.5 1299.5,373.5C 1290.82,391.857 1276.15,400.523 1255.5,399.5C 1233.98,400.239 1217.31,391.739 1205.5,374C 1211.36,367.306 1218.03,361.473 1225.5,356.5C 1234.45,369.644 1246.79,375.144 1262.5,373C 1273.07,367.455 1273.07,362.121 1262.5,357C 1248.04,354.514 1234.37,349.847 1221.5,343C 1210.87,334.345 1207.03,323.179 1210,309.5C 1213.37,297.131 1221.2,288.965 1233.5,285C 1258.57,277.389 1279.74,283.222 1297,302.5C 1297.98,303.759 1298.32,305.092 1298,306.5C 1291.96,312.209 1285.63,317.543 1279,322.5C 1268.81,308.204 1255.81,304.87 1240,312.5C 1237.29,317.304 1238.46,320.804 1243.5,323C 1258.4,326.412 1272.74,331.412 1286.5,338C 1292.93,342.392 1297.26,348.225 1299.5,355.5 Z"/></g>
<g><path style="opacity:1" fill="#1f0089" d="M 1019.5,283.5 C 1028.83,283.5 1038.17,283.5 1047.5,283.5C 1048.47,289.192 1049.64,294.859 1051,300.5C 1056.5,295 1062,289.5 1067.5,284C 1075.83,283.5 1084.16,283.334 1092.5,283.5C 1092.5,292.833 1092.5,302.167 1092.5,311.5C 1078.5,311.5 1064.5,311.5 1050.5,311.5C 1050.5,340.167 1050.5,368.833 1050.5,397.5C 1040.17,397.5 1029.83,397.5 1019.5,397.5C 1019.5,359.5 1019.5,321.5 1019.5,283.5 Z"/></g>
</svg>
