<svg width="1146" height="313" viewBox="0 0 1146 313" fill="none" xmlns="http://www.w3.org/2000/svg">
<g clip-path="url(#clip0_78_15)">
<path d="M995.96 120.62C995.96 154.57 973.53 183.78 926.26 183.78C882.88 183.78 858.91 156.08 858.91 120.79C858.91 87.66 882.14 58.02 928.04 58.02C971.45 58.02 995.97 86.52 995.97 120.61M900.1 120.2C900.1 141.11 908.42 156.63 928.13 156.63C947.84 156.63 954.75 138.91 954.75 120.91C954.75 100.04 947.37 84.69 927.05 84.69C906.73 84.69 900.1 100.58 900.1 120.22" fill="white"/>
<path d="M1144.9 140.23C1139.41 165.59 1119.07 183.78 1080.42 183.78C1035.86 183.78 1013.48 155.3 1013.48 120.83C1013.48 86.36 1035.51 58.02 1082.07 58.02C1122.83 58.02 1142.05 79.3 1145.2 101.1H1105.78C1104.09 94.43 1099.11 84.58 1081.92 84.58C1063.66 84.58 1054.69 98.9 1054.69 120.01C1054.69 139.17 1061.81 156.87 1082.03 156.87C1096.61 156.87 1102.59 150.46 1106.03 140.25H1144.92L1144.9 140.23Z" fill="white"/>
<path d="M513.56 60.76H462.61L417.13 181.03H456.34L463.95 158.6H511.87L520.03 181.03H562.03L513.56 60.76ZM473.31 130.77L487.61 88.48L502.42 130.77H473.31Z" fill="white"/>
<path d="M676.62 124.08C688.38 120.03 697.37 110.76 697.37 95.28C697.37 75.37 681.75 60.76 651.87 60.76H582.35V181.03H620.73V136.79H635.78C640.91 136.79 645.54 137.64 648.92 138.99C650.2 139.5 651.3 140.11 652.19 140.76C652.583 141.047 652.583 141.047 652.19 140.76C652.47 140.96 652.72 141.17 652.96 141.39C652.96 141.39 652.98 141.41 653 141.43C653.22 141.63 653.39 141.84 653.57 142.06C653.59 142.1 653.63 142.12 653.65 142.14C653.81 142.34 653.91 142.53 654.02 142.73C654.04 142.79 654.1 142.83 654.12 142.89C654.22 143.09 654.28 143.28 654.34 143.46C654.34 143.52 654.4 143.58 654.42 143.66C654.48 143.92 654.52 144.17 654.52 144.45V181.06H694.22V153.07C694.22 132.67 683.16 126.91 676.67 124.13M641.48 111.82H620.77V86.72H641.48C652.63 86.72 658.08 91.24 658.08 99.25C658.08 107.94 652.12 111.84 641.48 111.84" fill="white"/>
<path d="M298.93 60.76V83.38V88.47V94.35H338.6V181.03H377.69V94.35H417.13V88.47V83.38V60.76H298.93Z" fill="white"/>
<path d="M806.25 60.76H806.21V81.99C806.21 89.78 806.21 97.86 806.25 105.48V132.25L796.34 115.8C789.47 103.68 779.74 87.51 763.19 60.76H717.65V181.03H752.9V151.78C752.9 141.87 752.9 133.33 752.8 125.72V105.44L752.86 105.48L798.36 181.04H841.4V60.76H806.25Z" fill="white"/>
<path d="M206.34 0L165.71 40.63C188.15 63.07 188.15 99.44 165.71 121.88L206.34 162.51C251.22 117.63 251.22 44.88 206.34 0Z" fill="url(#paint0_linear_78_15)"/>
<path d="M0 37.42L40.63 78.05C63.07 55.61 99.44 55.61 121.88 78.05L162.51 37.42C117.63 -7.45999 44.88 -7.45999 0 37.42Z" fill="url(#paint1_linear_78_15)"/>
<path d="M78.05 121.88L37.42 81.25C-7.45999 126.13 -7.45999 198.88 37.42 243.73L78.05 203.1C55.61 180.66 55.61 144.29 78.05 121.85" fill="url(#paint2_linear_78_15)"/>
<path d="M203.14 165.71C180.76 188.09 144.52 188.15 122.08 165.87L121.89 165.71L81.26 206.34C126.14 251.22 198.89 251.22 243.77 206.34L203.14 165.71Z" fill="url(#paint3_linear_78_15)"/>
<path d="M327.37 301.69C324.07 301.69 321.26 301.15 318.95 300.08C316.63 299 314.83 297.51 313.54 295.6C312.25 293.69 311.51 291.54 311.32 289.15L316.27 288.79C316.56 291.32 317.62 293.35 319.46 294.88C321.3 296.41 323.94 297.17 327.38 297.17C330.39 297.17 332.73 296.67 334.41 295.66C336.08 294.66 336.92 293.1 336.92 291C336.92 289.85 336.67 288.89 336.17 288.1C335.67 287.31 334.65 286.62 333.12 286.02C331.59 285.42 329.3 284.86 326.24 284.34C322.66 283.67 319.86 282.87 317.85 281.94C315.84 281.01 314.43 279.84 313.62 278.43C312.81 277.02 312.4 275.34 312.4 273.38C312.4 269.99 313.62 267.24 316.06 265.14C318.5 263.04 321.89 261.99 326.24 261.99C329.2 261.99 331.72 262.54 333.8 263.64C335.88 264.74 337.52 266.19 338.71 267.98C339.9 269.77 340.69 271.74 341.08 273.89L336.13 274.32C335.84 272.84 335.29 271.51 334.48 270.34C333.67 269.17 332.57 268.24 331.18 267.54C329.79 266.85 328.12 266.5 326.16 266.5C323.29 266.5 321.11 267.11 319.6 268.33C318.09 269.55 317.34 271.16 317.34 273.17C317.34 274.56 317.65 275.69 318.27 276.58C318.89 277.46 319.92 278.18 321.35 278.73C322.78 279.28 324.77 279.77 327.3 280.2C331.08 280.82 334.03 281.6 336.15 282.53C338.28 283.46 339.77 284.61 340.63 285.97C341.49 287.33 341.92 288.99 341.92 290.95C341.92 293.24 341.3 295.19 340.06 296.79C338.82 298.39 337.11 299.61 334.93 300.45C332.75 301.29 330.23 301.71 327.37 301.71V301.69Z" fill="white"/>
<path d="M370.02 301.69C366.24 301.69 363.22 300.41 360.95 297.85C358.68 295.29 357.54 291.77 357.54 287.28V262.84H362.27V285.85C362.27 289.77 363.02 292.68 364.53 294.6C366.04 296.51 368.27 297.47 371.23 297.47C374.53 297.47 377.12 296.39 379.01 294.24C380.9 292.09 381.84 289.18 381.84 285.49V262.84H386.57V300.83H382.13L382.06 291.08L382.78 291.44C382.16 294.69 380.74 297.21 378.51 299C376.29 300.79 373.46 301.69 370.01 301.69H370.02Z" fill="white"/>
<path d="M405.51 311.58V262.83H409.81L409.95 272.44L409.16 272.08C410.12 268.78 411.76 266.27 414.11 264.55C416.45 262.83 419.17 261.97 422.28 261.97C425.86 261.97 428.84 262.87 431.2 264.66C433.56 266.45 435.36 268.84 436.58 271.83C437.8 274.82 438.41 278.15 438.41 281.83C438.41 285.51 437.81 288.84 436.62 291.83C435.42 294.82 433.63 297.21 431.24 299C428.85 300.79 425.86 301.69 422.28 301.69C420.18 301.69 418.23 301.27 416.44 300.43C414.65 299.59 413.14 298.46 411.92 297.02C410.7 295.59 409.88 293.96 409.45 292.15L410.24 291.22V311.58H405.51ZM421.92 297.18C425.46 297.18 428.25 295.82 430.31 293.09C432.36 290.37 433.39 286.62 433.39 281.84C433.39 277.06 432.36 273.31 430.31 270.59C428.26 267.87 425.44 266.5 421.85 266.5C419.51 266.5 417.46 267.11 415.72 268.33C413.97 269.55 412.63 271.31 411.67 273.6C410.71 275.89 410.24 278.64 410.24 281.84C410.24 285.04 410.72 287.79 411.67 290.08C412.63 292.37 413.99 294.13 415.76 295.35C417.53 296.57 419.58 297.18 421.92 297.18Z" fill="white"/>
<path d="M468.59 301.69C464.96 301.69 461.88 300.84 459.34 299.14C456.81 297.44 454.86 295.1 453.5 292.12C452.14 289.13 451.46 285.7 451.46 281.83C451.46 277.96 452.13 274.53 453.47 271.54C454.81 268.55 456.73 266.21 459.24 264.52C461.75 262.82 464.77 261.97 468.31 261.97C471.85 261.97 474.64 262.78 477.13 264.41C479.61 266.04 481.51 268.33 482.83 271.29C484.14 274.25 484.8 277.72 484.8 281.69V283.2H456.41C456.6 287.69 457.77 291.15 459.92 293.56C462.07 295.97 464.96 297.18 468.59 297.18C471.36 297.18 473.63 296.51 475.4 295.17C477.17 293.83 478.39 292.06 479.06 289.87L484.15 290.23C483.19 293.58 481.35 296.32 478.63 298.47C475.91 300.62 472.56 301.7 468.59 301.7V301.69ZM456.41 278.97H479.64C479.4 274.91 478.28 271.81 476.27 269.69C474.26 267.56 471.61 266.5 468.31 266.5C465.01 266.5 462.31 267.58 460.21 269.73C458.11 271.88 456.84 274.96 456.41 278.98V278.97Z" fill="white"/>
<path d="M500.42 300.83V262.84H504.51L504.8 273.24L504.15 272.88C504.77 269.49 505.89 266.97 507.52 265.32C509.15 263.67 511.39 262.85 514.26 262.85H517.56V267.44H514.12C512.21 267.44 510.58 267.86 509.25 268.69C507.91 269.53 506.9 270.71 506.2 272.24C505.51 273.77 505.16 275.59 505.16 277.69V300.84H500.43L500.42 300.83Z" fill="white"/>
<path d="M545.44 301.69C541.9 301.69 538.87 300.84 536.34 299.14C533.81 297.44 531.86 295.1 530.5 292.12C529.14 289.13 528.46 285.7 528.46 281.83C528.46 277.96 529.14 274.53 530.5 271.54C531.86 268.55 533.81 266.21 536.34 264.52C538.87 262.82 541.91 261.97 545.44 261.97C548.35 261.97 550.91 262.5 553.11 263.55C555.31 264.6 557.1 266.11 558.49 268.07C559.88 270.03 560.81 272.35 561.29 275.02L556.34 275.31C555.77 272.49 554.54 270.32 552.65 268.79C550.76 267.26 548.36 266.5 545.45 266.5C541.72 266.5 538.78 267.87 536.63 270.62C534.48 273.37 533.4 277.11 533.4 281.84C533.4 286.57 534.48 290.31 536.63 293.06C538.78 295.81 541.72 297.18 545.45 297.18C548.36 297.18 550.79 296.36 552.73 294.71C554.67 293.06 555.9 290.68 556.42 287.58L561.37 287.94C560.89 290.71 559.95 293.13 558.54 295.18C557.13 297.24 555.33 298.84 553.13 299.98C550.93 301.13 548.37 301.7 545.46 301.7L545.44 301.69Z" fill="white"/>
<path d="M576.26 300.83V249.93H580.99V271.87L580.42 271.8C580.8 269.55 581.58 267.71 582.75 266.28C583.92 264.85 585.39 263.77 587.16 263.05C588.93 262.33 590.86 261.97 592.97 261.97C595.74 261.97 598.06 262.59 599.92 263.83C601.78 265.07 603.19 266.78 604.15 268.96C605.11 271.14 605.58 273.61 605.58 276.38V300.82H600.85V278.1C600.85 274.28 600.13 271.34 598.7 269.28C597.27 267.23 595 266.2 591.89 266.2C588.54 266.2 585.89 267.26 583.93 269.39C581.97 271.52 580.99 274.44 580.99 278.17V300.82H576.26V300.83Z" fill="white"/>
<path d="M633.83 301.69C630.01 301.69 626.95 300.77 624.65 298.93C622.36 297.09 621.21 294.59 621.21 291.44C621.21 288.29 622.21 285.8 624.22 283.98C626.23 282.16 629.17 280.9 633.04 280.18L647.09 277.53C647.09 273.76 646.28 270.97 644.65 269.18C643.02 267.39 640.56 266.49 637.27 266.49C634.35 266.49 632.04 267.18 630.32 268.57C628.6 269.96 627.45 271.92 626.88 274.45L621.86 274.02C622.58 270.34 624.26 267.41 626.91 265.24C629.56 263.07 633.02 261.98 637.27 261.98C642 261.98 645.61 263.32 648.09 265.99C650.57 268.67 651.82 272.49 651.82 277.46V293.3C651.82 294.59 652.02 295.46 652.43 295.92C652.84 296.37 653.49 296.6 654.4 296.6H655.55V300.83C655.36 300.88 655.08 300.91 654.73 300.94C654.37 300.96 654 300.98 653.62 300.98C652.14 300.98 650.91 300.72 649.93 300.19C648.95 299.66 648.23 298.8 647.78 297.61C647.33 296.42 647.1 294.77 647.1 292.66L647.67 292.73C647.24 294.4 646.37 295.92 645.05 297.28C643.73 298.64 642.1 299.72 640.14 300.51C638.18 301.3 636.08 301.69 633.83 301.69ZM634.26 297.46C636.89 297.46 639.16 296.93 641.07 295.88C642.98 294.83 644.46 293.41 645.51 291.61C646.56 289.82 647.09 287.8 647.09 285.55V281.75L634.04 284.19C631.32 284.72 629.32 285.53 628.05 286.63C626.78 287.73 626.15 289.19 626.15 291C626.15 293.06 626.87 294.65 628.3 295.77C629.73 296.89 631.72 297.46 634.25 297.46H634.26Z" fill="white"/>
<path d="M669.89 300.83V262.84H673.98L674.27 273.24L673.62 272.88C674.24 269.49 675.36 266.97 676.99 265.32C678.61 263.67 680.86 262.85 683.73 262.85H687.03V267.44H683.59C681.68 267.44 680.05 267.86 678.72 268.69C677.38 269.53 676.37 270.71 675.67 272.24C674.98 273.77 674.63 275.59 674.63 277.69V300.84H669.9L669.89 300.83Z" fill="white"/>
<path d="M714.55 312.45C711.87 312.45 709.45 311.98 707.27 311.05C705.09 310.12 703.31 308.82 701.93 307.14C700.54 305.47 699.66 303.53 699.28 301.33L704.23 301.04C704.66 303.09 705.71 304.76 707.38 306.02C709.05 307.29 711.44 307.92 714.55 307.92C718.23 307.92 721.06 307.06 723.04 305.34C725.02 303.62 726.02 301.11 726.02 297.81V291.29C725.06 293.58 723.53 295.42 721.43 296.81C719.33 298.2 716.91 298.89 714.19 298.89C710.99 298.89 708.16 298.11 705.69 296.56C703.23 295.01 701.32 292.84 699.96 290.07C698.6 287.3 697.92 284.07 697.92 280.39C697.92 276.71 698.6 273.5 699.96 270.75C701.32 268 703.21 265.85 705.62 264.3C708.03 262.75 710.82 261.97 713.97 261.97C716.88 261.97 719.43 262.7 721.6 264.16C723.77 265.62 725.32 267.54 726.22 269.93V262.83H730.74V297.81C730.74 300.82 730.09 303.43 728.8 305.62C727.51 307.82 725.66 309.5 723.24 310.67C720.83 311.84 717.92 312.43 714.53 312.43L714.55 312.45ZM714.41 294.38C717.9 294.38 720.71 293.13 722.83 290.62C724.96 288.11 726.02 284.71 726.02 280.4C726.07 277.63 725.61 275.2 724.66 273.12C723.7 271.04 722.34 269.42 720.57 268.25C718.8 267.08 716.75 266.49 714.41 266.49C710.83 266.49 708.01 267.75 705.95 270.25C703.89 272.76 702.87 276.14 702.87 280.39C702.87 284.64 703.91 288.1 705.99 290.61C708.07 293.12 710.88 294.37 714.41 294.37V294.38Z" fill="white"/>
<path d="M763.51 301.69C759.88 301.69 756.8 300.84 754.26 299.14C751.73 297.44 749.78 295.1 748.42 292.12C747.06 289.13 746.38 285.7 746.38 281.83C746.38 277.96 747.05 274.53 748.39 271.54C749.73 268.55 751.65 266.21 754.16 264.52C756.67 262.82 759.69 261.97 763.23 261.97C766.77 261.97 769.56 262.78 772.05 264.41C774.53 266.04 776.43 268.33 777.75 271.29C779.06 274.25 779.72 277.72 779.72 281.69V283.2H751.33C751.52 287.69 752.69 291.15 754.84 293.56C756.99 295.97 759.88 297.18 763.51 297.18C766.28 297.18 768.55 296.51 770.32 295.17C772.09 293.83 773.31 292.06 773.98 289.87L779.07 290.23C778.11 293.58 776.27 296.32 773.55 298.47C770.83 300.62 767.48 301.7 763.51 301.7V301.69ZM751.32 278.97H774.55C774.31 274.91 773.19 271.81 771.18 269.69C769.17 267.56 766.52 266.5 763.22 266.5C759.92 266.5 757.22 267.58 755.12 269.73C753.02 271.88 751.75 274.96 751.32 278.98V278.97Z" fill="white"/>
<path d="M808.75 301.69C805.45 301.69 802.61 300.88 800.22 299.25C797.83 297.63 795.99 295.33 794.7 292.37C793.41 289.41 792.76 285.89 792.76 281.83C792.76 277.77 793.41 274.26 794.7 271.29C795.99 268.33 797.83 266.03 800.22 264.41C802.61 262.79 805.45 261.97 808.75 261.97C811.52 261.97 813.99 262.65 816.17 264.01C818.34 265.37 819.93 267.2 820.94 269.49V249.92H825.67V300.82H821.51L821.3 293.72C820.25 296.21 818.59 298.15 816.32 299.56C814.05 300.97 811.53 301.67 808.76 301.67L808.75 301.69ZM809.53 297.18C811.92 297.18 813.96 296.55 815.66 295.28C817.36 294.01 818.66 292.22 819.57 289.9C820.48 287.58 820.93 284.89 820.93 281.84C820.93 278.79 820.48 276.11 819.57 273.81C818.66 271.52 817.36 269.72 815.66 268.43C813.96 267.14 811.92 266.49 809.53 266.49C805.95 266.49 803.08 267.86 800.93 270.61C798.78 273.36 797.7 277.1 797.7 281.83C797.7 286.56 798.78 290.24 800.93 293.01C803.08 295.78 805.95 297.17 809.53 297.17V297.18Z" fill="white"/>
<path d="M869.68 300.83V249.93H874.41V271.87L873.84 271.8C874.22 269.55 875 267.71 876.17 266.28C877.34 264.85 878.81 263.77 880.58 263.05C882.35 262.33 884.28 261.97 886.39 261.97C889.16 261.97 891.48 262.59 893.34 263.83C895.2 265.07 896.61 266.78 897.57 268.96C898.52 271.14 899 273.61 899 276.38V300.82H894.27V278.1C894.27 274.28 893.55 271.34 892.12 269.28C890.69 267.23 888.42 266.2 885.31 266.2C881.96 266.2 879.31 267.26 877.35 269.39C875.39 271.52 874.41 274.44 874.41 278.17V300.82H869.68V300.83Z" fill="white"/>
<path d="M931.62 301.69C927.99 301.69 924.9 300.84 922.37 299.14C919.84 297.44 917.89 295.1 916.53 292.12C915.17 289.13 914.49 285.7 914.49 281.83C914.49 277.96 915.16 274.53 916.5 271.54C917.84 268.55 919.76 266.21 922.27 264.52C924.78 262.82 927.8 261.97 931.34 261.97C934.88 261.97 937.67 262.78 940.16 264.41C942.64 266.04 944.54 268.33 945.86 271.29C947.17 274.25 947.83 277.72 947.83 281.69V283.2H919.44C919.63 287.69 920.8 291.15 922.95 293.56C925.1 295.97 927.99 297.18 931.62 297.18C934.39 297.18 936.66 296.51 938.43 295.17C940.2 293.83 941.42 292.06 942.09 289.87L947.18 290.23C946.22 293.58 944.38 296.32 941.66 298.47C938.94 300.62 935.59 301.7 931.62 301.7V301.69ZM919.43 278.97H942.66C942.42 274.91 941.3 271.81 939.29 269.69C937.28 267.56 934.63 266.5 931.33 266.5C928.03 266.5 925.33 267.58 923.23 269.73C921.13 271.88 919.86 274.96 919.43 278.98V278.97Z" fill="white"/>
<path d="M974.48 301.69C970.66 301.69 967.6 300.77 965.3 298.93C963.01 297.09 961.86 294.59 961.86 291.44C961.86 288.29 962.86 285.8 964.87 283.98C966.88 282.16 969.82 280.9 973.69 280.18L987.74 277.53C987.74 273.76 986.93 270.97 985.3 269.18C983.67 267.39 981.21 266.49 977.92 266.49C975 266.49 972.69 267.18 970.97 268.57C969.25 269.96 968.1 271.92 967.53 274.45L962.51 274.02C963.23 270.34 964.91 267.41 967.56 265.24C970.21 263.07 973.66 261.98 977.92 261.98C982.65 261.98 986.26 263.32 988.74 265.99C991.22 268.67 992.47 272.49 992.47 277.46V293.3C992.47 294.59 992.67 295.46 993.08 295.92C993.49 296.37 994.14 296.6 995.05 296.6H996.2V300.83C996.01 300.88 995.73 300.91 995.38 300.94C995.02 300.96 994.65 300.98 994.27 300.98C992.79 300.98 991.56 300.72 990.58 300.19C989.6 299.66 988.88 298.8 988.43 297.61C987.98 296.42 987.75 294.77 987.75 292.66L988.32 292.73C987.89 294.4 987.02 295.92 985.7 297.28C984.38 298.64 982.75 299.72 980.79 300.51C978.83 301.3 976.73 301.69 974.48 301.69ZM974.91 297.46C977.54 297.46 979.81 296.93 981.72 295.88C983.63 294.83 985.11 293.41 986.16 291.61C987.21 289.82 987.74 287.8 987.74 285.55V281.75L974.69 284.19C971.97 284.72 969.97 285.53 968.7 286.63C967.43 287.73 966.8 289.19 966.8 291C966.8 293.06 967.52 294.65 968.95 295.77C970.38 296.89 972.37 297.46 974.9 297.46H974.91Z" fill="white"/>
<path d="M1006.6 267.07V262.84H1027.1V267.07H1006.6ZM1021.65 300.83C1018.54 300.83 1016.25 300.1 1014.77 298.64C1013.29 297.18 1012.55 294.95 1012.55 291.94V253.95H1017.28V291.8C1017.28 293.57 1017.67 294.81 1018.46 295.53C1019.25 296.25 1020.45 296.61 1022.08 296.61H1027.1V300.84H1021.65V300.83Z" fill="white"/>
<path d="M1042.16 256.53V250.15H1047.18V256.53H1042.16ZM1042.3 300.83V262.84H1047.03V300.83H1042.3Z" fill="white"/>
<path d="M1066.6 300.83V262.84H1070.9L1071.11 272.8L1070.54 272.37C1070.92 270.03 1071.72 268.09 1072.94 266.56C1074.16 265.03 1075.65 263.88 1077.42 263.12C1079.19 262.36 1081.1 261.97 1083.16 261.97C1086.07 261.97 1088.48 262.62 1090.36 263.91C1092.25 265.2 1093.65 266.93 1094.55 269.11C1095.46 271.29 1095.91 273.71 1095.91 276.39V300.83H1091.18V278.11C1091.18 275.63 1090.88 273.5 1090.28 271.73C1089.68 269.96 1088.71 268.6 1087.38 267.64C1086.04 266.68 1084.3 266.21 1082.15 266.21C1078.9 266.21 1076.28 267.26 1074.3 269.36C1072.32 271.46 1071.33 274.38 1071.33 278.11V300.83H1066.6Z" fill="white"/>
<path d="M1128.04 312.45C1125.36 312.45 1122.94 311.98 1120.76 311.05C1118.58 310.12 1116.81 308.82 1115.42 307.14C1114.03 305.47 1113.15 303.53 1112.77 301.33L1117.72 301.04C1118.15 303.09 1119.2 304.76 1120.87 306.02C1122.54 307.29 1124.93 307.92 1128.04 307.92C1131.72 307.92 1134.55 307.06 1136.54 305.34C1138.52 303.62 1139.51 301.11 1139.51 297.81V291.29C1138.55 293.58 1137.02 295.42 1134.92 296.81C1132.82 298.2 1130.4 298.89 1127.68 298.89C1124.48 298.89 1121.65 298.11 1119.19 296.56C1116.73 295.01 1114.82 292.84 1113.45 290.07C1112.09 287.3 1111.41 284.07 1111.41 280.39C1111.41 276.71 1112.09 273.5 1113.45 270.75C1114.81 268 1116.7 265.85 1119.11 264.3C1121.52 262.75 1124.31 261.97 1127.46 261.97C1130.37 261.97 1132.92 262.7 1135.09 264.16C1137.26 265.62 1138.81 267.54 1139.71 269.93V262.83H1144.23V297.81C1144.23 300.82 1143.58 303.43 1142.29 305.62C1141 307.82 1139.15 309.5 1136.73 310.67C1134.32 311.84 1131.41 312.43 1128.02 312.43L1128.04 312.45ZM1127.89 294.38C1131.38 294.38 1134.19 293.13 1136.31 290.62C1138.44 288.11 1139.5 284.71 1139.5 280.4C1139.55 277.63 1139.09 275.2 1138.14 273.12C1137.18 271.04 1135.82 269.42 1134.05 268.25C1132.28 267.08 1130.23 266.49 1127.89 266.49C1124.31 266.49 1121.48 267.75 1119.43 270.25C1117.37 272.76 1116.35 276.14 1116.35 280.39C1116.35 284.64 1117.39 288.1 1119.47 290.61C1121.55 293.12 1124.36 294.37 1127.89 294.37V294.38Z" fill="white"/>
<path d="M995.96 120.62C995.96 154.57 973.53 183.78 926.26 183.78C882.88 183.78 858.91 156.08 858.91 120.79C858.91 87.66 882.14 58.02 928.04 58.02C971.45 58.02 995.97 86.52 995.97 120.61M900.1 120.2C900.1 141.11 908.42 156.63 928.13 156.63C947.84 156.63 954.75 138.91 954.75 120.91C954.75 100.04 947.37 84.69 927.05 84.69C906.73 84.69 900.1 100.58 900.1 120.22" fill="white"/>
<path d="M1144.9 140.23C1139.41 165.59 1119.07 183.78 1080.42 183.78C1035.86 183.78 1013.48 155.3 1013.48 120.83C1013.48 86.36 1035.51 58.02 1082.07 58.02C1122.83 58.02 1142.05 79.3 1145.2 101.1H1105.78C1104.09 94.43 1099.11 84.58 1081.92 84.58C1063.66 84.58 1054.69 98.9 1054.69 120.01C1054.69 139.17 1061.81 156.87 1082.03 156.87C1096.61 156.87 1102.59 150.46 1106.03 140.25H1144.92L1144.9 140.23Z" fill="white"/>
<path d="M513.56 60.76H462.61L417.13 181.03H456.34L463.95 158.6H511.87L520.03 181.03H562.03L513.56 60.76ZM473.31 130.77L487.61 88.48L502.42 130.77H473.31Z" fill="white"/>
<path d="M676.62 124.08C688.38 120.03 697.37 110.76 697.37 95.28C697.37 75.37 681.75 60.76 651.87 60.76H582.35V181.03H620.73V136.79H635.78C640.91 136.79 645.54 137.64 648.92 138.99C650.2 139.5 651.3 140.11 652.19 140.76C652.583 141.047 652.583 141.047 652.19 140.76C652.47 140.96 652.72 141.17 652.96 141.39C652.96 141.39 652.98 141.41 653 141.43C653.22 141.63 653.39 141.84 653.57 142.06C653.59 142.1 653.63 142.12 653.65 142.14C653.81 142.34 653.91 142.53 654.02 142.73C654.04 142.79 654.1 142.83 654.12 142.89C654.22 143.09 654.28 143.28 654.34 143.46C654.34 143.52 654.4 143.58 654.42 143.66C654.48 143.92 654.52 144.17 654.52 144.45V181.06H694.22V153.07C694.22 132.67 683.16 126.91 676.67 124.13M641.48 111.82H620.77V86.72H641.48C652.63 86.72 658.08 91.24 658.08 99.25C658.08 107.94 652.12 111.84 641.48 111.84" fill="white"/>
<path d="M298.93 60.76V83.38V88.47V94.35H338.6V181.03H377.69V94.35H417.13V88.47V83.38V60.76H298.93Z" fill="white"/>
<path d="M806.25 60.76H806.21V81.99C806.21 89.78 806.21 97.86 806.25 105.48V132.25L796.34 115.8C789.47 103.68 779.74 87.51 763.19 60.76H717.65V181.03H752.9V151.78C752.9 141.87 752.9 133.33 752.8 125.72V105.44L752.86 105.48L798.36 181.04H841.4V60.76H806.25Z" fill="white"/>
<path d="M206.34 0L165.71 40.63C188.15 63.07 188.15 99.44 165.71 121.88L206.34 162.51C251.22 117.63 251.22 44.88 206.34 0Z" fill="url(#paint4_linear_78_15)"/>
<path d="M0 37.42L40.63 78.05C63.07 55.61 99.44 55.61 121.88 78.05L162.51 37.42C117.63 -7.45999 44.88 -7.45999 0 37.42Z" fill="url(#paint5_linear_78_15)"/>
<path d="M78.05 121.88L37.42 81.25C-7.45999 126.13 -7.45999 198.88 37.42 243.73L78.05 203.1C55.61 180.66 55.61 144.29 78.05 121.85" fill="url(#paint6_linear_78_15)"/>
<path d="M203.14 165.71C180.76 188.09 144.52 188.15 122.08 165.87L121.89 165.71L81.26 206.34C126.14 251.22 198.89 251.22 243.77 206.34L203.14 165.71Z" fill="url(#paint7_linear_78_15)"/>
<path d="M327.37 301.69C324.07 301.69 321.26 301.15 318.95 300.08C316.63 299 314.83 297.51 313.54 295.6C312.25 293.69 311.51 291.54 311.32 289.15L316.27 288.79C316.56 291.32 317.62 293.35 319.46 294.88C321.3 296.41 323.94 297.17 327.38 297.17C330.39 297.17 332.73 296.67 334.41 295.66C336.08 294.66 336.92 293.1 336.92 291C336.92 289.85 336.67 288.89 336.17 288.1C335.67 287.31 334.65 286.62 333.12 286.02C331.59 285.42 329.3 284.86 326.24 284.34C322.66 283.67 319.86 282.87 317.85 281.94C315.84 281.01 314.43 279.84 313.62 278.43C312.81 277.02 312.4 275.34 312.4 273.38C312.4 269.99 313.62 267.24 316.06 265.14C318.5 263.04 321.89 261.99 326.24 261.99C329.2 261.99 331.72 262.54 333.8 263.64C335.88 264.74 337.52 266.19 338.71 267.98C339.9 269.77 340.69 271.74 341.08 273.89L336.13 274.32C335.84 272.84 335.29 271.51 334.48 270.34C333.67 269.17 332.57 268.24 331.18 267.54C329.79 266.85 328.12 266.5 326.16 266.5C323.29 266.5 321.11 267.11 319.6 268.33C318.09 269.55 317.34 271.16 317.34 273.17C317.34 274.56 317.65 275.69 318.27 276.58C318.89 277.46 319.92 278.18 321.35 278.73C322.78 279.28 324.77 279.77 327.3 280.2C331.08 280.82 334.03 281.6 336.15 282.53C338.28 283.46 339.77 284.61 340.63 285.97C341.49 287.33 341.92 288.99 341.92 290.95C341.92 293.24 341.3 295.19 340.06 296.79C338.82 298.39 337.11 299.61 334.93 300.45C332.75 301.29 330.23 301.71 327.37 301.71V301.69Z" fill="white"/>
<path d="M370.02 301.69C366.24 301.69 363.22 300.41 360.95 297.85C358.68 295.29 357.54 291.77 357.54 287.28V262.84H362.27V285.85C362.27 289.77 363.02 292.68 364.53 294.6C366.04 296.51 368.27 297.47 371.23 297.47C374.53 297.47 377.12 296.39 379.01 294.24C380.9 292.09 381.84 289.18 381.84 285.49V262.84H386.57V300.83H382.13L382.06 291.08L382.78 291.44C382.16 294.69 380.74 297.21 378.51 299C376.29 300.79 373.46 301.69 370.01 301.69H370.02Z" fill="white"/>
<path d="M405.51 311.58V262.83H409.81L409.95 272.44L409.16 272.08C410.12 268.78 411.76 266.27 414.11 264.55C416.45 262.83 419.17 261.97 422.28 261.97C425.86 261.97 428.84 262.87 431.2 264.66C433.56 266.45 435.36 268.84 436.58 271.83C437.8 274.82 438.41 278.15 438.41 281.83C438.41 285.51 437.81 288.84 436.62 291.83C435.42 294.82 433.63 297.21 431.24 299C428.85 300.79 425.86 301.69 422.28 301.69C420.18 301.69 418.23 301.27 416.44 300.43C414.65 299.59 413.14 298.46 411.92 297.02C410.7 295.59 409.88 293.96 409.45 292.15L410.24 291.22V311.58H405.51ZM421.92 297.18C425.46 297.18 428.25 295.82 430.31 293.09C432.36 290.37 433.39 286.62 433.39 281.84C433.39 277.06 432.36 273.31 430.31 270.59C428.26 267.87 425.44 266.5 421.85 266.5C419.51 266.5 417.46 267.11 415.72 268.33C413.97 269.55 412.63 271.31 411.67 273.6C410.71 275.89 410.24 278.64 410.24 281.84C410.24 285.04 410.72 287.79 411.67 290.08C412.63 292.37 413.99 294.13 415.76 295.35C417.53 296.57 419.58 297.18 421.92 297.18Z" fill="white"/>
<path d="M468.59 301.69C464.96 301.69 461.88 300.84 459.34 299.14C456.81 297.44 454.86 295.1 453.5 292.12C452.14 289.13 451.46 285.7 451.46 281.83C451.46 277.96 452.13 274.53 453.47 271.54C454.81 268.55 456.73 266.21 459.24 264.52C461.75 262.82 464.77 261.97 468.31 261.97C471.85 261.97 474.64 262.78 477.13 264.41C479.61 266.04 481.51 268.33 482.83 271.29C484.14 274.25 484.8 277.72 484.8 281.69V283.2H456.41C456.6 287.69 457.77 291.15 459.92 293.56C462.07 295.97 464.96 297.18 468.59 297.18C471.36 297.18 473.63 296.51 475.4 295.17C477.17 293.83 478.39 292.06 479.06 289.87L484.15 290.23C483.19 293.58 481.35 296.32 478.63 298.47C475.91 300.62 472.56 301.7 468.59 301.7V301.69ZM456.41 278.97H479.64C479.4 274.91 478.28 271.81 476.27 269.69C474.26 267.56 471.61 266.5 468.31 266.5C465.01 266.5 462.31 267.58 460.21 269.73C458.11 271.88 456.84 274.96 456.41 278.98V278.97Z" fill="white"/>
<path d="M500.42 300.83V262.84H504.51L504.8 273.24L504.15 272.88C504.77 269.49 505.89 266.97 507.52 265.32C509.15 263.67 511.39 262.85 514.26 262.85H517.56V267.44H514.12C512.21 267.44 510.58 267.86 509.25 268.69C507.91 269.53 506.9 270.71 506.2 272.24C505.51 273.77 505.16 275.59 505.16 277.69V300.84H500.43L500.42 300.83Z" fill="white"/>
<path d="M545.44 301.69C541.9 301.69 538.87 300.84 536.34 299.14C533.81 297.44 531.86 295.1 530.5 292.12C529.14 289.13 528.46 285.7 528.46 281.83C528.46 277.96 529.14 274.53 530.5 271.54C531.86 268.55 533.81 266.21 536.34 264.52C538.87 262.82 541.91 261.97 545.44 261.97C548.35 261.97 550.91 262.5 553.11 263.55C555.31 264.6 557.1 266.11 558.49 268.07C559.88 270.03 560.81 272.35 561.29 275.02L556.34 275.31C555.77 272.49 554.54 270.32 552.65 268.79C550.76 267.26 548.36 266.5 545.45 266.5C541.72 266.5 538.78 267.87 536.63 270.62C534.48 273.37 533.4 277.11 533.4 281.84C533.4 286.57 534.48 290.31 536.63 293.06C538.78 295.81 541.72 297.18 545.45 297.18C548.36 297.18 550.79 296.36 552.73 294.71C554.67 293.06 555.9 290.68 556.42 287.58L561.37 287.94C560.89 290.71 559.95 293.13 558.54 295.18C557.13 297.24 555.33 298.84 553.13 299.98C550.93 301.13 548.37 301.7 545.46 301.7L545.44 301.69Z" fill="white"/>
<path d="M576.26 300.83V249.93H580.99V271.87L580.42 271.8C580.8 269.55 581.58 267.71 582.75 266.28C583.92 264.85 585.39 263.77 587.16 263.05C588.93 262.33 590.86 261.97 592.97 261.97C595.74 261.97 598.06 262.59 599.92 263.83C601.78 265.07 603.19 266.78 604.15 268.96C605.11 271.14 605.58 273.61 605.58 276.38V300.82H600.85V278.1C600.85 274.28 600.13 271.34 598.7 269.28C597.27 267.23 595 266.2 591.89 266.2C588.54 266.2 585.89 267.26 583.93 269.39C581.97 271.52 580.99 274.44 580.99 278.17V300.82H576.26V300.83Z" fill="white"/>
<path d="M633.83 301.69C630.01 301.69 626.95 300.77 624.65 298.93C622.36 297.09 621.21 294.59 621.21 291.44C621.21 288.29 622.21 285.8 624.22 283.98C626.23 282.16 629.17 280.9 633.04 280.18L647.09 277.53C647.09 273.76 646.28 270.97 644.65 269.18C643.02 267.39 640.56 266.49 637.27 266.49C634.35 266.49 632.04 267.18 630.32 268.57C628.6 269.96 627.45 271.92 626.88 274.45L621.86 274.02C622.58 270.34 624.26 267.41 626.91 265.24C629.56 263.07 633.02 261.98 637.27 261.98C642 261.98 645.61 263.32 648.09 265.99C650.57 268.67 651.82 272.49 651.82 277.46V293.3C651.82 294.59 652.02 295.46 652.43 295.92C652.84 296.37 653.49 296.6 654.4 296.6H655.55V300.83C655.36 300.88 655.08 300.91 654.73 300.94C654.37 300.96 654 300.98 653.62 300.98C652.14 300.98 650.91 300.72 649.93 300.19C648.95 299.66 648.23 298.8 647.78 297.61C647.33 296.42 647.1 294.77 647.1 292.66L647.67 292.73C647.24 294.4 646.37 295.92 645.05 297.28C643.73 298.64 642.1 299.72 640.14 300.51C638.18 301.3 636.08 301.69 633.83 301.69ZM634.26 297.46C636.89 297.46 639.16 296.93 641.07 295.88C642.98 294.83 644.46 293.41 645.51 291.61C646.56 289.82 647.09 287.8 647.09 285.55V281.75L634.04 284.19C631.32 284.72 629.32 285.53 628.05 286.63C626.78 287.73 626.15 289.19 626.15 291C626.15 293.06 626.87 294.65 628.3 295.77C629.73 296.89 631.72 297.46 634.25 297.46H634.26Z" fill="white"/>
<path d="M669.89 300.83V262.84H673.98L674.27 273.24L673.62 272.88C674.24 269.49 675.36 266.97 676.99 265.32C678.61 263.67 680.86 262.85 683.73 262.85H687.03V267.44H683.59C681.68 267.44 680.05 267.86 678.72 268.69C677.38 269.53 676.37 270.71 675.67 272.24C674.98 273.77 674.63 275.59 674.63 277.69V300.84H669.9L669.89 300.83Z" fill="white"/>
<path d="M714.55 312.45C711.87 312.45 709.45 311.98 707.27 311.05C705.09 310.12 703.31 308.82 701.93 307.14C700.54 305.47 699.66 303.53 699.28 301.33L704.23 301.04C704.66 303.09 705.71 304.76 707.38 306.02C709.05 307.29 711.44 307.92 714.55 307.92C718.23 307.92 721.06 307.06 723.04 305.34C725.02 303.62 726.02 301.11 726.02 297.81V291.29C725.06 293.58 723.53 295.42 721.43 296.81C719.33 298.2 716.91 298.89 714.19 298.89C710.99 298.89 708.16 298.11 705.69 296.56C703.23 295.01 701.32 292.84 699.96 290.07C698.6 287.3 697.92 284.07 697.92 280.39C697.92 276.71 698.6 273.5 699.96 270.75C701.32 268 703.21 265.85 705.62 264.3C708.03 262.75 710.82 261.97 713.97 261.97C716.88 261.97 719.43 262.7 721.6 264.16C723.77 265.62 725.32 267.54 726.22 269.93V262.83H730.74V297.81C730.74 300.82 730.09 303.43 728.8 305.62C727.51 307.82 725.66 309.5 723.24 310.67C720.83 311.84 717.92 312.43 714.53 312.43L714.55 312.45ZM714.41 294.38C717.9 294.38 720.71 293.13 722.83 290.62C724.96 288.11 726.02 284.71 726.02 280.4C726.07 277.63 725.61 275.2 724.66 273.12C723.7 271.04 722.34 269.42 720.57 268.25C718.8 267.08 716.75 266.49 714.41 266.49C710.83 266.49 708.01 267.75 705.95 270.25C703.89 272.76 702.87 276.14 702.87 280.39C702.87 284.64 703.91 288.1 705.99 290.61C708.07 293.12 710.88 294.37 714.41 294.37V294.38Z" fill="white"/>
<path d="M763.51 301.69C759.88 301.69 756.8 300.84 754.26 299.14C751.73 297.44 749.78 295.1 748.42 292.12C747.06 289.13 746.38 285.7 746.38 281.83C746.38 277.96 747.05 274.53 748.39 271.54C749.73 268.55 751.65 266.21 754.16 264.52C756.67 262.82 759.69 261.97 763.23 261.97C766.77 261.97 769.56 262.78 772.05 264.41C774.53 266.04 776.43 268.33 777.75 271.29C779.06 274.25 779.72 277.72 779.72 281.69V283.2H751.33C751.52 287.69 752.69 291.15 754.84 293.56C756.99 295.97 759.88 297.18 763.51 297.18C766.28 297.18 768.55 296.51 770.32 295.17C772.09 293.83 773.31 292.06 773.98 289.87L779.07 290.23C778.11 293.58 776.27 296.32 773.55 298.47C770.83 300.62 767.48 301.7 763.51 301.7V301.69ZM751.32 278.97H774.55C774.31 274.91 773.19 271.81 771.18 269.69C769.17 267.56 766.52 266.5 763.22 266.5C759.92 266.5 757.22 267.58 755.12 269.73C753.02 271.88 751.75 274.96 751.32 278.98V278.97Z" fill="white"/>
<path d="M808.75 301.69C805.45 301.69 802.61 300.88 800.22 299.25C797.83 297.63 795.99 295.33 794.7 292.37C793.41 289.41 792.76 285.89 792.76 281.83C792.76 277.77 793.41 274.26 794.7 271.29C795.99 268.33 797.83 266.03 800.22 264.41C802.61 262.79 805.45 261.97 808.75 261.97C811.52 261.97 813.99 262.65 816.17 264.01C818.34 265.37 819.93 267.2 820.94 269.49V249.92H825.67V300.82H821.51L821.3 293.72C820.25 296.21 818.59 298.15 816.32 299.56C814.05 300.97 811.53 301.67 808.76 301.67L808.75 301.69ZM809.53 297.18C811.92 297.18 813.96 296.55 815.66 295.28C817.36 294.01 818.66 292.22 819.57 289.9C820.48 287.58 820.93 284.89 820.93 281.84C820.93 278.79 820.48 276.11 819.57 273.81C818.66 271.52 817.36 269.72 815.66 268.43C813.96 267.14 811.92 266.49 809.53 266.49C805.95 266.49 803.08 267.86 800.93 270.61C798.78 273.36 797.7 277.1 797.7 281.83C797.7 286.56 798.78 290.24 800.93 293.01C803.08 295.78 805.95 297.17 809.53 297.17V297.18Z" fill="white"/>
<path d="M869.68 300.83V249.93H874.41V271.87L873.84 271.8C874.22 269.55 875 267.71 876.17 266.28C877.34 264.85 878.81 263.77 880.58 263.05C882.35 262.33 884.28 261.97 886.39 261.97C889.16 261.97 891.48 262.59 893.34 263.83C895.2 265.07 896.61 266.78 897.57 268.96C898.52 271.14 899 273.61 899 276.38V300.82H894.27V278.1C894.27 274.28 893.55 271.34 892.12 269.28C890.69 267.23 888.42 266.2 885.31 266.2C881.96 266.2 879.31 267.26 877.35 269.39C875.39 271.52 874.41 274.44 874.41 278.17V300.82H869.68V300.83Z" fill="white"/>
<path d="M931.62 301.69C927.99 301.69 924.9 300.84 922.37 299.14C919.84 297.44 917.89 295.1 916.53 292.12C915.17 289.13 914.49 285.7 914.49 281.83C914.49 277.96 915.16 274.53 916.5 271.54C917.84 268.55 919.76 266.21 922.27 264.52C924.78 262.82 927.8 261.97 931.34 261.97C934.88 261.97 937.67 262.78 940.16 264.41C942.64 266.04 944.54 268.33 945.86 271.29C947.17 274.25 947.83 277.72 947.83 281.69V283.2H919.44C919.63 287.69 920.8 291.15 922.95 293.56C925.1 295.97 927.99 297.18 931.62 297.18C934.39 297.18 936.66 296.51 938.43 295.17C940.2 293.83 941.42 292.06 942.09 289.87L947.18 290.23C946.22 293.58 944.38 296.32 941.66 298.47C938.94 300.62 935.59 301.7 931.62 301.7V301.69ZM919.43 278.97H942.66C942.42 274.91 941.3 271.81 939.29 269.69C937.28 267.56 934.63 266.5 931.33 266.5C928.03 266.5 925.33 267.58 923.23 269.73C921.13 271.88 919.86 274.96 919.43 278.98V278.97Z" fill="white"/>
<path d="M974.48 301.69C970.66 301.69 967.6 300.77 965.3 298.93C963.01 297.09 961.86 294.59 961.86 291.44C961.86 288.29 962.86 285.8 964.87 283.98C966.88 282.16 969.82 280.9 973.69 280.18L987.74 277.53C987.74 273.76 986.93 270.97 985.3 269.18C983.67 267.39 981.21 266.49 977.92 266.49C975 266.49 972.69 267.18 970.97 268.57C969.25 269.96 968.1 271.92 967.53 274.45L962.51 274.02C963.23 270.34 964.91 267.41 967.56 265.24C970.21 263.07 973.66 261.98 977.92 261.98C982.65 261.98 986.26 263.32 988.74 265.99C991.22 268.67 992.47 272.49 992.47 277.46V293.3C992.47 294.59 992.67 295.46 993.08 295.92C993.49 296.37 994.14 296.6 995.05 296.6H996.2V300.83C996.01 300.88 995.73 300.91 995.38 300.94C995.02 300.96 994.65 300.98 994.27 300.98C992.79 300.98 991.56 300.72 990.58 300.19C989.6 299.66 988.88 298.8 988.43 297.61C987.98 296.42 987.75 294.77 987.75 292.66L988.32 292.73C987.89 294.4 987.02 295.92 985.7 297.28C984.38 298.64 982.75 299.72 980.79 300.51C978.83 301.3 976.73 301.69 974.48 301.69ZM974.91 297.46C977.54 297.46 979.81 296.93 981.72 295.88C983.63 294.83 985.11 293.41 986.16 291.61C987.21 289.82 987.74 287.8 987.74 285.55V281.75L974.69 284.19C971.97 284.72 969.97 285.53 968.7 286.63C967.43 287.73 966.8 289.19 966.8 291C966.8 293.06 967.52 294.65 968.95 295.77C970.38 296.89 972.37 297.46 974.9 297.46H974.91Z" fill="white"/>
<path d="M1006.6 267.07V262.84H1027.1V267.07H1006.6ZM1021.65 300.83C1018.54 300.83 1016.25 300.1 1014.77 298.64C1013.29 297.18 1012.55 294.95 1012.55 291.94V253.95H1017.28V291.8C1017.28 293.57 1017.67 294.81 1018.46 295.53C1019.25 296.25 1020.45 296.61 1022.08 296.61H1027.1V300.84H1021.65V300.83Z" fill="white"/>
<path d="M1042.16 256.53V250.15H1047.18V256.53H1042.16ZM1042.3 300.83V262.84H1047.03V300.83H1042.3Z" fill="white"/>
<path d="M1066.6 300.83V262.84H1070.9L1071.11 272.8L1070.54 272.37C1070.92 270.03 1071.72 268.09 1072.94 266.56C1074.16 265.03 1075.65 263.88 1077.42 263.12C1079.19 262.36 1081.1 261.97 1083.16 261.97C1086.07 261.97 1088.48 262.62 1090.36 263.91C1092.25 265.2 1093.65 266.93 1094.55 269.11C1095.46 271.29 1095.91 273.71 1095.91 276.39V300.83H1091.18V278.11C1091.18 275.63 1090.88 273.5 1090.28 271.73C1089.68 269.96 1088.71 268.6 1087.38 267.64C1086.04 266.68 1084.3 266.21 1082.15 266.21C1078.9 266.21 1076.28 267.26 1074.3 269.36C1072.32 271.46 1071.33 274.38 1071.33 278.11V300.83H1066.6Z" fill="white"/>
<path d="M1128.04 312.45C1125.36 312.45 1122.94 311.98 1120.76 311.05C1118.58 310.12 1116.81 308.82 1115.42 307.14C1114.03 305.47 1113.15 303.53 1112.77 301.33L1117.72 301.04C1118.15 303.09 1119.2 304.76 1120.87 306.02C1122.54 307.29 1124.93 307.92 1128.04 307.92C1131.72 307.92 1134.55 307.06 1136.54 305.34C1138.52 303.62 1139.51 301.11 1139.51 297.81V291.29C1138.55 293.58 1137.02 295.42 1134.92 296.81C1132.82 298.2 1130.4 298.89 1127.68 298.89C1124.48 298.89 1121.65 298.11 1119.19 296.56C1116.73 295.01 1114.82 292.84 1113.45 290.07C1112.09 287.3 1111.41 284.07 1111.41 280.39C1111.41 276.71 1112.09 273.5 1113.45 270.75C1114.81 268 1116.7 265.85 1119.11 264.3C1121.52 262.75 1124.31 261.97 1127.46 261.97C1130.37 261.97 1132.92 262.7 1135.09 264.16C1137.26 265.62 1138.81 267.54 1139.71 269.93V262.83H1144.23V297.81C1144.23 300.82 1143.58 303.43 1142.29 305.62C1141 307.82 1139.15 309.5 1136.73 310.67C1134.32 311.84 1131.41 312.43 1128.02 312.43L1128.04 312.45ZM1127.89 294.38C1131.38 294.38 1134.19 293.13 1136.31 290.62C1138.44 288.11 1139.5 284.71 1139.5 280.4C1139.55 277.63 1139.09 275.2 1138.14 273.12C1137.18 271.04 1135.82 269.42 1134.05 268.25C1132.28 267.08 1130.23 266.49 1127.89 266.49C1124.31 266.49 1121.48 267.75 1119.43 270.25C1117.37 272.76 1116.35 276.14 1116.35 280.39C1116.35 284.64 1117.39 288.1 1119.47 290.61C1121.55 293.12 1124.36 294.37 1127.89 294.37V294.38Z" fill="white"/>
</g>
<defs>
<linearGradient id="paint0_linear_78_15" x1="202.86" y1="0.91" x2="202.86" y2="160.17" gradientUnits="userSpaceOnUse">
<stop stop-color="#FF7120"/>
<stop offset="0.12" stop-color="#FF5519"/>
<stop offset="0.25" stop-color="#FF3F13"/>
<stop offset="0.37" stop-color="#FF3210"/>
<stop offset="0.49" stop-color="#FF2E0F"/>
<stop offset="0.54" stop-color="#EF2B0E" stop-opacity="0.94"/>
<stop offset="0.63" stop-color="#C7230B" stop-opacity="0.78"/>
<stop offset="0.76" stop-color="#861807" stop-opacity="0.53"/>
<stop offset="0.92" stop-color="#2D0802" stop-opacity="0.18"/>
<stop offset="1" stop-opacity="0"/>
</linearGradient>
<linearGradient id="paint1_linear_78_15" x1="0" y1="40.91" x2="162.51" y2="40.91" gradientUnits="userSpaceOnUse">
<stop stop-color="#FF7120"/>
<stop offset="0.12" stop-color="#FF5519"/>
<stop offset="0.25" stop-color="#FF3F13"/>
<stop offset="0.37" stop-color="#FF3210"/>
<stop offset="0.49" stop-color="#FF2E0F"/>
<stop offset="0.54" stop-color="#EF2B0E" stop-opacity="0.94"/>
<stop offset="0.63" stop-color="#C7230B" stop-opacity="0.78"/>
<stop offset="0.76" stop-color="#861807" stop-opacity="0.53"/>
<stop offset="0.92" stop-color="#2D0802" stop-opacity="0.18"/>
<stop offset="1" stop-opacity="0"/>
</linearGradient>
<linearGradient id="paint2_linear_78_15" x1="40.91" y1="224.19" x2="40.91" y2="104.46" gradientUnits="userSpaceOnUse">
<stop stop-color="#FF7120"/>
<stop offset="0.12" stop-color="#FF5519"/>
<stop offset="0.25" stop-color="#FF3F13"/>
<stop offset="0.37" stop-color="#FF3210"/>
<stop offset="0.49" stop-color="#FF2E0F"/>
<stop offset="0.54" stop-color="#EF2B0E" stop-opacity="0.94"/>
<stop offset="0.63" stop-color="#C7230B" stop-opacity="0.78"/>
<stop offset="0.76" stop-color="#861807" stop-opacity="0.53"/>
<stop offset="0.92" stop-color="#2D0802" stop-opacity="0.18"/>
<stop offset="1" stop-opacity="0"/>
</linearGradient>
<linearGradient id="paint3_linear_78_15" x1="245.55" y1="202.86" x2="87.49" y2="202.86" gradientUnits="userSpaceOnUse">
<stop stop-color="#FF7120"/>
<stop offset="0.12" stop-color="#FF5519"/>
<stop offset="0.25" stop-color="#FF3F13"/>
<stop offset="0.37" stop-color="#FF3210"/>
<stop offset="0.49" stop-color="#FF2E0F"/>
<stop offset="0.54" stop-color="#EF2B0E" stop-opacity="0.94"/>
<stop offset="0.63" stop-color="#C7230B" stop-opacity="0.78"/>
<stop offset="0.76" stop-color="#861807" stop-opacity="0.53"/>
<stop offset="0.92" stop-color="#2D0802" stop-opacity="0.18"/>
<stop offset="1" stop-opacity="0"/>
</linearGradient>
<linearGradient id="paint4_linear_78_15" x1="202.86" y1="0.91" x2="202.86" y2="160.17" gradientUnits="userSpaceOnUse">
<stop stop-color="#FF7120"/>
<stop offset="0.12" stop-color="#FF5519"/>
<stop offset="0.25" stop-color="#FF3F13"/>
<stop offset="0.37" stop-color="#FF3210"/>
<stop offset="0.49" stop-color="#FF2E0F"/>
<stop offset="0.54" stop-color="#EF2B0E" stop-opacity="0.94"/>
<stop offset="0.63" stop-color="#C7230B" stop-opacity="0.78"/>
<stop offset="0.76" stop-color="#861807" stop-opacity="0.53"/>
<stop offset="0.92" stop-color="#2D0802" stop-opacity="0.18"/>
<stop offset="1" stop-opacity="0"/>
</linearGradient>
<linearGradient id="paint5_linear_78_15" x1="0" y1="40.91" x2="162.51" y2="40.91" gradientUnits="userSpaceOnUse">
<stop stop-color="#FF7120"/>
<stop offset="0.12" stop-color="#FF5519"/>
<stop offset="0.25" stop-color="#FF3F13"/>
<stop offset="0.37" stop-color="#FF3210"/>
<stop offset="0.49" stop-color="#FF2E0F"/>
<stop offset="0.54" stop-color="#EF2B0E" stop-opacity="0.94"/>
<stop offset="0.63" stop-color="#C7230B" stop-opacity="0.78"/>
<stop offset="0.76" stop-color="#861807" stop-opacity="0.53"/>
<stop offset="0.92" stop-color="#2D0802" stop-opacity="0.18"/>
<stop offset="1" stop-opacity="0"/>
</linearGradient>
<linearGradient id="paint6_linear_78_15" x1="40.91" y1="224.19" x2="40.91" y2="104.46" gradientUnits="userSpaceOnUse">
<stop stop-color="#FF7120"/>
<stop offset="0.12" stop-color="#FF5519"/>
<stop offset="0.25" stop-color="#FF3F13"/>
<stop offset="0.37" stop-color="#FF3210"/>
<stop offset="0.49" stop-color="#FF2E0F"/>
<stop offset="0.54" stop-color="#EF2B0E" stop-opacity="0.94"/>
<stop offset="0.63" stop-color="#C7230B" stop-opacity="0.78"/>
<stop offset="0.76" stop-color="#861807" stop-opacity="0.53"/>
<stop offset="0.92" stop-color="#2D0802" stop-opacity="0.18"/>
<stop offset="1" stop-opacity="0"/>
</linearGradient>
<linearGradient id="paint7_linear_78_15" x1="245.55" y1="202.86" x2="87.49" y2="202.86" gradientUnits="userSpaceOnUse">
<stop stop-color="#FF7120"/>
<stop offset="0.12" stop-color="#FF5519"/>
<stop offset="0.25" stop-color="#FF3F13"/>
<stop offset="0.37" stop-color="#FF3210"/>
<stop offset="0.49" stop-color="#FF2E0F"/>
<stop offset="0.54" stop-color="#EF2B0E" stop-opacity="0.94"/>
<stop offset="0.63" stop-color="#C7230B" stop-opacity="0.78"/>
<stop offset="0.76" stop-color="#861807" stop-opacity="0.53"/>
<stop offset="0.92" stop-color="#2D0802" stop-opacity="0.18"/>
<stop offset="1" stop-opacity="0"/>
</linearGradient>
<clipPath id="clip0_78_15">
<rect width="1145.19" height="312.45" fill="white"/>
</clipPath>
</defs>
</svg>
