<svg viewBox="0 0 2312 530" xmlns="http://www.w3.org/2000/svg" xmlns:xlink="http://www.w3.org/1999/xlink"><defs><linearGradient x1="41.56%" y1="28.259%" x2="48.84%" y2="34.867%" id="aaab"><stop stop-color="#82F1C5" offset="0%"/><stop stop-color="#29AB77" offset="100%"/></linearGradient><linearGradient x1="56.548%" y1="35.067%" x2="64.056%" y2="30.201%" id="aaae"><stop stop-color="#2EC9FF" offset="0%"/><stop stop-color="#0091C3" offset="100%"/></linearGradient><linearGradient x1="55.558%" y1="21.858%" x2="42.159%" y2="18.042%" id="aaah"><stop stop-color="#8B65E6" offset="0%"/><stop stop-color="#3E1E9E" offset="100%"/></linearGradient><path d="M110.393 47.944 11.74 216.238c-15.41 26.289-15.41 69.306 0 95.595l98.653 168.295c15.41 26.289 53.234 47.797 84.052 47.797H391.75c-21.049-2.96-34.429-30.428-76.248-73.727-37.197-22.23-123.757-103.23-147.438-139.05-27.677-41.866-39.539-64.74-43.988-117.8C117.65 72.733 194.445.145 194.445.145c-30.818 0-68.642 21.509-84.052 47.798Z" id="aaaa"/><path d="M310.305 253.762c-33.661 47.46-93.554 97.134-146.518 130.922C50.256 457.114 13.591 429.1 4.324 417.286c16.578 24.195 51.53 43.335 80.297 43.335h194.763c30.422 0 67.758-21.403 82.97-47.556l97.382-167.443s53.03-100.831-206.508-243.7c164.893 111.39 85.374 210.672 57.077 251.84ZM4.324 417.286a68.015 68.015 0 0 1-2.673-4.221s.74 1.758 2.673 4.221Z" id="aaad"/><path d="M81.378.168s-122.15 40.26-67.025 221.646c-7.318-118.637 135.432-99.322 162.574-72.048 28.5-26.326 96.473-40.214 136.48-16.192C480.737 236.517 456.492 314.07 456.492 314.07c15.212-26.475 15.212-69.799 0-96.275L359.11 48.305C343.9 21.83 306.562.169 276.141.169H81.378Z" id="aaag"/></defs><g fill="none" fill-rule="evenodd"><mask id="aaac" fill="#fff"><use xlink:href="#aaaa"/></mask><path fill="url(#aaab)" mask="url(#aaac)" d="M-712.751-491.691h1956.007v2724.662H-712.751z"/><g transform="translate(110 69)"><mask id="aaaf" fill="#fff"><use xlink:href="#aaad"/></mask><path fill="url(#aaae)" mask="url(#aaaf)" d="M-810.891-553.84h1930.816v2710.886H-810.891z"/></g><g transform="translate(113)"><mask id="aaai" fill="#fff"><use xlink:href="#aaag"/></mask><path fill="url(#aaah)" mask="url(#aaai)" d="M-814.135-495.163h1930.816v2744.021H-814.135z"/></g><g fill="#5937B7"><path d="M831 377.32c32.76-39.48 57.96-115.5 64.26-169.26 1.68-13.86 3.78-22.68 14.28-22.68 8.82 0 12.6 5.88 12.6 18.06 0 35.7-49.14 199.08-91.14 199.08s-91.14-163.38-91.14-199.08c0-12.18 3.78-18.06 12.6-18.06 10.5 0 12.6 8.82 14.28 22.68 6.3 53.76 31.5 129.78 64.26 169.26Zm229.2-176.82v185.64c0 8.4-3.78 15.12-12.6 15.12s-12.6-6.72-12.6-15.12V200.5c0-8.4 3.78-15.12 12.6-15.12s12.6 6.72 12.6 15.12Zm.84-53.76v8.4c0 7.98-2.94 13.44-13.44 13.44s-13.44-5.46-13.44-13.44v-8.4c0-7.98 2.94-13.44 13.44-13.44s13.44 5.46 13.44 13.44Zm173.76-7.14v47.04h49.14c7.98 0 13.86 3.36 13.86 10.92 0 7.56-5.88 10.92-13.86 10.92h-49.14v142.8c0 18.9 10.92 26.88 38.64 26.88h19.74c7.98 0 13.86 3.36 13.86 10.92 0 7.56-5.88 10.92-13.86 10.92H1260c-35.28 0-50.4-13.44-50.4-48.72v-142.8h-16.38c-7.98 0-13.86-3.36-13.86-10.92 0-7.56 5.88-10.92 13.86-10.92h16.38V139.6c0-8.4 3.78-15.12 12.6-15.12s12.6 6.72 12.6 15.12Zm310.68 109.2v132.72c0 10.5-.84 18.48-11.76 18.48s-11.76-7.98-11.76-18.48c-14.28 14.28-36.12 21-63 21-47.88 0-82.32-15.96-82.32-63.42s41.16-78.54 129.36-78.54h14.28v-10.08c0-30.66-12.18-40.32-42.84-40.32h-67.62c-7.98 0-14.28-3.36-14.28-11.76 0-7.98 6.3-11.76 14.28-11.76h65.94c52.92 0 69.72 21.84 69.72 62.16Zm-25.2 87.36V282.4c-37.8 0-116.76 3.36-116.76 58.8 0 26.04 24.36 39.48 55.02 39.48 46.62 0 62.58-19.32 61.74-44.52Zm322.86-211.26v253.68c0 18.48-4.2 21.42-17.64 21.42h-71.4c-57.96 0-99.12-34.44-99.12-92.4 0-58.8 41.16-123.48 149.52-123.48h13.44V124.9c0-8.4 3.78-15.12 12.6-15.12s12.6 6.72 12.6 15.12Zm-25.2 251.58V207.64h-17.64c-70.56 0-118.44 42.84-118.44 102.06 0 39.9 33.6 66.78 66.36 66.78h69.72Zm178.8-175.98v185.64c0 8.4-3.78 15.12-12.6 15.12s-12.6-6.72-12.6-15.12V200.5c0-8.4 3.78-15.12 12.6-15.12s12.6 6.72 12.6 15.12Zm.84-53.76v8.4c0 7.98-2.94 13.44-13.44 13.44s-13.44-5.46-13.44-13.44v-8.4c0-7.98 2.94-13.44 13.44-13.44s13.44 5.46 13.44 13.44Zm115.8 146.58c0-64.68 40.32-109.2 99.12-109.2 58.8 0 99.12 44.52 99.12 109.2s-40.32 109.2-99.12 109.2c-58.8 0-99.12-44.52-99.12-109.2Zm26.88 0c0 53.76 27.72 87.36 72.24 87.36 44.52 0 72.24-33.6 72.24-87.36s-27.72-87.36-72.24-87.36c-44.52 0-72.24 33.6-72.24 87.36Z"/></g></g></svg>